<mxfile host="Electron" agent="Mozilla/5.0 (Windows NT 10.0; Win64; x64) AppleWebKit/537.36 (KHTML, like Gecko) draw.io/26.0.9 Chrome/128.0.6613.186 Electron/32.2.5 Safari/537.36" version="26.0.9">
  <diagram name="Page-1" id="SuIGBm47HxLK40y56JCG">
    <mxGraphModel dx="2555" dy="697" grid="1" gridSize="10" guides="1" tooltips="1" connect="1" arrows="1" fold="1" page="1" pageScale="1" pageWidth="827" pageHeight="1169" math="0" shadow="0">
      <root>
        <mxCell id="0" />
        <mxCell id="1" parent="0" />
        <mxCell id="aabwxI1RRvn9kMPN7O6g-10" style="edgeStyle=orthogonalEdgeStyle;rounded=0;orthogonalLoop=1;jettySize=auto;html=1;entryX=0;entryY=0.75;entryDx=0;entryDy=0;" edge="1" parent="1" source="aabwxI1RRvn9kMPN7O6g-1" target="aabwxI1RRvn9kMPN7O6g-8">
          <mxGeometry relative="1" as="geometry" />
        </mxCell>
        <mxCell id="aabwxI1RRvn9kMPN7O6g-1" value="BIOS" style="rounded=1;whiteSpace=wrap;html=1;fillColor=#d5e8d4;gradientColor=#97d077;strokeColor=#82b366;" vertex="1" parent="1">
          <mxGeometry x="200" y="500" width="120" height="60" as="geometry" />
        </mxCell>
        <mxCell id="aabwxI1RRvn9kMPN7O6g-15" style="edgeStyle=orthogonalEdgeStyle;rounded=0;orthogonalLoop=1;jettySize=auto;html=1;entryX=1;entryY=0.5;entryDx=0;entryDy=0;" edge="1" parent="1" source="aabwxI1RRvn9kMPN7O6g-2" target="aabwxI1RRvn9kMPN7O6g-13">
          <mxGeometry relative="1" as="geometry" />
        </mxCell>
        <mxCell id="aabwxI1RRvn9kMPN7O6g-2" value="Firmware" style="rounded=1;whiteSpace=wrap;html=1;fillColor=#dae8fc;gradientColor=#7ea6e0;strokeColor=#6c8ebf;" vertex="1" parent="1">
          <mxGeometry x="200" y="560" width="120" height="60" as="geometry" />
        </mxCell>
        <mxCell id="aabwxI1RRvn9kMPN7O6g-3" value="Kernal" style="rounded=1;whiteSpace=wrap;html=1;fillColor=#d5e8d4;gradientColor=#97d077;strokeColor=#82b366;" vertex="1" parent="1">
          <mxGeometry x="200" y="620" width="120" height="60" as="geometry" />
        </mxCell>
        <mxCell id="aabwxI1RRvn9kMPN7O6g-4" value="OS" style="rounded=1;whiteSpace=wrap;html=1;fillColor=#fff2cc;gradientColor=#ffd966;strokeColor=#d6b656;" vertex="1" parent="1">
          <mxGeometry x="200" y="680" width="120" height="60" as="geometry" />
        </mxCell>
        <mxCell id="aabwxI1RRvn9kMPN7O6g-5" value="Hardware&amp;nbsp;" style="rounded=1;whiteSpace=wrap;html=1;fillColor=#f8cecc;gradientColor=#ea6b66;strokeColor=#b85450;" vertex="1" parent="1">
          <mxGeometry x="100" y="740" width="340" height="60" as="geometry" />
        </mxCell>
        <mxCell id="aabwxI1RRvn9kMPN7O6g-6" value="&lt;font style=&quot;font-size: 8px;&quot;&gt;Power-On Self-Test (POST)&lt;br&gt;Hardware Configuration&lt;br&gt;BOOT STRAPPING&amp;nbsp;&lt;br&gt;&lt;strong data-end=&quot;419&quot; data-start=&quot;393&quot;&gt;Hardware Configuration&lt;br&gt;&lt;/strong&gt;&lt;b&gt;Security Features&lt;/b&gt;&lt;br&gt;&lt;/font&gt;" style="rounded=1;whiteSpace=wrap;html=1;" vertex="1" parent="1">
          <mxGeometry x="543.75" y="480" width="420" height="150" as="geometry" />
        </mxCell>
        <mxCell id="aabwxI1RRvn9kMPN7O6g-7" value="BIOS" style="rounded=1;whiteSpace=wrap;html=1;" vertex="1" parent="1">
          <mxGeometry x="400" y="480" width="60" height="30" as="geometry" />
        </mxCell>
        <mxCell id="aabwxI1RRvn9kMPN7O6g-8" value="UEFI" style="rounded=1;whiteSpace=wrap;html=1;" vertex="1" parent="1">
          <mxGeometry x="400" y="530" width="60" height="30" as="geometry" />
        </mxCell>
        <mxCell id="aabwxI1RRvn9kMPN7O6g-9" style="edgeStyle=orthogonalEdgeStyle;rounded=0;orthogonalLoop=1;jettySize=auto;html=1;entryX=-0.04;entryY=0.627;entryDx=0;entryDy=0;entryPerimeter=0;" edge="1" parent="1" source="aabwxI1RRvn9kMPN7O6g-1" target="aabwxI1RRvn9kMPN7O6g-7">
          <mxGeometry relative="1" as="geometry" />
        </mxCell>
        <mxCell id="aabwxI1RRvn9kMPN7O6g-11" value="&lt;font style=&quot;font-size: 9px;&quot;&gt;(Unified Extensible Firmware Interface)&lt;/font&gt;" style="text;html=1;align=center;verticalAlign=middle;whiteSpace=wrap;rounded=0;" vertex="1" parent="1">
          <mxGeometry x="324.5" y="555" width="211" height="30" as="geometry" />
        </mxCell>
        <mxCell id="aabwxI1RRvn9kMPN7O6g-12" value="(Basic Input/Output System)" style="text;html=1;align=center;verticalAlign=middle;whiteSpace=wrap;rounded=0;" vertex="1" parent="1">
          <mxGeometry x="350" y="510" width="170" height="20" as="geometry" />
        </mxCell>
        <mxCell id="aabwxI1RRvn9kMPN7O6g-13" value="Drivers&amp;nbsp;" style="whiteSpace=wrap;html=1;fillColor=#dae8fc;strokeColor=#6c8ebf;rounded=1;gradientColor=#7ea6e0;" vertex="1" parent="1">
          <mxGeometry x="30" y="560" width="120" height="60" as="geometry" />
        </mxCell>
        <mxCell id="aabwxI1RRvn9kMPN7O6g-16" value="OEM" style="text;html=1;align=center;verticalAlign=middle;whiteSpace=wrap;rounded=0;" vertex="1" parent="1">
          <mxGeometry x="60" y="530" width="60" height="30" as="geometry" />
        </mxCell>
        <mxCell id="aabwxI1RRvn9kMPN7O6g-17" value="" style="rounded=1;whiteSpace=wrap;html=1;" vertex="1" parent="1">
          <mxGeometry x="510" y="630" width="190" height="100" as="geometry" />
        </mxCell>
        <mxCell id="aabwxI1RRvn9kMPN7O6g-18" value="" style="sketch=0;pointerEvents=1;shadow=0;dashed=0;html=1;strokeColor=none;fillColor=#005F4B;labelPosition=center;verticalLabelPosition=bottom;verticalAlign=top;align=center;outlineConnect=0;shape=mxgraph.veeam2.ram;" vertex="1" parent="1">
          <mxGeometry x="530" y="650" width="40" height="19" as="geometry" />
        </mxCell>
        <mxCell id="aabwxI1RRvn9kMPN7O6g-19" value="&lt;font style=&quot;font-size: 6px;&quot;&gt;Samsung&lt;/font&gt;&lt;div&gt;&lt;font style=&quot;font-size: 6px;&quot;&gt;HP&lt;br&gt;BRODCOM&lt;/font&gt;&lt;/div&gt;" style="text;html=1;align=center;verticalAlign=middle;whiteSpace=wrap;rounded=0;" vertex="1" parent="1">
          <mxGeometry x="580" y="642.25" width="60" height="34.5" as="geometry" />
        </mxCell>
        <mxCell id="aabwxI1RRvn9kMPN7O6g-20" value="" style="sketch=0;pointerEvents=1;shadow=0;dashed=0;html=1;strokeColor=none;fillColor=#434445;aspect=fixed;labelPosition=center;verticalLabelPosition=bottom;verticalAlign=top;align=center;outlineConnect=0;shape=mxgraph.vvd.cpu;" vertex="1" parent="1">
          <mxGeometry x="535" y="692.5" width="35" height="35" as="geometry" />
        </mxCell>
        <mxCell id="aabwxI1RRvn9kMPN7O6g-21" value="&lt;font style=&quot;font-size: 9px;&quot;&gt;INTEL&lt;br&gt;INVIDIA&lt;/font&gt;" style="text;html=1;align=center;verticalAlign=middle;whiteSpace=wrap;rounded=0;" vertex="1" parent="1">
          <mxGeometry x="580" y="692.5" width="60" height="30" as="geometry" />
        </mxCell>
        <mxCell id="aabwxI1RRvn9kMPN7O6g-22" value="DELL" style="text;html=1;align=center;verticalAlign=middle;whiteSpace=wrap;rounded=0;" vertex="1" parent="1">
          <mxGeometry x="640" y="663" width="60" height="30" as="geometry" />
        </mxCell>
        <mxCell id="aabwxI1RRvn9kMPN7O6g-23" style="edgeStyle=orthogonalEdgeStyle;rounded=0;orthogonalLoop=1;jettySize=auto;html=1;entryX=0;entryY=0.425;entryDx=0;entryDy=0;entryPerimeter=0;" edge="1" parent="1" source="aabwxI1RRvn9kMPN7O6g-8" target="aabwxI1RRvn9kMPN7O6g-6">
          <mxGeometry relative="1" as="geometry" />
        </mxCell>
        <mxCell id="aabwxI1RRvn9kMPN7O6g-24" style="edgeStyle=orthogonalEdgeStyle;rounded=0;orthogonalLoop=1;jettySize=auto;html=1;entryX=0.234;entryY=0.004;entryDx=0;entryDy=0;entryPerimeter=0;" edge="1" parent="1" source="aabwxI1RRvn9kMPN7O6g-7" target="aabwxI1RRvn9kMPN7O6g-6">
          <mxGeometry relative="1" as="geometry" />
        </mxCell>
        <mxCell id="aabwxI1RRvn9kMPN7O6g-25" value="" style="shape=image;verticalLabelPosition=bottom;labelBackgroundColor=default;verticalAlign=top;aspect=fixed;imageAspect=0;image=data:image/png,iVBORw0KGgoAAAANSUhEUgAAAlwAAAGLCAYAAAASz0y6AAAAAXNSR0IArs4c6QAAAARnQU1BAACxjwv8YQUAAAAJcEhZcwAADsMAAA7DAcdvqGQAAIKtSURBVHhe7f19dBvXfS96f/3UPVKv70B2WkrpjWzkMhbh0CaNrBCWTi1LJ7GDlE8kpqoBU2+HTQiLOacSraSWGycI5VgMznFst1ck3N6KNY8jRqlIgY0eU6lYwumtpfimktjGEFixGnqJi3DslszLioQ0V/S1ztrPHzMD7NkYvJACKEr6ftbCWsK87tmz954f9t5D3SKEECAiIiKiivn/qAuIiIiIqLwYcBERERFV2C2FhhTfffdd/PSnP8WvfvUrFNiMiIiIiEy33HILbrvtNlRVVeFDH/qQscwp4JqdncX58+cBAC6XC0uWLMEtt9yibkY3mcnJSVRXV6uLiUjBukJ0c7ty5Qref/99XLx4Eb/2a7+Ge+65x3lI8fz581iyZAmWL1+OpUuXMtgiIiIiKtGtt96K3/iN30BVVRV+/dd/HefPn88NuN59910AwLJly9RVRERERFSiW2+9FZqm4X/+z/+ZG3D99Kc/hcvlUhcTERER0RzdeuutuP3223MDrl/96ldYsmSJupiIiIiI5uHXf/3XcwMuIQTnbBERERGVya233pobcBERERFReTHgIiIiIqowBlxEREREFcaAi4iIiKjCGHARERERVViZAq538ErTPbjnHvvnM73vqBvSTeid3s/Yy8Z9PmzaG8dPr5gb/P0e3HPPPdjz9/b9fvlP38GegC+z3/0PbcLX/vYdvCdvdOWXSPQ+gc/4ssf3ffF7+Km8DdF14ST23HMP7vnyySLLze/Kx6g/hdaZ7XTTK2DLTLTwyhRwmao2oGN/N7rNT8cnqtQt5mz80OfwGd/XoDZBdL2pwoavmeWiaRn+5cgT2PLnF9SNMn76vSfwyW2d+N7MR/D5Z7rR/c0vY+NdP8PgFx/BZ7rHM9slnvskNr8QBxo7jHL3zS9j/ZJL9qCM6Eb08c9n2tru/d1o/WiJ64jomihvwHXHvVj/u374zc+a6qv/A6o/GzuFC7+cVRfTdceFe9cZ5WLbf9uLDQDemTb+G6kc/8/30Lknjl/e92X8zd/348tb/PB/9vP4xneOo+ezGt758yewfwIA3sGbZ34JfOJFfHffNqPcffbzePGb27BSPSbRjWblf8y0tf7f9aP2gyWuI6JrorwBVz6/TOCV9kdw/z334J577scj7YO4YA0nTZ/EN//AWncP7vlPT2BwEpnu77ZXAeB7aLO61B2Gn05++R7cc88esxfM7FJ/8i8w2PYQ7rnnM3jl7SJpoAX0Hn76t0M4AQ3bHl2nrgQA/PR7g4hjCbZ95fP4yK3yGg3rvvRFePEO/vpvxgEsgXYHgL/vxSsT7NMiIqLFq7wB18Q38Yg6b+DKBbzy+c345qladAz9AN8/+Hlor30Nm59LmPv8Ay58fC+++4Mf4PsH/ws+Oh3H1774Ct7BSmw9+AO8+LsA4MeLP/gBfvC11coJC/ibXpwKHsf583+Dz/9vRdJAC+ACvuk3gt2H9iSwfl8//vjj6jaGn757AcCnsPp+dQ2AD96JlQB+Ov0zAFUIPPMNrKv6F+xvuh8Pbfsm4m8z8KKbxKtt0jwt84dlKeuI6Joob8ClzOFq/SiAH76Cb/7zEmx7qRuBmiqsXP1FPLN9CX55aNDokVr3ZfQ8sQ4fqTLWfemzACbOYRLAkjuq4FoCAP8BrqoqVGlzGKJc/WV8+VOa8e9iaaAFkJ3D9WJbNU7v/QzWfvWk41yr//dXaXVRftUB9Hz/++j5Qz9w9hU84V+Lzx3JPzeM6IZhm6fVgXW/VeI6IromyhtwKXO4aj8IvPPWmwDew3f+INvztfnQewDMeVm/SOA7/70Nm/7TQ3jofmsIsQw+uBzWlP2iaaAFkJ3DteGJHrywZQl++d0hnFY3A/Chmo8BOI3x8+oaANM/xjsAPlL9oeyyJSux7olu/OCfvo9vfOL/xam9nRjka4p0o7hitlO/piy3zdNag4/8LyWuI6JrorwBl4OVqz4GQMO2nh/gBz+QP89gNS5gf2AzOv/hTnyp57v47utn0f1Z9QiKX1sKAEj/Kts3MltkLlbhNNBiU7VuA9bgp/iLr7+izLP7JU7+H/uRwEp86hMfkVcYlqxE4Pc/BeAUEv+iriRa7H4LK6sA/O0JnJLL/T+dxmsA1nj5qiHR9aziARca/Ahov8R3vtGFEzPvGZOmf/A/0PWDS1iCd/GzdwHgP+A/3Aakx57H/6n2cP0aAPwLTpwcR/zvE8BHvVgD4GR3J+IT72D88BMI/42yj6pgGmihXPrFT/HTiVP4Xncbnjr8HrTfb3IOeD8YQMdTHwX++Zv4TFMb9h+OI/7qK9jz//Wh7dVf4qNPHcAXawDgJDo3mev/No74q/vxua9+D9AC8DeoByVa7GoRePyjwHvfweea9uCVV+P4Xu8efCb0HbynBdC6QfkzO+/8g1Hurc8/s1uXaDGrfMD1v6zDN451I+AawdcCj+Chhx7Blr/4F6x0VwFYh8/v86Nq8hV87uGH8Lm/+RgCn7Hvvu7xb2Bd1QV8p+338dT/PQtUBdCxz4+qfx3EE02P4AsJP76o7JOjYBpoYVzAXzQ/hIeaPoc9PW/itx7rxvF96/IGvB8JHcXod74MP97EXzz7BJ748jfx2pU1+Hz0Bzgasnq3fgvVrnfx1889gSe++ASe+PIreKf28+g+9g2s4xAKXYdW/kEf+r+2AR/96ffwzS8/gT0vvIb3Pp6nTP/TK0a5tz7fZrcu0WJ2ixBCyAveeOMNVFdXy4uIAACTk5MsG0QlYF0hIlXle7iIiIiIbnIMuIiIiIgqjAEXERERUYUx4CIiIiKqMAZcRERERBXGgIuIiIiowhhwEREREVUYAy4iIiKiCmPARURERFRhDLiIiIiIKszxv/YhIiIiovLJCbgmJiZQU1MjLyICWDaISsa6QkQqDikSERERVRgDLiIiIqIKY8BFREREVGEMuIiIiIgqjAEXERERUYUx4CIiIiKqMAZcRERERBXGgIuIiIiowhhwEREREVUYAy4iIiKiCitTwJVCdI0LLpf0uXMtdh2bUTesMCkdD/fA6ezxNnP9mihS6soSpbp8cLl8iE6qa67CZBQ+lwu+rvmmavFKdfngaouri4Hh0FXdh6tS1nOb5a7A8SpSZsogUx8ynxAc7hQtiDhCjmXEKF+hYXX5wshbf6/GcEgpdy7pHCXmw2QUPrm8Oh3T8Tgyh2dXgXo8d3GEXIXuXbH1V8F8puTmSeHnTNH7fbVt53Aot51xundSGvK3Uw73z/qsieJQm/0411qZAi7TiiBePHgIhw6+iJbfTKJv2yPoHFc3ugozcexZvwqP/FkJt3r0L3FErWi/iqGvX1lW1Fn0bPDhzicWz02juYu3FW5krp4HHoSxz7HhjGNfh64unDv1AVMmns4xpNNppNNpDG6OIVDWBirfw5MWp8rfr3ibC65mYNAsc8ZnEMGkPv+HuKU2gjH5uAP1CHuL1/3gQHafwfow6uYbUOTUUT9602n0Npa4vpyq2zGayYegLW9Gd7vVrRdIHKHmJCKJXvitJSWWB7mdGutMIuAKIQ432k9J+8CDSML8fqod23vGEEkGKhPQzkN5A67f9OLTm5rQtKkNL/33IIAUZt5VN7oKv9Jx4s0ZXLqirlDUeOCBjp7D9ofczKEDGFq6HutrbYuLmMHpkzouzarLiWQ6AA9iR3ODlVRXGLHNQQTVFYuQf1MQKMeDj8jJcAiBZARj6ewD1+BH76l2lD0MaOxFOhEBOvaV/EPF3zOI4HgCZfiJRAqjLYygvdpcMM/y4N49iEhtEnrRHwZuNG1xbpevhfIGXJbZGQwdjQPL2tDyiezimWNhbPQuN7v8lqNuWxRnLkn7vTuE8IY6LDe7BJd7tyM6am4wHILLG4YOQO+oK9xVfOtj2PH4UqS6/hJnMgtTOPLKGbh3tyg3FsClM4hus867HHXb+qBfsX6NBBADgP4AXErX7+xUDKGPmt2XH92FeKnXYq7ftdbMi+VrEX5tWtr55mTrNrb9wjS63a118q9VY6hO7WaWGV3OgX7ncqPL+6s9O7Zu7gLlzVT/TATB/rCyXQpDh4HI083ywpxrsl2vMhQQGpbLfwwBW1qVLnXpGoyhgai5vnj6gRSiz8YQfEZu6NQu+9zj2O+BdH8y9UdH2KveU5q/+dWH/PXLVOR+yfvbe4zyl0E7p/K1AKqb0FIbw0CpvRyTOpKZL/nraU79esWpjkrDoI512GG4WB1es+Wn2QM5LLcRTu1eMfmvy2IrS3nvKeZ0/4cO6whusp7AV1MedCRKHD1zb2yBp39gHnlUAUKh67q6qARTonu1JjRN+tzfKg6eu5zZ4uLxVrFS08R9//WAeP3clEh8e6e4T9OEtq5bTAkhxMUR0bpSE9r9O8WBE+fF1I8Oip33a0LTHhTdF4QQly+K6TP7RIOmiYavnxbT0xfF5fflNIhsOlZ3i6lz+8R9WpV48oS56tw+cZ/2sDjwjrSNEEK8f150r9OEtnKbOHhuWkyd2Cce1DSxcs9pId6/LC5OHxHbNE1oLUfE9PS0uHhZiKn9DcY13r1NHPjReZH4y21ipaaJqj2njXMVu5b3T4snV2pCW7lB7IvL6zXRsH9Kup7FZX5lw8yvHSPqYiGOt2bvg/xvIcTU8RHz3yOiVdNE63FrpxHRqjUY+XihWzRorSJz5OMj2X8rRnYoeXu81Z7fF7pFg3ye461Csx3bnj47o0y1Hne41sx+UrrN5fZrss6dPZa1bsT6t3q95rbZ67Lva5RT6ZwORnYo9dZ2n8y6ol6PlAbjHHKaCtyvm8j86kq+vLLfV3tZnhIjx41/T+1vsNchuSzmrV+q3DRY7Z29bljbFC6DdrnHdpZvO+XYan0oUEdz6n9GbnpHdkhlPm89zVO/1DSpxy+23pa32fXZtBtpyF6nQx11ouZN0evKvaeZ77ZjqenLzc8s9b6q3/NT759a1s2t8hwv3/KFV94erswcrl489ZGT2LVmFXa9Ngsghb7nYrh011MY/PM2rK914/7tL+H7LzwAvNmNvjeB1KF9iF1y46m/eglt6zxwf6wFL/3Ni3gASXR/+yywdBlW/ObtxnluX4EVK5Zh6a1qAiS1bWj3zaLnQAyzAE68HEXK9xg++yFlu7+PIvzmUrR95xBaalfAva4Df/qFpbh0oA/xW5di2YplWAIAS5ZhxYoVWLY0u2uw+xDaPubB/Y8/hbYVwOwPTiOFEq7l7/vQcwlo+tMYOj5lrn/lKayQknVTkrrx3Y1+41fP8ABitRHszcxx8GNvJ9B3zPo9JnUrN/pzey8LqY1g0JrLUN2OyGYgOWEcN340Bk/n3uzxGvcigj4MFeklsv+aKvALrrFXmrfhR7N0bkD+tx/+fPM7JofQNx5EJDMfw432Z4L27nO5+z4P29yIe8PZX7vm8Qd7pFxt3ItIprfA/MU6IA8H+LG3c/F04d+o9HOZmgJ/ozt7L6Sy5t4dQVD+Ze9Uv0q1eTBbXhv3IlKrI6GXWAYLsfXmzKenpjxizdkemgAGkbbKfJF6Wkr9mguj3RmUjmnkp354SOqB8iDyV9Z9NtbPeRpA0esalOZ5OaXBNOf7Xw9PofwqUB6MEQpjXd3hFowVGHK088BrlddrrLwBV2YOVxAdAy+jbekl9MVOAtChvwngd1bDI22+4i43gBlMTQP6uSSAB7Banl/1oQ/DDWDmXaf3DYtZgc8+9gBw7FUcuxRH38uzaPovLTlBTWr8NIBZ9GzIVrhHDswCuKxsqfLAm7mY23H7b2bXFLuW1EQCgAerPy5Fb8tuhxlO3lzqPUalaexFegBGV7s0bJWaSALjYdRJ3d91HbrxwKlux2iiBX1eY3n5JkamoCftFdzlqkN4vIRKW92OyOYYwl2pTGPU7Bgw2bvhA5mXOdxoPzWGlsPmufN2zwPQE9nhCevTHJt74ytx7x7MBpZ6Anqt11ZnATc89VbjrCMxLtcDc4ua+qtKAznJ5rO/J41BGFMcskNBxhCLHDi4XAHErB8keerXVZtTGXR48DX2GsF+IqKUs3xyy1txRn2ur8n/eJYnzWeCLaBAPa2EPOn0eOEp+5yyOV6XR20HTHO6/6q5lQf5h2G65GBrcSlvwJWXB56PAfjhaVuhmXk7lalAnnvrAZzBaXlc9t0ppAB47lWzvjQrtn8BTRjC8037EEMQLZukAMfkrl0NYBna/votvPWW/PlTrFM3LlGxa3Hf5TEaSDkz3kmVUECvT/kewKmJ7EwJQK5sLejzGg8Fd009sHlQentFaRQzb+IMAs3lCrqMoMLWCJufUt4m8j8dAQ4PIfpcGJB7yTJSiK6pQ+KZ7HEHN8vrs2/eDCKQP+jyeOFR38q66sZImhtRoKE3HgoODWZmAzOQpjnIl5+581X8Pca9HtvSZ75R54G3VnpDK/MZzfaWONSvqzanMljqBObS86Ekw/sQhtxLXqpi9bTc5B8zipwfPldjHtelO7cDc7v/sI9IlFweymE+gXr5lTfgunIRMzMz0E/G0Nn8OHpml6EluA6AG499fj3w9gsI/GEPToyncPboHjz61BlgXTseqwbcv9eG9Ujhha270HNSR+rNIezZugdnsB7tAfPW3QosAZD64QjOnhxC/G01AYrbgtjx+FLobyax9PEW+J2GIH+nCS3LLqHnqU6M/OssgFlMv9aNztcuwgrPfgMAknHE3xxCfNS+u5Oi1/LJ30UTgFjbdkRP6tBPRrH9iT71MDeOxmYEx8MIyBNtJ6MIdACRp41wJNUVyj4Aqj2ot7ZrbEawP89rvcMhabkH3jm9fVqYf1MQseZ5DnFUN6EFYYT75a52mdozFMdA5hdmHCEpwCr4Y8M8jy1fr1KqK4xYbQuaqrOTjW1/JmI4hEC/1WtnNpi2fIoj1ByTJsZS6ZzyE4i3BaQ3u1KItmUnOLtrrJriRtMWILw1d/IzCtWvqzXHMujePYhIMuA4STurlHwoTarLB1dzUhqCm4tC9bQy/JuC0DsCUjCcQnRrGNjSNI/051PCddle/jHrtNPUiDnd/9xAurTycJUmh9A3XmQoc6Gok7rmN9nTnLgnT75d+aDYOTQtbXNZTH13p3hwpbn+jpXiwfZXxVR2Xr24fOFVsXPdyswxVq7bKV69IG0gLorXnzYnrN/xsDiQklYJkU2HPJnuh0+KKu0+se9cgW3esZ+36v4N4vkfZs97/pVHxd2aJjStSjz5d06TJXOPWexaLp7pFtvuMc/34E7x6t89b7wQ4Dixc3GYX9mwmJM9Mx9lEqM5id362CZdmhPac/ZVlhfMu8y25r7qJNJ8EzPl8+ZM0rQ4TBQ93qpMZLVP3LQfu1W0Zs6t1CWHNGqaPElWzVdl8muRybQ5k+ZtE3pFbnpy1qvXkjthNrM+b/7deK6mrqj5qd5D+z2z34+c+ylPmi9wj2Tq/cotR2p5z18G88lJp8M+xfIhZwK6co2O++RQr8Uufz11yheDvY7mHr/YevU67O2awwRwh7Ysh/rSRNHr6rbVe1sacs5X+v0vmmd5jqG2zc4c8kY4tcXXzi1CCCEHYBMTE6ipqZEXEQEsG0QlY10hchJHyBWGNyENdVdUdvi0lOkglVbeIUUiIiIiR370DtQj7J3ndI05irfVIVwvvWF7jbGHi0rGskFUGtYVIlKxh4uIiIiowhhwEREREVUYAy4iIiKiCmPARURERFRhDLiIiIiIKowBFxEREVGFMeAiIiIiqjAGXEREREQVxoCLiIiIqMIYcBERERFVGAMuIiIiogpjwEWVNxyCy+WyfXxdKXWraySOkMuH6KS6XDIcgstl/mer5rWEhtWNLHGEXC642qz/mjWF6Br7tbvWRCFffbxNWS+nRz43ERFdtxhw0cKojWAsnUY6nUY6EQE66goELYtJHKHmJCKJXvitRbUeJJ+1B02WVFcYMXUhgOCAee3pMUQQRkAJOD2dY+b6NMY6gbDXDLIaezHWmUQgE8AREdH1iAEXLbzqdkQ2A8kJp5BlcUl1hRHbHEF7tbJivA9DOb1icezrAIKbPeoKiRtNWzzQz+nqigz37giCSEI3j+/e2AJP/wB7uYiIrmMMuGgRUIbd1N6cySh8jsOR6nCdPDRorAt1mftmhvHs+/i68gc+QApDh3UEN2X6tkwtiHQC4eeUdA4PILY5gr332hfbGUFZ5Gn1mAVUN6GlNoaB66JHkIiInDDgooU3HEKgP4jIbrcZANWhb4s1pDaGSDKQHW6cjMLn7UNLwhqSG0QLkNkvXD+YGYpLD9Rnh+JMscPAYDqN9Kl2uHPOlUbknPMQoEFHYtwDr0OHlWd3BMH+sD3AezbmEJwZYs1WkBdAsnMwt8dMEm8LKL1qbnjqr48eQSIicsaAixbGeBh1Vk/U0Wak0+acqMkh9I1bwRcAuNH+TBCxo0bYFH8uDNgCFD/ad7sz+w32SAFO415ElJ6g4DPtsI6cey7A3zOIYOabk3p4HIMjP5o36+g7ZgZBw/sQRgR7G9XtDNk5XGlEztXl9OLpHXWZXreBTWmk5esC4Lm38DAkEREtbgy4aGFkJs0PItgv9WDpCeiIISC/pdccA5I6UkhBTwL1NdkAKUNPQK/1wt75VKQnyHGf+fM/HQE69iEOIH40Bs+WpmxwV4C/ZxBBZU5WZtL8QBCxZr6VSER0o2HARQvMj145qPB44ZHfYLQ+p9rhLhRAebzwjCfg1OfjGKAhzz6TOpLy9xzZyes5qtsR2RzDQFcU4cwQaQkKnbOxF4ObY45vJXruLVeoSEREC40BFy08OaiobkKLw59JsPg3BaF3BKS5UnFEu1KZieS2wMScG9acZ1gP1R7UI4awdK74c2HHoM3ggbdWRyL/BvBvCiLWEQY692b/bEQR8efC0Dc3593e6AGTegHNyft5A0kiIlr0GHDRNWEFFb4uoP3UIOqlOUwu+Q+LNvaak+Gzk84TNW5jrtcpY4J9digSGLTmhjnyozdtP9fApkJzuIw/4WDNJ3PUuBeRWg9aNhYOhrKT5l0IJCMYU+Zo2Vm9gNZblzoS4wUCSSIiWvRuEUIIecHExARqamrkRUTATVs24gi5wvAmRgu+WVhJqS4f6s5FcibS0+J1c9YVIiqEPVxEBfnR6/DnJhbMcAh1HfX2tzGJiOi6wx4uKhnLBlFpWFeISMUeLiIiIqIKY8BFREREVGEMuIiIiIgqjAEXERERUYUx4CIiIiKqMAZcRERERBXGgIuIiIiowhhwEREREVWY4x8+JSIiIqLycQy4+BeSyQnLBlFpWFeISMUhRSIiIqIKY8BFREREVGEMuIiIiIgqjAEXERERUYUx4CIiIiKqMAZcRERERBXGgIuIiIiowhhwEREREVUYAy4iIiKiCmPARURERFRh5Qu4fn4G0W0+3PkBF1wuF1wfuBPb+2fUrRbGZBQ+lwu+rpS6hq6RVJfPKBfmJ3NvhkNwrYlisd2pVJcPrra4uviai7e5FmW6qBxSiK7J1hHj40N0Ut3uWjHSFxpWl19rcYRcizFdRHblCbiunMEe7yMIDwOfff4QDh08hN5n/FhyaVbdkm5C8TYX6s5FkE6nzc8YWqCrm910igd1cYSUB66/J410j1/eiG4wwQGrnqSRTo+ivVrdokSTUfhcIRQqYYtPbpnPkXNdfvSm0+httG1FtOiUJ+B6+zROXAL8B36Alx5vQtOmJgR396L3C251S7rppKAngeAmOUhwo303gwYiIrp5lCfgum0ZPggg/lIUukOnljGc5MML/xBHeO1yo6v8o9sRHb2U3ejSGUS31WG5ywWXaznqtvVBv5JdPXNsF9beaXaz37kW4ZPSvu8OYZd13OVrEX5tOruOrjE3PPVA7Gipv7PVYRXp1646/DgZhc/2a9j+69g+jCn/Ija36woZ6wr0MtmOoW43bO6fb7051OGUhnibC3UdOtAfgMtpOGQyCp8rgBh0hL2uzHXbe8XM6xg2htBdmaFa+bxqD4c9TfKwe/78omtPKUs59SC7LjRslk1vGDpiCNjKplK/pDJrlK2oub5QL5P9GGrZzTt9wJKv3uQp8zn75lyXfajTqiPxNntZltNVOE32a88eJ0+aiEolFLquq4tKcv6VR8XdmiY07W7x8NOviqnL2XVT+xuEplWJqvu3ie4T58X5E91i20pNaFWtYuTfhRDvnxfd6zShrdwmDp6bFlMn9okHNU2s3HNaCCHExeOtYqWmiQe//rqYmj4vDm5dKTRtgzj4jhDi/dPiyZWa0FZuEPvi58XUjw6KnfdrQtM00bB/KpsIumrzLRtCTInu1cY9aT2urDreKrTV3cK4U+Z2O0bs67VWYSwZEa1ag+i+YKwyypV0ny90iwbzWFP7G6Tjmt8zxx0RrZpyHkXOsc20Zb4fbxWalJac9eY55DJYOE1O7NcrcvYxr8M65oVu0aBpUn45pyl7D6TjX+gWDZn9hBDHR7L/pjmbX10x7ldOHRFGebPfN2s7dZ8RMWL9W72nOeXBvq9R5u3lzc6qx9I2F7pFQ06dlM+plLmS6k2hNOS/Lvt1ZL+P7FCeB7Y2Jc93q07Z2ichpo6PZP5NNFdlC7iEEOLyhRGxb+vdQtOMAOigeSgr4HryhLTtkUeFpmliZ1wIEd+Zs/70niqhaTvFiJgygrFPHhDT1srpg2KDpokHX5oy99XEtiNShPejfeJuBlxldzVlw2AGCPkat5yGVOQ0piM75H83iO79rZkAZGp/g3nP1YeQMM/tHLg5cQyGpLSO7HAoXwUaaoNDwKiewyY3nbkBV6GHl7K9Q5oyeaY8OOnqzK+uZH+YZD45ZciQLX+59zxDrU/qd2GWCan+FC6PTvUqNy3qevm4RetNTpl2kHMdDgFX3h9tIuccuWmaEt2rzfU5+xLNX3mGFE1Lq/3o+M5b+EniJfjfO4Fdf9SH7HuKbrhXStv+r8sAAJevAKnx0wBm0bMh23X7yIFZAJcB6Ei8CWB0D1ZZ3bqrduEEgPeuAKmJBAAPVn98afbgy27H7dlvtGgYk1vHOpMIOHXN6wnotV54bAuNIcnkhLG1516POTwZx0CyBU27mxHsH0AcKQwdBlo2uo0yMw7EmqWhAFcAMSSh5x0mKYHHSpsxL62+Rpmj6PHCM56ADiA1kQTqPbBv4YG3VkeiYu8LGHmVky5TaiIJjIdRJw3n1HXo0M/pQHU7RhMt6PMay9VhIlo4tknzp9rNMmQfxgv0W1u70X5qDC2H64x1OcPaEj2RHYqzPs0xIKnn1sU58Nxr1VgdiXEPvPYKDHdNvXmO4vWmIjxeeHLaFYuRJr3DzD+XCy5XHcLjZj1t7EV6AGaeFRpmJSqurAGXZWl1C1o2ADh5BmczSy/iojTtaubtFICluON2wF27GsAytP31W3jrLfnzp1gHD7wfA7DuRYzZ1r2F7z/uhvsuj1HR5dr6TuqqGhCqLPfGFucGtkDDazXS7o0t8PQPID48gOSWJrjhR/PmGAaGdSTG6+GphhnYeBBJyG97XeUbX7AeWMgJAm3Mhj37kFHlPpAWirumHtg8qOSJ9NZjdTtG02mk04NAM4OuxSOF6Jo6JJ7J3rPBzfJ6N9pPmcsRyB90ebzw1EYwpt7/TFA3P/o5q8YW+EFR74G7hHqz8Iw02d8MNT6Ztx4be41liRb0eRl00fyVJ+B6bQ/WNnei5+gQho4OIRbZiJ2DwLLtTViX2WgGL+zYhaHxGeivdeLxb5wB7mrHjv8I4Hea0LLsEnqe6sTIv84CmMX0a93ofO0ilsKNpsfqgZOd2PXyWVwEgJ+fxZE/7sPp2wB88nfRBCDWth3Rkzr0k1Fsf6JPTh1dUylE2+y9WaljfQ49WQCqm9BSG0NAfmAMhxDoD6LZavyqm9BSm0T42aTZmwX4NwWRfDaM2OZmGKGDG01bgPBWh160uegP2yfkN8cQfMZ4OPk3BaF3BKT1KUS3hoEtTcbDq7EZwfEwArZJ6QGE0YKmqwn6rkZjM4L9AedAajgkLffAW2tfTdeS2nMUx0CmhyuOkFRfsr1NDqqb0AJ7mZyP2LNSvTLrZ2S326x3HsSalRdUmmOZt5SL1ptrwL8pqKQ5K9UVyqa12oN6ZT3RnKhjjPOae3D2gNjw8btFlTXvoOo+seHpV8X0+8ZqazLmV7+9TzxcZWxT9eBXxcjPpGO886rYuW5lZu5C1f0bxPM/tOZlXRSn928T95n7anesFA/uOJKZ23DxTLfYdo913J3i1b97XjRwDlfZzatsSJNWHeel5MwrUuex5M6fmFImn1uTxdW5IznnzTv3KZcxD6Tblpac8nS81Xb8nPWZOWsO162sV9NusSYAW/sWnsNln+MmcraXJ9ZbH3nSfKFrobmYX11xngMl5HKgaULTWkWrMm8qXxnL1AH1RQvpk3fuUw4zffvlspJbj+xpdbieIvVGLfNO7NdVZA6X9DKNuXdOvVHTbJuLWehaiObgFiGEkAOwiYkJ1NTUyIuuWqrLh7oOIJK4yiEduqYqUTaIbkSsK0SkKs+QIhERERHlxYCLiIiIqMIWJOBy7x69+jfEiIiIiK5TCxJwEREREd3MGHARERERVRgDLiIiIqIKY8BFREREVGEMuIiIiIgqjAEXERERUYUx4CIiIiKqMMf/2oeIiIiIyscx4OL/AUZOWDaISsO6QkQqDikSERERVRgDLiIiIqIKY8BFREREVGEMuIiIiIgqjAEXERERUYUx4CIiIiKqMAZcRERERBXGgIuIiIiowhhwEREREVUYAy4iIiKiCitfwPXzM4hu8+HOD7jgcrng+sCd2N4/o25VeVd0RD+7Cmu/eVZdQ9fKcMgoE9InNKxuNDfxNhdcbXF18aKX6vLBtSaKlLpiEUp1+Wz3zNd1PaT6ehdHyFZXQljspTzeZq/b10OaaeGkunxlb6sr1f7H2yrbzpUn4LpyBnu8jyA8DHz2+UM4dPAQep/xY8mlWXXLynsvBf1HM0ilZmCd/eyBjfDduYuNwLVUG8FYOo10Oo30QBCx5qtrlP09aaR7/OriRc+9exTpU+1wm98rXcHnK97mQt25iHG/0mmk02Noga5uRuU0GYXPFYY3YeV5GukBL/RJdcPFx9M5lknz4OYYAmV9GMYRcvkQLZAPlXioL1aL+1qL36tyuF7b//IEXG+fxolLgP/AD/DS401o2tSE4O5e9H7BeqwsoNv8eOnHafz4z/1Yai6a+acT0C9dVjaka6axGUEkr4sHyc0pBT0JBDfJDZob7buvvwbuuqInoNe2oKlaWtbYjnb5+3XAvykIJPXroheXaCGVJ+C6bRk+CCD+UhR6nk6tmWO7sPZOs8v5zrUIn7yUXTmbwtATa7PDkR/txBlkh6Lk4Sej+9rsHZmMwudywdfRg3CDtdzskm+LA0ghusaFQD8AxBBwueBq+x/ovM8F18M9yA54zqDnYXUZVUqqK4zY5oj0IFGGUeQhN/Meq0ORub/yjHvteAx5K9swmdzLpuyv/oJUhkVDw1ba7D11tnQNh+BaE0XUHHIJDWeXpaSyqXfUweXyIXoi93jGOXyIThrb5+sNs84rD++o25Y+ROiGpx6IHS30K9p+z9Rj2YeZjGvKd8/s9zRq3ofsr+T89+wG4/HCM96HoQI/RArmhVJXjHvi0OOQKYPI3oMuc9/M8sL3N78Uos/GEHwm24ubU7fU9ORcl3S+ySh8rgBi0BH2OtfreJsLdR060B+Ay/a8mMvwrJVP8j5yOueYT7Y8NtmW5dmvSF3Of62SEtuluJznDvXSMd8KHbvIvXK6Hkve+w/ndlS+HnVf+/UUbtdt+66JVr4PXyh0XVcXleT8K4+KuzVNaNrd4uGnXxVTl7PrLh5vFSs1TTz49dfF1PR5cXDrSqFpG8TBd4QQYkp0r9OEpt0ndv7l6+J8KiEOtj8vXhdCiOOtQtM00Xo8e6yRHZrQtFYxIoQQF7pFg6YJTXtQPH/OOuGIaNU0oe0YEUIIcfln0+JIiyY0bZs4Mj0tpi9eFue/cZ/QtIfFgXfMXczjbDsiJZpyzLdsWPcx+zHvn7Q+e4+N+2d8nxLdq+X7PyJGzH9P7W/I3GNru4b9U9aGYmR/t8h+M13oFg3yuY+PmP9W91fOe7zVnuYL3aL7uMPx1HQ5lF9xvFVoq7NpG9lR4Ly246lptJva32A/1/FWoWkNovuCvF5Oq5zPTozz5aRfCId9R0SrdK6RHdn6J4QQU/u7xYiaN8Ya2/UaacweJ7NMyq/cYyxOV11XpGu2FMyLC92iwZZ3I6J7/1TOvRFCLYPmfbadr/D9VRltsvRxuMe2ZUp9Kl42C59fqHkhROYYcn1R88/OfG7Y2gc5nXPNJzXNclkvtF+JdblQHSixXcrkjfn8y5zvQrdoVdok+7YFjp1z3SVeT6H779CO5s0DW/rUNtOhvZHvp5ovFVC2gEsIIS5fGBH7tt5tVLqVG8RBXRgXuU4T2icPiGlrw+mDYoOmiQdfmhLih0+KKk0Tj377ou1YQjhntFPAVbXntLSTWXGkm2HbRwgh3jkgHtY08fBfGCma2t8gtKonxevvZ3YhB/MuG0qQkftwsMsGIWqFycppQPI2pJJ853VoRMTxVlugkxt0OO9XNF0FAy51fYFzK3IbIHlf5+Pk7uMkz4NIua6p/Q3GdTjkibxN/jQWX28YEa15jr+YzLuumKyHVL6HhSGbFznlyLZN8YDLdtxC99eBem7bg8yxPMy1bDpcgyKn7DhcQ+HjOK0rkk6Hc8j5ZMsXOR+K7JdzLUXricIhz4u1S+o9lNn2LXZsh3zMTW+RfFX3cUhv7jFF7rEc0lqsXS+UD+VQniFF09JqPzq+8xZ+kngJ/vdOYNcf9WEGOhJvAhjdg1VW192qXTgB4L0rQOpHpzALD9b/zjL1cCVzr1yhLirsQy34wkbgzJFXMYMUhg7rWLp9I9bfqm5IFVHdjsFOoO+Y1W1s7/Y1hoBhzBs6NYaWw3WO3cGW1EQSqPdIQxh5VLdjNNGCPm+2axow585YQ87WpzlmzkPRkRj3wOtRjlUpjc0IWsNKk0PoQwR7G9WN5sr5Gtw19SXMtfGjN53GWGcSAXOIIDWRBMbDqJPyq65Dh35ON+cheVGe7NKRGAdizfJwQQCxm2D+n3v3KNLpQdR31JnltFBeGHPu6muK1oCSFLy/JXDvHkQEZhl2LA/GkHVyInWVZTM/5zbBA2+tjkRpl5FJZz7F8sn/dAQ4PGTUmWN9QOde+EvYbzGQh//qOiqZrvLd/3hbHfq2jKHXai8XU7tuKmvAZVla3YKWDQBOnsFZeOD9GIB1L2LsrbfwlvT5/uNuuGu8AHSc/ieHyV+3/gYA4NK/Z9fNXpHWz9tSBL/QhqWjxzDyWh96xt1of3y9uhFVULZxSSG6pg6JZ7JvZg1ulrd0o/2UuRwBx6BrTpWzuh2j6TTS6UGg2Qy6PF545Lcorc+pdrjn3EhfLT+aN+voO5YyGuktTcUDyaIKXEPOQ8mZe2MLPOMJ6FZ+bx6051XafGvI481sd/U88NZ6EJHf2kunkU6PXncTyefHj+bNVmBSKC/kAObqFby/JTGCQ8Cal+ZcHowA8erLppP8bcJcHrJGIJtP0XyqbkIL+jA0mcLQYaBlo3E1Rfe7xuJtLoTvzb51OtZZcobNQ5nu/3AIgWQEg7ulPebcrhe+3+VQnoDrtT1Y29yJnqNDGDo6hFhkI3YOAsu2N2Ed3Gh6rB442YldL5/FRQD4+Vkc+eM+nL4NwCda0LYMGPrCQ9j18gnob59F3xMv4AQA1D+A9QDikT0YGk/h7MvbsXNQPXkJbgWAJOKvncXQ8Blj2brH0LL0BMKtPUj52tFWq+xDlTMZRbjfYzZA6i+NOAYyPVxxhKQAy3Nvnorf2IzgeBgBaaJlvCt3ci2GQ9IkUw+81j2vbkIL7PtnudG0xWP/MxaTUUSHAVR7UI8YBqxjTkYRKMOvQeOXcQCBjnpEMg2IfYL53DhcA+IINceUNxEtKUTb7PmXOtaX7alobEawP+CcluomtNTa/yxAqiuKuPWg6R/IpCHVFUDYejA7cqNpCxDe6nAvb0S28olMXTACk8J54d8UhN4RkCZ5xxHtsgI1I4C3loeaY9kdnRS6vyVIdYURs962dCgPGA4h0B9EcyPmUTZL5NAmpLoCCEN5C9RGR/g5udwGEC7Uw1w0n4x71vfcPvTJ5y2631W6qnZJ7S01RoAyrurYTspw/yej8DUnEfkr+UWN4u26px6IPSvVp+F9RdqjMlDHGOc19+DsAbHh43eLKmvSZNV9YsPTr4rpzJyoi+L0/m3ivipz/R0rxYM7jmTHZH82IvZ95r7M/ivXPS8S5qrzr2wTd99hLL97xxFx4PO5c7jsY665c7iEflA8erdxjKo9r2cWG5Pns3O5qLB5lQ2RnYsnf+Sxc2u+ivFpFa3KHK7MOmkcP3cM35prZH5yxvez5cXaxrHclJRGaY6CfG2ru8VIkbkHOcsyacqdYJt7fepcmKzc/Mido2C/htz5C7KcidDqdSh56Zh+h33l4zbsHylpbkpOWhy2WWzmVVdy8jT3HhXMC6We2eeyWMtbxUixOVw5+2g5LzPIctKUU06V8pCzvnjZzKxXy2FGtv5m91XqdN59RXbu0X45D+V0zjOfzPVz2S+3HqjndrpWxRzbJdvcJVs5ahCtOxzmx+U7tsO9Kn49Re6/Q3qzx1TLVjZdxvaF23Vb2d0xUvE5XLcIIYQcgE1MTKCmpkZedMM6+2wdHvqT+9H7b4cQvE1dS6qbqWxcW9lh1sx8hOEQfBN7MSp3mdOixbpyvYkj5ArDm7hZhqvpWijPkOJ1ZvZSCmcP7cL2P0lh2ReeYLBFi4rjUEZjL4MtIqLr2E0YcKXwl5+uw0N/eATLPncI//jfH1A3ILo2zD9cWddRj0Hpv/8hIqLr3009pEhzw7JBVBrWFSJS3YQ9XEREREQLiwEXERERUYUx4CIiIiKqMAZcRERERBXGgIuIiIiowhhwEREREVUYAy4iIiKiCmPARURERFRhDLiIiIiIKowBFxEREVGFMeCiyhsOweVy2T6hYXUjIgKy/6dmsfqS6vLZtvF1pdRNDMMhuNZEkWftVYu3Zc+d6vJV9FxE1zMGXLQwaiMYS6eRTqeRHggi1hxCXN1m3uIIuXyITqrLia4zwyG4vGHUD5h1JZ1GOj0INLvgasvWmHibC3XnItI2Y2iBbjvUteDePYo0/+N1IkcMuGjhNTYjiCR0BkhEkjhCzTEEB9LobZSX+9GbHkSwP2z+qEhBTwLBTX5pGzfad8vfiWixYcBFCy7VFUZscwTt1fKyIsMj6rCk9Wt/MgqfK4AYdIS9Lg5n0PVreACx2gj22oItix/Nm3X0HUsBcMNTD8SOzrePOIXoGnnIUu0djiMk1zWlTtnq6pqovV/NNnxpnCc0LB9PPZc9Lca26jZENwYGXLQwxsOoMxvVuo56DPZkf42nunzGMmkIpb6jLjtvZTgEV3MSkUR2+CSSDBhBWXU7RtODCMJjrOdwBl2nUhNJoN6Tt/x67vVAP2eEN/4eow4YQYq6ZSEpRNfUIVw/mB2OHKhH2CsN8Q8PAJkhzUEEx8PYZ54j1eVD3eGW7PSAZxII90uHdxBrHkCzuf3gZh3hrXJAVoe+LWOZtDQfDSCmHoDoBsGAixaGPIcr4UU48ys2haHDOoIDvciGYH7s7fRkfsHHj8bg6RyUesTcaH8mCP3wEHuz6CblRvspaX6Xq8Q5kZND6BsP2n7woHEvIrUxDFiBW2OvNKTpR/NmIDmRytbVZ6QfNY29GNxsfXEm123/0xF4xhNGr5iZlsjubIjp7xlEMPON6MbCgIsWXnU7BjthDo/oSIx74PXYN3HX1ANJHSlzvkp9jfK73+PNNtxEN4BsmXemn9PhuVepKPCjN53GWGcSgVKG0/UE9Fov7EcxhiiNoAo5w3yBTA+Wc12dN8e0EN24GHDRNWENjQAeeGt1JJwip3oP3DkPAwkba7qRNDYjON6HIcf5S3EM9HvQstF5wNG9saW0HyAFfqgYP2qMYb7EM9aQYlrqwXKqq8YPonlT0zKp42oOR7SYMeCihTcZRTjz8HCjaYtH+TMR5tta5ltY/k1B6B0BaSJtCtGtYWBLU975LkTXHz96B+oR9qqTxuMIuQJIZobVU4i2KRPZj/WV1ltU3YSW2hgC0p+YwHAIgf4gmhvh0IsVx0Cmh8ucrP+sdO7hfQiPW1/mqLEZQcQQll6QiT8XdgwGiW4EDLhoYUiT5o2/MzSamZPl3j1qDIlk3mQKAPKr8Y295sRea70x0XY0M/fDj72d4FuKdP1r7EU60YK+TFnP1odseXfDA6k+uVzGRPaSXhhxo/1UdsK9y+WCqxkYTFvzrKS65HLB5RoApDla/p40Buulcx9tLjqHKz8/ehMRoKMuk5aBTZzDRTeuW4QQQl4wMTGBmpoaeRERwLJBVDLWlXmajMLnTSCSCQCJbhzs4SIiokXAmCqgb25msEU3JAZcRER0Dah/gNX8+2Dyn6wguoEw4CIiomvA+lti0ofBFt3AGHARERERVRgDLiIiIqIKY8BFREREVGEMuIiIiIgqjAEXERERUYUx4CIiIiKqMAZcRERERBXm+F/7EBEREVH5OAZc/D/AyAnLBlFpWFeISMUhRSIiIqIKY8BFREREVGEMuIiIiIgqjAEXERERUYUx4CIiIiKqMAZcRERERBXGgIuIiIiowhhwEREREVUYAy4iIiKiCmPARURERFRh5Q24ZlMY+spG+O50weUyPstX+bDr6Iy6ZflMRuFzueDrSqlrDJfi2NXgQyh2dWlIdfngcvkQnVTXUEHDoUxZUD+hYXXj8kp1+eBqi6uLF9ZkFD5XCM6piCO0APmQI3NP8qWLrq0UomvU+lLBtmc4BNeaKPK0oEY9KrC+JIXOMRmFr5LXl0e8zczba91GKOJthdO0KNo1mpfyBVyX4thVV4ftf3YaSxoj6D14CIcOvoj2hz6Iiz+ZVbdeOD/XkZjQoV/LNNzMGnuRTqeRTqcx1ukBNg9mvvc2qhuXJt5WIMC+rvjRO5d8KBi8lSqOUHMSkUQa6XQv/OpqurYmo/C56tC3ZSxTT4y6AyR0deOF4d49ivSpdrjVFeVS3Y7R9Cjaq9UVzsoScAyHEEhGMJZOI92zuGqBv0dOUxyhaxCMUmWUKeCaQd+2APpm6hH5x5/gjZ52BDc1oWlTGzr+xzEc+kLFqmpx1e14I53GGzuvYRqIFotJHUnUw1Piw40WUgrRrWHUD6QxutveXrl3j5YemFNRqYkkUO+pXBBJ5KA8Add4D144CTzwwl+jvUZdKbGG/zp6EG6whjRmcfZbIazNDEMux9qvnMAlcxej2zeEofEebP+oOUy5dheG3lWOfWUKsbZVxjE+sAq7hs0jOAw5XvqHKLZ7l2fOt71/BiiSDqoEZegk86tVHWozt2s7hOgaFwL9gN5RV/IwizEcrJ4Duee39R4ZabDW2XrUbMOkahrs+4WOyetUxvmt67R+uWeGOuTzDofg8oahI4aA7Try5aF1vKi53ofoK07HKJQHDseXhoVs+ZqzH83Z8D6EEcHeYoGVOTwXNcuJUX7s5c42fGcN58nl1mF4T89XTxyGA+Uymr33xcpSPvZenEL1IN7mQl2HDvQHpGu3jpG7faaOdRnPAdeaKA45HqNA/iH7HMl3fMd8k6i98jnDtFIeZ3rwJqPwuQKIQUfYm5smp/zJZbUx0vXl1Hu1DVPrtkPaHdrRzL1Q8kqeMnHTtxlCoeu6uqioy0ceFZrWIJ4vtuuFbtGgaULTHhTPn7tsLpwSB3bsFAd/NCWmp8+Lg1tXCk3TROtxY+3IDk1oWpVY2fSkePVH50Xiu0+KBzVNaKu7xZTtmHeLbX+ZEOd/dEBsW6kJrepJcVpa37B/SgghxOX4TrFS08TKpn3i1R9NifPxfeKrh6eKpmNqf4PQtAbRfcFM9k1oPmVDNrW/QWg7Rqxvont19r5Y3638Nu5bqxgRQojjrdn7bZaJ7H75Gfcs9xyZ7xe6RWuedfZzTImR4+a/j7cKzUqX9T2TthHRKpUZ65i27W3s12ylN7P/8VZ7mZPzxNijYB46lln1GAXyIPe7ECP7jWud2t9guyf2e0vzqSsl5+HxVns5MZdlvyvl0NxePvbIDum7uV6uFw3q/kr9k481tb/bKE+FypJyDLsR0SqV02L1IDef1HonH8+sg8q5c45RKP8udIsGWz0aEd37p3KvUW3DZLbrt9oF+zVZx7GnzZ43mfUF8sdObYOMa5O3z72fDUqbZc+PnLyzXbeaByNiRN7vJm8zyhJwTb+yQQm4rJtsfpTgqGrPadv+NkqAZARcD4sD72Q3SXz9bqFpD4rulBRwSTfOWG8WKNvxpsXBz2hCu/ur4vT72eM5UtLh+PC6ycynbMhsFUx98Auz4VAeCg37u3ManDkFXGqFLtDwy9urjZAl99xTonu1mT6nYztdZ4ZDgJS3IXM4lvpd2PMw93h59pHY9nG6HiFy0yWE2SjnP+7NZj51Jfd+2dvR0oIXg62cOm1f4AeNKLR/kfIjK60siZygIl8+5K0nDseeygQwTmXV4RgK+fpz67zJKS+UNixLrh8jonV1t+jeIQcp+a4/T8BVIH/sctfltG0OwaB6LPmchc9v/Ds3v5yOe/O1GWUZUlzh8WApdJw+a01MXwH/fzMmzQdXKBsDcK+UF84idbQToQ0+rProneaQh8qND38o++32228H8B5wJbvMc69HWe/kLM6cBPCJ9XjgVnVdKemgstET2aEt69McA5J6ptvc3zOI+o4wkp2DBSfUqt3fBd/683iRLSn2bvm6juwd9/ekMQhjyCHblZ+CnrSGM6396hAe15HQr8G8kBLysBT58iD/9ehIjAOxZum8rgBiSEIvYYiXnLlr6pV750b7KWPS/OBm26YO7ENbgX51vaLag3p1WSn0BPRaex2S5StLlZSaSALjYdRJ9aCuQ4d+bi7nz5d/Rp2vr8mtBXOrfx54a2MYGAYwPIDklia0bwoidjQOTA6hDy1oKtDGlZPnXo/teWmnIzHugVdZnVs283Gj/dQYWg6bbWRm6JFtBso2h8v3GFqWAfE/2on4JQBYCs8nm9C06dPw/qa6sd1s7HHU/UEUlza+jO+//o/48amIQ2W+hEu/yn6bSqUAfBDLbpO3KYUHno8B+OHpnGCqtHRQ2Xi88NSabwnJH+ltqFRXGMnNQaBjX8GxfvfuUdsxCk4u1hOZex9vcyF8b/ZtsLFO+x3395jLt/Shbk0UKbjhqQeCA0qazXM6NkrS+cquhDwsplAeOF4PYD48POabjvKn9DfNyEFjM4LjfRia8wMoheiaOiSeyd6LogHapI6kuqwUHi88485lulBZqiR3Tb3t7efMp+S3Dwvln1HnkxO5tWBu9c+Npi0exI7GET+aRMtGt3G/+wcQ1xPQHX/YXAseeGuNH5A5Sk6j9EMBATPoYpuBsgVctz6AF/8ugvpLMQT+dx9CXTEMHR1CT+RJ9IyrG9vN/GTK+MeSpVj63jQGIs87VOY4vtoSxYm3Uzh7aBd2vTwLbGzBYw69Z4W58djn1wNvv4ANj3Zi6M0U9Nc6Ee5PlZgOKpvqJrQgjEC+yZ7DIdQdbsFgTy8GO5MI5JmMWlR/WJoQGkeoOYbgM+1w5/xyTWHosHXHU4i2ZSeoumuyfQH+TUHEmvNM9vR44RkPY5882f/ZmH2bciqWh0UVygMrALAfP95lBJ5NW4Dw1tyJ13Q1/OgdqEfYW6SXNofaKxHHgNrDpZbLrWGgc+/c/yxIdRNaamO2+pjqiiJerCxVUmMzgv2BOeaZrHD++TcFoXcEbO1ItCs15/rn3tgCTzKMcNLqzfKjeXMS4WdjCG6a852oEDMwtLVxZrtpptFdUw/0D2TWp7oCCGee83GEpLKR7Uljm4GyBVwAUNOON/7lGJ5qBOLPhrD9D7Zjz5+cxtJ1LYj8t8fyRsbu7RG01wPxJ3xY1fAkZhpbHHqWgnhqcwKPe+vw0B/2YXbjixjtDWKpulkJVnwuhtE/D2LFmRewfX0dfNuO4NKSpSWmg8rHjfZTg6i3Dc+ZD5rJKHyZwAhw7x5EJGn9UgL8T0eAUt9S3NwCbM12YSc7x8weMDfanwlKXdwBJOqzjYMH0hBFMzBo/Wpt7MVYZ9I+jGANOVa3YzQRQVI6Jp4pY09pdTsim+U3DAvkYUkK5QHMvxNmP37gnPEr1717FIP19mGcfG9o0Rw09iJtK0NmvicjGFT+VESWH3s7YbzJ5nLB5RoA1B6u2gi8R631dQjXD+b86YnSGENGkaQ53O5yoe4w4ClalsrHvTuCoO0NQz96c/KshLYho0j+NfYibQbCmWurcc+9/lU3oQU6sKUp8zz03Avo40E05+2Vl9KmvjlZIe7do0obFwAGpJGDxl4MWu2Qy4UAIojUWnt74LWVjRaMmT2NbDOAW4QQQl4wMTGBmppCf9thYcXbXAj0BzHIP9J4zS22skG0WC2qujIcgutZL8Ych7qIaKGUr4eLiIiIiBwx4CIiIiKqsEU/pEiLB8sGUWlYV4hIxR4uIiIiogpjwEVERERUYQy4iIiIiCqMARcRERFRhTHgIiIiIqowBlxEREREFcaAi4iIiKjCGHARERERVRgDLiIiIqIKY8BFREREVGFlCrhSiK5xwbUmipS6agHMHNuFtctdcLlcCA2ra2lxiCNk3Z/hUPnLSiWOOVeTUfhcIcTV5WVh1LGi5Xs4BFfF0kBERPNVpoBrHmbi2LN+FR75s6t8RM704fFtfUh+9Ckc++cf488+pW5Ai0G8LYBk5xh6G9U1VFaNvRjrTCLQxpCLKqyiPzCIbjzXLuD6lY4Tb87g0hV1xRz96hKmAXh+vwXr71qGpbeqG9A1NxlFuD+IyG63uoYqwL2xBZ7+AT4IiYgWkQoFXMbwkautD2cij2C5ywXXB1Zh+7d0Y/VwCC5vGDoAvaMOLpcP0UkAuIQzXdtRZw4PLvduR9+EecjJKHwuF3wdPQg3uIxhk5zjhBDHLM5+K4S1dxrHcLmWY+1XTuBSJm2zSB3dlV3/gVXoHDVXvTuEXevvNJffqexH85U61gd9czP86gpTvM28n+b3VJfPvHfycqchNWOZr0vqJR0OZffNGWI0y2XOsQ3288rnMs/dZZTB7HHtxwsdkw7myBx6z+xjlXtzbZcPrra4mR/Gx3ZtFqeehckofNbxqpvQUhvDQLHhR1p05HufKWcO99sqK+ZeCLl8iE7K5VEuW1bdsZc/p7pUuGxGzW18iL5itb0xBFwuKS1ElJdQ6LquLirBlOherQltdbeYEkIIMSJaNU1o2t3i0f2vi6lzI+LJdZrQtA3i4LQQ4vJFMX1mn2jQNNHw9dNievqiuPy+EOf3Pyg0baXY9u3zYjr1uti3ThPayifF6feFEBe6RYOmCU17UDx/7rJxWqfjiClxYMdOcfBHU2J6+rw4uHWl0DRNtB43U/rSg0LTNHHffz0gXj83JRLf3ime/zshxMUR0bpSE9q6feL11LQ4/+1tYqWmiQ2vTEvXeXObX9kQYmSHJhr2GyVDCCHE8dZMWRnZIZcbIab2N+R+3zGS828hrDLRKkaEeUxNs60f2SF/N8qknA77uaZE94586VDLt8gczypXmW2s9OQw18vpP95q235qf4OtrBrrG0T3hez+xjr539K+yrXb8pwW1LzqilQvhBBi6viI8W+5nFvrbPfbam+lbWxlyyqbVlmyjmkvW8XLprS/cE4XEeVX2YDrkwdEJlwZMh6ImYeEGUBlHwojYqemiaovvW7tIcQPnxRVmiZ2xrPbV+05nV0vnI6jsK0/LZ6s0oT2+wfFRWUzIxB7WBx4x1oyLQ5+RhPaOvkhe3ObX9kwHv5ycGA9WEaU4MopkDDKktWoj4hWqdG3PXSUh5UQDgGZul45no3tYeKQLqfjFXoAOa6zH1cNmgoGWbbz56Yv91i0kOZVV5QgJ8Oh7OQGXGo5LlB2TJmg3OH46j6O5clxPyLKp0JDiqaPfBgrrH8Xm1s1qeM0gNmXN2a7tT/dg1kAl6V5Xu6VmSPmMYvU0U6ENviw6qN3ZoYcAQBvn8apWcCzbj2W2XeCfjYJ4Az2fNTqUl+FXScBvKdsSOUxHkagox6Dp9qRndmlIzEOxJrloY0AYkhCnwQAP5o36+g7lgKQwtBhIPJ0voFKANUe1Jv/TE0kgXqPdC4A8MBbqyNhFRB5OFIuNw6cj1eAnoBe64XHttANTz2QnHAYNiymsRnB8T4MTQKYHEIfItjLFxKub429SA/AGKJThvTmzihbhXjuNUtjucsmETmqbMA1F9UerAaw7PFBvPXWW7bPn35C3Ti/2djjqPuDKC5tfBnff/0f8eNTkWxDcpcHXgD6mTOYte8Gz/31ANbjxYT93G/9zY7SH6qUV07DXRvBYGcSAdvcFA+8tR5EEmmk0/JnFO3Vxhb+TUHoh4eQmhxCH1rQZC53NKkjaf7TXVMPJHWHPxvhgddjBlvPejFmnTMhlRsHjsfTE/mDNI8XnnHn9fU18ylh2eAzdawP2NKUU04zD1S6fjT2muWvBX3eqwm6UtCtwp+Hfs4sjWUvm0Tk5NoFXLcCSwCkfjiCsyeHEH97HZq2L8Oll59E52vTmAUw+68j6I6M4OJSdef8Zn4yZfxjyVIsfW8aA5HnpYbEj5YvLAOOhfDQEz04MZ7C2UO78ML/Bbgbm1GPE+j8Ug/O/hwALuJs/5Po+9EcTk6OPPd6so27vHz3qPEnDDJBlxtNW4DwVnWyu6RxLyLoQ2BrGPXPyL1jRq/ZPnmi+9Yw0LnXmKzf2IzgeBgBaRJ6qiuAsBm0qT1WqWN9jg+gDI8XHvV8z8bs28jMiey2P9cwHEKgP4jmefZM+Z+OAIcDCHTUK2+ApjB0WOfD8jqT6gplAyypd9b4t/QSxGQUgQ61dOoIP5ctW0bZtvd6xp6V6pVZ9iK73RUpm0SU69oFXHe1ILLTg9nhPXjo97oxhaXwd/8jDn1uGV594iHUrVqFuk+/gOSH7skOS5bAvT2C9nog/oQPqxqexExji62n4oH//s8Y/PJ6zPbvwcY1dXjoKwngtwBUt+Nv/i6C9akoAmtWYdUqH0LfXYIPf0Tameal0J8pcO8exeBm402n0LD5vT6MusyQovoGlBGU6eMOD4PaCLxHrf3qEK4fxGgmEPGjNz2I+o66zHHrDrdgzBzSdO+OINgfyKwLnKsv2MOF6naMJiJIZoY/A8AzhXrF3Gg/NYZIMnsOVzMwmO7N+/ZmUdVNaIHu8AaojoRT/tCi5q4Bwl6pPA1YPbt+9A4Es0PtW4FIp1rSPIjcO5At2znD9UBwizVc6YKrOYlIwip78yyb1e2ImHWXbykSFXeLEELICyYmJlBTUyMvIgKusmzE21wI3zsmBUDzl+ryoe5cBOmego+Dm0AK0TV1SDyTtv1BWebPtXc1dWXu4gi5wvAmskPvds7lhIgW1rXr4aKbir/H6F0q+l/TFDMZRaCjyGT5m4TTsBGGQ0bvBoMtIqJFhQEXLRA/etNX8wvb/MOM3jDqM0MtNynzjwA7DRsZk66LDAUREdGC45AilYxlg6g0rCtEpGIPFxEREVGFMeAiIiIiqjAGXEREREQVxoCLiIiIqMIYcBERERFVGAMuIiIiogpjwEVERERUYY5/h4uIiIiIyscx4OIf7CMnLBtEpWFdISIVhxSJiIiIKowBFxEREVGFMeAiIiIiqjAGXEREREQVxoCLiIiIqMIYcBERERFVGAMuIiIiogpjwEVERERUYQy4iIiIiCqMARcRERFRhZUp4EohusYFlyv7We7diPCxGXXDq3Mpjl0NPoRi+Y97aXgXfA0hxN5V15TLLFJHd2HtquXStXbijLoZ2aS6fLby4etKqZvcsFJdPrja4urirMkofC4fopPqipuHvXxIeTEcspUb+RMatvLOvvz6LltxhGzXE0KBknPDibcVvn/xNlfhulROwyG41kSRPzWLjfEcDg2ryyuDdXbuyhRwmVYE8eLBQzh08EU8dusJRLc1YM8/qBuV7uyBjfDduSvb4PxcR2JCh/6TWWsL9Gzw4c4nshXw4mQC+oSO6fcyi8pq5ltB1P1BH2bq29FrXuuOFbO4qG64CM28tgdrVz2y4A/2eJsLdeciSKfT5mcMLdDVzRaVokFSOVW3YzQ9ivZqdcX1odhDsrg49snlY6AeYa8ZaDT2ZpaPdXqAzYOZ772N1v5BDFr7JiJAR2DBy3hZTEbhc4XhTVj1JI30gBf6Ir+Wq7//pfP3pJHu8auLb06TUfiuWUDOOjsf5Q24ftOLT29qQtOmNrx0ohd+XELfd+ff9zPzTyegX7qcXVDdjjfSabyx021tgdMndVyy4i8A7p1vIJ1+o2IPr7M/PAGseAqDf92BoHmtkZEIrocmYHb8BJIzl9TFFZaCngSCm+QccqN99/WQY7Qw/OiVH6KNexGpjWFgPr/Uq5vQUqsjsbjjeWd6AnptC5rktquxvWJtGdH8sc7OR3kDLtmSJViW+TKD+Fc2om652YX4gVXY/i0rd80u9NYX0PfoKrNr0ugaDfQDQAwBl9mNbHZF+rpS5r8DiAFAfyDTXWl0c0rdm5fOoKdtLe78gHnuO9dilzTUaW3/wv8VQ+ijxjbL14ZxIk9ccvuypcBMD7qPOWwgp8+kpifeZgwTDI33YHvmfLswZA2BWsf4kzOIf2Utllv51XUG2TNewpkDIay908rPO7H2iSHMXLGfM3wgDN8HjLyLt7lQ16ED0BH2uhawq9wNTz0QO+r8Oyy3J0npFre69eVualva4wi5fIhOykMx6vCcOuRtX2+kIWpu40P7VjOvpHKFzL1zSoPC1qUewpBtpZneLnObtrh0Dc69BfZl9iGn3LKWPa9jjjv8Krbfg1Ly05Ktp3pHXeFhhTn1FupIjHvg9ajLSzC8D2FEsDfzS/o64vHCM96HIce8VssBbOUG0n20lQMp34utB4rdN7XsHspz//OXUZUtLWui9n5vs+5HzXqXad/b4rntBJC7zHYt9jJccl2WKXmTvS7zvF3mUFnmePZ2JzRsv1/qelteO1y7zXAILm8Yuvx8zMhfd+1thHxcK+/y71vYTVpn50oodF1XF5VgSnSv1oS2ultMCSHE5Wnx+tcfFJpWJZ48IYQQI+Krv79PjJybFtOp18W+dZrQtAbRfcFY16ppQtNWitahi5kjXv7ZtDjSoglN2yaOTE+L6YuXhbjQLRo0TTTsnxLi/cvi4vQRsU3ThNZyRExPT4uLl4WY2t+QPfb750X3Ok1oKzeIfd9NiKlzI2Jf00qhaSvFzvhlI+X7G4SmaUL7+E7x6rkpkfjLbWKlpomqPaczabG5+Lr46sc1c59WceCH2TTb0meypUcIMbJDE5pWJVY2PSle/dF5kfjuk+JBTco78xhVVfeJbftfF+fPvS66t64UmlYlWo8baT6//0GhaSvFhm+8KhKp82LkGxvESk0TK//riLgsX9O658V5Yxdx+eK0OP11Iy37zkyL6Z+ZK+ZgfmVDZMuHponW48qa/Q1C2zEiLxHdq6Xtjrca1yJtM7JD/m6Vn1aR2eJ4q/TdPLd8Dtv63HuUWabuY90jIcTU8ZHMv22UY1v3Mye9tmseEa3W+ZXzGPtbxzP2zeahtJ9tOyHE8ZHsv2XqdjnXWiw/c43ssJd5Y3s5P417YNumgKn9DfY8kJfb8k3K38zHfh+vlXnXFau8O1x/Tj7L91+q99lt7PlebH3x++ZUdnPTZf8+JUaOq1diyLnP5rXb02NvM+QykFMe5Lqjlll1Xal1WdpuZEe+OqE8/6Rlar5k81dd79zuqe2lTU5dttrZ7LKRHXK6pkT3Dum6bflfbN/Ccu6lvPw6qbMLobwBly0TNfHwN04LKRzJshUmsxJ/5qCYVjYzCmjuw6tQA2B7eMZ3Ck3TxLYjUnDx/uviySpNaI8dkYITKzAUQojz4vmPFylo718UiW/vFA9WGdd5357XjevMSV/uw9y4pofFgXcym4jE1+8Wmvag6E5JAdeXXs9u8O9HxKOaJrT/OiKEGBE7NU1oW430W17/UpXQtEfFkX+XrumH0gYOaZmr+ZUNWe7DPLdCOjQ86r3ICULUa5KOkdMoKesd0+CwTG3A81AfPiLnWE7plZc5PEStfR3yYmp/g3G+C92iIee4Dhzyo3j6lHuiUK9Z/S6Ec9qdGGXUOZ9z7olwuh41KL02rrauGPlQLF8LlBWLlO/F1uceX71vTmUjdz/7D6J8nMuU7VgOZcZ2Dcq9l/dV02Scz0x7iXXZ6fxZcl44XEtOuRT2fZzWH28tWNdz5Byj1HSYbOvmuK/kRqmzC6G8Q4rWpPnvjeLH/5bG98MPGMOKVy7hzIEwAutXYdWq5XA1x9Q9gf/tg1ihLrtKqYkEAA9Wf3xpduGtH4a7GkBqGtmBRTfcK61/L8XSWzMrnN26DPdvfwlv/OuP8f3dHqQOBNE5p5cD3Pjwh7Lfbr/9dgDvAeaQIAC43R/OfrltmZmPAN7WkQDgeeABSFeFD7vdAFKYzlyUG+5yZ+hV86M3ncZYZxKBUrvxnVR7UK8uszGGMQFrXowX9p5uY31yYg4paOxFegBG933ernZjvlp9jTXHcD782NsJ9B1LAUhh6DAQedqYK5GaSALjYdRJQwJ1HTr0c7ox8T7Rgj6vOlRQDlJ+FpUnDzxeeMYTBV6VMIY0jJcreq9iTqQfvQPBvEPY1wv37lGk04Oo76i7unvpUcu+IrN+vvctl78njUEYw/H5h+uuYgjKUt2OyGZr3lAcA/1BRHYb7aCetIY5rbpSh/C4OU+opLrswPZ2nTmdJR/HdkeiJ7LDgdanOQYk9Tz5VSbysKg3PKf7mot1dq7KG3BZk+bXebDstuxi/Ztr8chTcXz4a9/DG2+8hZ98JyjvVTHuGi8AHaf/SZpVf2UKqUkA9R5czWMRMAKvB/7zY/BgFqd+lAJuBZYAuHgx+87irBREZV3CpV9lv02lUgA+aMsz+Rh4dwopAEuX3Q7c5YEXgH7mDKSrMo9RD89d0sJFyr2xZc6NuM2kjqS6zMZocIHCD4ych0sx1ts3iRb0eZ0aaudATj/ndPb83BtbgMNDSE0OoQ/ZSdTumnrbGz+ZjzV5tbodo+k00ulBoLmcQZeUn0U55wEAIO8DKIXomjokninPG2ipiZITu8j50bw5T16WSncu+xmZ9fO5b/n5e8y31Lb0oc4x6PLAmzNRei7lzODfZD6ohwcQ29xsPvSNawkOKPVEfkuuaF1WTEbh8yYQyRxrEEWfYmq7I7dbHi88tRGMqXX5VPvVP5fyGQ7B9aw3e85EZM73NYt1dj7KG3DlkXrXqG5LliwFfn4aX3ux4G+DrFsBIIn4a2cxNOz8tuNvAEAyjvibQ4iPKis/0YK2ZcDQHwXRefQsUuMnEP2D7eiZXYa2z8+nkKTQs20jdnXFMHR0CENHe7DrsU7oqEdzoxu4azXWLAVmXv4aoidT0F/bg9CzTs1dHF9tieLE2ymcPbQLu16eBTa24DGpR2qm63HsOqpjZjyOzj/sxBm40f75BwD40fKFZcCxP0IwMoSzb+s40bUd21+exbIvfAH+Qr1zty4BkMKJ187ixLG4QyNYCSlE2+wNbupYX+bXn7umHugfyEziTnUFEB6XNgaA8TD2yZM7t4aBzr3SLyod4efkycGB7CTM6ia01MYQUCakBvqDaJ7DJM1UVyjbKBfoYfPc64HesS87KX0yinC/fZuiqpvQgj7se64P2NKUbYAbmxHsDzgHUsMhabkH3lr76oxqD+ohvU00GUWgQy2jBfKzBP5NQei217zNeyZfi6ysk2bj2NehK2/FXids9xBmr032h4HnXg/0w0OZuhRvc+hl6Q9L+R5HqDmG4DPSQ7zA+jnfN0f2+u6uyVdTzJdpnpXahuF9uXW/mMZmBPsHEDoas91z/6YgYs3OL46UWpdt1B6r4YHcvJc1NiOIGMLSCwPx56QepeomtCCMQIEXCsotNZG0dTSkjvUVDsYLYZ2dH3WMcX5zD5wmDUr0g2LbPebcrntaxZG/cJjDpY7zmvs9erexX9We1x3nSJ1/5VFxt6YZc5b+zmGe0s9Oi+6t94kqc15Z1f3bRLc00T1n+4LXMi1GvvSguHtldp7aynWt4sCZ7PEunvhqZm5XlX+fOPg1pzlcreLAkVZx9x3GdndvPZCZ3J65xq8dFPv8VcZ5qh4UX41Ls+HevyhO798m7jPPo1XdJ7btPy0uvm+szr0mkzzh33/A4foKm1/ZsK5Z+ih5K69v2D/iOIerWz6GrayY8yL2m5ONlTliBnWOYaE5TBZrvpmZFnPeofUpNN/Amn9jXetI0TlSucvyzoswy0c2LfKcEDkfC9xd+Vrypa9gfioy55auQcmvktMjf5R74nifcvKjyLkWyLzqisO12MuZvRy3Hneaw9Vt2yZnPmmB9ULk3otCc8YylPtvr++Fy45t2x0jc5vDZRrJM7nbVg81aZtS67Lt/EobsqO18BwukXs/1fsltzE5aXG4dieZ/Nsx4pwO23wp+/kadrTOfw7XDVhnF8ItQgghB2ATExOoqamRF1EZxdtcCPQHMZhvzHsyCp83DHSOYXR36b8rF8I1KRtWN3jervY4Qq4wvInr9w+HLi7Mz3K4FnUl1eUz5tPkGeIptp4qLDMsmaftpxveggwpEhER3byM4Vk9M8+MbkYMuIiIiMpK/WPLdQjXD7J38SbHIUUqGcsGUWlYV4hIxR4uIiIiogpjwEVERERUYQy4iIiIiCqMARcRERFRhTHgIiIiIqowBlxEREREFcaAi4iIiKjCHP8OFxERERGVj2PAxT/YR05YNohKw7pCRCoOKRIRERFVGAMuIiIiogpjwEVERERUYQy4iIiIiCqMARcRERFRhTHgIiIiIqowBlxEREREFcaAi4iIiKjCGHARERERVRgDLiIiIqIKK2/ANZvC0Fc2wnenCy6X8bmzoRNn1O0Wqys6op9dhbXfPGt8n4zC53LB15VSt8zQ/2wjVq1/AWev5G5/aXgXfA0hxN5V97qJDIfgcoUQVxbH21xwtSlLJ6PwOWxbmjhCLh+ik+ry8kt1+eBaE0X+UlHutBQ7XrH1c5Pq8uXemzKLtxWuVzevOEJm22l85lsfCAtUlrPKWw+dLOz1XAul5WG8Ta4jrjzt8eKrS+ULuC7FsauuDtv/7ATwO0/hxYOHcOhPn4L/N2dxUd12kZh5bQ/Wrnoke3PfS0H/0QxSqRnMKts6m0XqXAIzkynMvKeuAy5OJqBP6Ji21s3EsWf9KjzyZ7lF44bV2IwgktBtFSiOgX4A/QP2CqAnoNd64ZGXLULu3aNIn2qH2/x+4zeCtCAmo/C5wvAm0kinzc+AV6k7iw+DZ1o4KUTXuBBIRjBm1ZF0GmNb+lAnB2qLtC6VKeC6hFhbAH0z9eg49ROMDnSgbVMTmh7vQO9IBH5180VidvwEkjOXsgtu8+OlH6fx4z/3Y6m8YV5L4f/zHyP945fgv01dB7h3voF0+g20V5sLfqXjxJszuHRF2fCG5oG3VkffMalBHh5ArNYDjxKIxY/G4NnSlAlkiG4qegJ6bQuarPYCABrbs+0H0U0u1RVAGBGMST94Yf4IHusEws+ZP3wXaV0qT8A12YfnhwH3l3vxVG2BUOXdIYQ31GG52cW33Lsd0VEr4DG7/9r6cOIra41tPuBD+OQlXDoZxtrlxj6rtvVBNwOWVJcPLpcPL/xDHOG1y41uw4/Kx5xB/CsbUWfu6/rAKmz/lm6crc2Fug4dgI6w1+qStNKg9FZcmUE8k6ZV2N51BplUt+XvqrTSF500h9a8YegA9I46uFw+/OmfbYfLtRx7Tko7ndyD5eqy65obTVs80M8Z+Q4AqYkkPFsGEdksB2JxDPR70LLRqkaFuoONXzmhLmMI17E7eTgEl8uF0LDx1dYF7bR9znCmcX5r/8w5h81jm8fIlKP+gO18AADdTF9O+h2Y6c181DJoY6TF2tbXlc3bzBZdvjx5Z3bZd5nnK3AeOc/sPRjKvZHz08ybqLmvlR+29KyJIpPiueS7ehzbdvmuy57WRd0T4/HCM96HoTy/wnN7kuzDL1ZPqy2PpPtbbD1QrByqeXzI6G3oz7ZpRlpKy3MrPdlyZpQDOX3qvur9V9fb0x/CkH1tgbQ5tSlW2ZP3KT7clb/e2+ttSfUy7/XY6wWs+upwvwH1OMWuO7s8s49aTmR5j+10j9V7Vrwty0ph6LCO4DP2YMvi3tgCjzVqUqQuXTNCoeu6uqi4461C0zTRelxdIbk4IlpXakK7f6c4cOK8mPrRQbHzfk1o2oOi+4IQQoyIVk0Tmna32PaXCXH+RwfEtpWa0KpWirs/+aQYOXdevLrjPqFpmth25LIQQoip/Q1C06pE1f3bRPeJ8+L8iW5zn1Yx8u/GMb/6+/vEyLlpMZ16XexbpwlNaxDdF4S4fHFanP56g9C0BrHvzLSY/tnlbBp2jBhpvtAtGjRNVK1sEI9+Y0ScTyXEga0rhaZVidbjRhpGdmhC01rFiLR9w/4pKX3G+cTli2L6zD5j/ddPi+npi+LyxSNim6aJqi+9bmaSebx794nzmSWLx7zKhrDyxcwjMSW6V5t5crxVyWtrG+M+WPkorLxc3S3MnBXdqzXpu7WPdFzr38L8Lm07dXxE2s9iHDNThs0ynUmfGBGtVvrU4+1vkLaztpXTZ6bXto1ETa+5ffb6pWvLWWeVwez+9rxS06eUcQdGuVXzwp6f2bpuHE/NN7ktUNNjbWNcwxzyXUyJ7h3KdWWO63RdStps+VhZ864r1vXbyrZhZIf9vqvXY9237Db2slJsfc59Vtc75nFuuuzfp8TIcfVKDGo5M8qxmh7r3lvbZ7/n3F9le6s9Vsu+c3lwalPMZdIxR3ao28iK1PsL3aI1X9475W2R63Gs10pas3krHcd23PzXrZaTfM/3/MfOvcf2MqaeJ7ctsytWf5X1BerStbJgAdfUSw8KTbtP7DsnLXzngHhY08TdX09kC8wnD4hpc3Xi63cLTbtb7PuRuSDVLR7MCWiqxJMnMkcUl488KjRNEzvj2WUZSjptAZEQuYXeCrikgEj8+xHxqKYJ7b8a25QccDmsF0KI179UJbSqJ8Xr7wsh3jfO//BfWDmwuMyrbAhhr7ByYCX929Z4HLcHNIbcxtFe3sz1x7tFg1op1YYrj6n9DbZ717q/WzRY6TguBYdK+uwNn8it+CJ3H5n6wBJC3V46ni0wtZSSN9Y+DmlT5F6P0zGzbOnPuU7nfeV9Ss53VU6QXjzP5XNV0vzriiE3OHIqJ/Zrzr1v9jwotj73+GoeOuSxw34jO3KDMic56cmpp8XKtf0YajrU9YXLg9PxHZY51j+LQ/44nNNiv/7cfYtezwWpnlzoFg07urM/Zm11XlUkX52usVA9tClWJvM8CzJy8yGr0DqRd71TXbpWyjOk+MEPYwWA1Nsz6poM/VwSwANYXSst/NCH4QYw866030eMYwHA7bffDuB23L7MXHCXx2FCtRvuldlvS/9XY+PLVwBcuYQzB8IIrF+FVauWw9Ucy244B273h7NfbluGZQBQpnlY6x9vh3u2D8d+COC1AcTwAB7bYOXAjcINTz2QnEgZY+ubm415fdVNaKmNYWAY0M/pCG4yZvulJpJAvUfpNjbmgiUK9ThDR7g5jPqBUftYfWMv0gNAwOUqOCTgrqmHfngIKaQwdLgezbub0AKjWzp+NJZJX3mloCeB+hqlk9zjhWc8kR16sxR9sUBHYhyINctDFwHEcl5cuBr2YYBAv7pepiMx7oE3f4Lnlu/y8IU5RJ9PaiIJjIdRJw131HXotuHtxcq9exTp9CDqO+rsw9Rz5SlUVuT1cyyHBfh70hiEMcTuOHyfj8cLT96y7VyO3DX1QFJHKl/6JYuhPMhDa8aUlnyKXw+qPag3h81Sx/pQv6kdTVtgTNMYHkDMameRfYM+2x4UoCegI2a2l+anOWbms4O5HFtWtC1TFXkGTOpIoh4eZZ5W2epSGZQn4PrYY2i5CzjT8VUM/VxdafDcWw/gDE6PSwvfnUIKgOfe0rM810VclOa9z7ydArAUd9wO6N9ci0eeiuPDX/se3njjLfzkO0F5x5JdvCi9Z2mmeemy2+VN5q+2De2+WfQdiyN2KAZs/AJaPqRudP3zbwpCPzyEqO0BagViUQz0ZxvTbCOqym1w7TyIDESQbFbmUsEMutJppBMt6PPmCboamxEc78PQ8BD66pvhh9tswOLQk8XOPV9SMKpyaoycHoCTOpLZDeCt9SAiv52TTiOdVoLQeUshuqYOiWeyxx7crG4jc2okjYdJRqn5PhyC61lv9u2kRCQ3fyTumnpg86CSD2mkeyoROFeCH82b85SNUulFgqXM+jmWwyL8PdLbY3MJuvJyKkemeg/cedIvB1PXujzE21wI3zuWOe9YZ6FcLX49RvnQ0XcsbvxQaTTmMeHwEOITyexzdTIKnzeBSOaaB1HwSejxwlNrfwswnU7b3szOmOuxZUXbMpUxHzh21Hk+WepYX/bHfI4y1KUyKE/ABQ+e+st2uGdj2P6/r8IjT0QROzqEoZc7EVi7B3EA7t9rw3qk8MLWXeg5qSP15hD2bN2DM1iP9kDObZyDGbywYxeGxmegv9aJx79xBrirHTv+I5B618jcJUuWAj8/ja+9qMTety4BkMKJ187ixLF43kZhputx7Dp0FqnxOMIte3AGbrR//gF1s+JuBZYASP1wBGdPDiH+NgCswGf/83rMHgzhj44tRdsXgiW+IXmdaWxGcDyMsBRYIROI9SEpv1FibhuwTb4MIAzlrRMnnnaMJuxBV6orlA2wqj2ol7e3MRuwZ/tQbwaFRgMWRl8p554n/6Yg9I6AFASmEN0aBpze2Kz2oB4xhKW8iT8n9/QYwUp4azkeck7UngbzT3zkZTw4Ys/KE+v3ISz/8Cox39Wez9SxvsLBRGMzgv2B3OB7sRoOKWk18tbq5fDc6zF7As21bQ69Cf1hqRzFEWqO2ScZF1g/p3KYVwrRtuy9dtfkr21zYz5sm5WJ5s3ZH3Ceez3QO/Zl109GEZbL5jUtD2qPlTEBvJCi15NpP8PmDxVz1AB9CB9G9gUktSdpeCC33Miqm9ACe/ub11yPLSvaluVy7x5EJBnImcSf6vKhrqMeg1bwXKQuXStlCriApf8xgtHEIbSvW4rkt8II/cF2bP/jHqRurzGGCD/UgljiEFqWvYo9G3yoW78dA2jBoUTsKnt0PGj/4gp0/6dV8D36Ak672zF4ogMeAP4vvoSmD+mIbqjDqkcHsHqrPfZ2b4+gvWYW8acewsaXpmzrZJ5wBzzf/hTq1gQQHatHy3e+jw55aLRUd7UgstOD2eE9eOj3umGdcUWwBU2zl3BpaQs2/o6yzw3DA28tgJxXdZsRHNeVRt2PXrMLONP9frgl51XgvKrbMToQNIbV2uJw18B4E9Xs8oY65CjxbwpCHzd+LQJWt72aPjv37giCTm8plqqxF+mBeimNdejbMobR3U5nzM2bgU32X5Xu3aMYrLcPnagN1Pz5sbdTzs8BoGAPlznEJKfnaHNOr1gp+S7ns8vlQuBcfZGeFz96zeA7kw8FhpSvOY9XSWsAGEij18wT9+5BRJDNR/W+AwA2twBbs/snO8cy+xddP6dymOV/OgJk3lJ0wyOl0dUMDJZab4swXv1PSkNdav4o67cCEVsv0rUsD260P2O2SWbaE/WFS2/x68m2n9YPFeMHjg5d/oHYuNdWblxHkVtubNxoP2VvY1z52rY5H1tWvC3L5Ub7KWnI2vzUHW7BWLo327tVpC5dK7cIIYS8YGJiAjU1NfKiRcuIaoFIIv8D9LpwKYbAnSHoXx7FWLhwJbyWrqeyQXQtXYu6kuryoe5cJO8QWbH1RFRZZevhonm4MotL43F0tvwR4liPpz63eIMtIiIimj8GXNfSaztx55oAXphYj8jfHbrKoVUiIiJarK7rIUVaWCwbRKVhXSEiFXu4iIiIiCqMARcRERFRhTHgIiIiIqowBlxEREREFcaAi4iIiKjCGHARERERVRgDLiIiIqIKY8BFREREVGEMuIiIiIgqjAEXERERUYUx4KLrTrzNBV9XSl1sE29zweWSPmuiyN0jjpC8jSuEuLoJ0YJKIbrGKI/FyjgRXV8YcNENxnhgBZIRjKXTSJufsS19qHP5EJ00N5uMwucKw5vIbpMe8EK31hNdA6muAML1g0in0xjd7VZXz0EcIbm8E9E1x4CLbiiprgDCiGDsVDvkx5V79yjGOoHwc2Yflp6AXtuCpmppo8Z2tMvfiRaYfk6H516PupiIbgAMuGgBKEN30vBeqssHV1vcNgSoDqWkuny2fXXbWlkKQ4d1BJ+xB1sW98YWePoHjGFDjxee8T4MsQeAFgWzZ7Yf0Dvq4JJ6p2zl3zbsnR1+tK2bjMLnCiAGHWFvtr7lDsXbe8GMuhg1j1nK+e31Wq23RGTHgIsqb3gAGLCG7gYRHA9j37C0vj+AgU3WsF4QekfA1tjXHW7JDg8+k0C4X9rXRkdi3ANvvg6Cag/qkTSGDavbMTpQb3sgEV07brSfSmNwM+DpHEM6PYr26tzyP9aZRKDNDHkmh5DYMmbWqzFEamMId6WMsp0eRBAeRBJppJXe3oL6+4C/Spd0/nhbAMlO6fw16sGISMaAiyqvsRe9jdYXP5o3A8kJKcTZPJhd37gXkVodCR3OPVaNvRjcnNnz6jT2SvO7+AudFpvc8u/eHUHQ6qWtbkdvZp6XG01bPNDP5e//LcnmiDSsXuT85hCouQb+xpLDOqKbEgMuWgD2oY9A3h4qVZEeqxweeDPBmoNJHUnUw6PM03LvHkU6PYj6jjqE5J43omtKR2IciDXLw4YBxKxeWuVt3LqOfAV/vgqf39+TxiACxnL2EhMVxYCLKiyF6Jo6JJ7Jvg1Yeg+VUwCVgp6Uv8uMX/mxo85/3CF1rA/65mb41RWAc88b0TXlgbfWHBaU3ri1hvvibS6E77WG9NIY6yz5l0mJCp8fMIKuTC8xgy6ighhwUYWpvVRxDJTcw+WGpx6IPSs15MP7EB63byVz7x5EJBmAy5rnYkp1+VDXUY/BHjPcGg4pvVlGuuprOCxCi4UbTVuA8FanQMb44ZEtr8bwXyGeez3QDw9ljhVvCyCmbGNX+PzRtuxyd029sp6IVAy4qML82NsJY3K6ywWXawAouYfLHLaoD6POGtI42lykh8ycfGwNdVjDLYdbMJbuzfZuebxIKkMlGEhLc82Irj337lF7+Xe5zB8TbrQ/E5SG+wJI1Ms9XFK9M3ue3LsHEUH2WAObBhGU9nBS6Pwe6ViuZmBwLpPziW5CtwghhLxgYmICNTV83YRysWwQlYZ1hYhU7OEiIiIiqjAGXEREREQVxoCLiIiIqMIYcBERERFVGAMuIiIiogpjwEVERERUYQy4iIiIiCqMARcRERFRhTHgIiIiIqowBlxEREREFeb4X/sQERERUfk4Blz8P8DICcsGUWlYV4hIxSFFIiIiogpjwEVERERUYQy4iIiIiCqMARcRERFRhTHgIiIiIqowBlxEREREFcaAi4iIiKjCGHARERERVRgDLiIiIqIKY8BFREREVGFlCrhSiK5xweWyf3xdKeCKjuhnV2HtN8+qO9FNJNXlyy0b11C8LX8a4m0uuNri6uLSTEbhU+qB47EctgsNK9sMh5yXZ8QRynf8cnFIp2tNFEbOOdV7H6KTedZl9stzXKfrcNguJz/MbfLdz0xa5PMvWuY9zXxCcMiVBRRHKHNPVUZac+7HXJhl3OUKIT4cusp7ZNznq0rPTUfJs6u+B07KUE5uEGUKuEwrgnjx4CEcMj8vNq4A3ktB/9EMUqkZzKrb000h3uZC3bkI0um0+RlDC3Rj5WQUvmv+ULHz96SR7vGri+cgiMHMtQ4i2B+wBwPDIbi8YdQPWNsY26HZIeio9SD5rHMDmOoKI6YurAj5etJIn2qHW15ru45RtFc7rxusD6PO1piXN5/Qsc+5HA3vQ3hcXbgITUbhc4XhTUjXO+CFbgY7hX4kXBt+9KbT6G1Ul5cqjlBzEpFEGul0L66mxtFidrXl5MZR3oDrN7349KYmNJmf9TVLgdv8eOnHafz4z/1Yqm5PN4EU9CQQ3CQ3p260775Zmlc/9nZ6oJ8zA0zEEWqOITigNkB+9KYHEewP5/YmjPdhSF2GOPZ1AMHNHnXFouXvGURwPGGF2oqrzKdxALUxDOT8ik4h+mwMwc1BdcXioyeg17agSQpY0dhuC2BvKJM6kqiH50a9PiJFeQMuR8qwh9X939GDcIPZlWwt+5Mh9G1bZXQxrwqgb2IW+re2Y9UHXHC5lmPtV07gEoDZWAAu1yp0vmmeYqYPG21DEilE11vfZxD/ykbULTe76D+wCtu/lW3y421GGl74VgCrMsMSl3Cma3tmn+Xe7eibyOxCc+KGpx6IHXXoezB7MHTEEFDvn204Sh7SMLvAu8yhpnzDW0oPiG1Ic000z0PfkOrySfubQyrD8tDWVfTIDQ8gVhvBXsdfe340b9bRd0zuxWhBpBMIP6eccXgAsc0R7L3XvjhXoSGqfHlZIZM6kuqyfOacT/WIPBNETO0NnBxCHyLYu0leuEh5vPA4BtfGfQr0A3pHnb0+ZIbknMq9WXa7zG2sdbZ91OFCez3ydRWsKbbhKKveGG2qtX+eEpW37ivbSNcmH8s+RUGtj3KZV69Pllu3jXPI+xc6tpwmKy+k9W1xJT9z01JoqoWRn1Fzfx+irzgM9w2HHNLooEBeFpa//VB7XFNdPnv6MsOTzsOWcfna1fsvp9faVt3meiQUuq6ri0owJbpXa0LT7J/W40IIMSJaNU1oO0aMTS90iwZNE5r2oHj+3GX7sjseFk/Gz4vz8SfFg5omtJUrRcPWAyJx7nXx/GeqhKbdJ/adE0JMHxQbNE007J8SQghx+cijxjmrnhSnhRDi34+IRzVNPHrkshBiRHz19/eJkXPTYjr1uti3ThOa1iC6LxinHtlhpHXljlfFxfeNZef3Pyg0baXY9u3z2X1WPilOm+tvVvMrG8JWPowyIbnQLRq0VmGWjuy2VnkRQojjrULLbGOuX90tjLufXWaVB+u7da6p/Q327Y+3Ck0qP6qp/Q3S+c3ym9nfIX0y9XoudIsGqbzZj53Ltv54q3neEdEqHUO+vsLHM9IuX6c9L5zyUpGpr9mPms+2eq8cW77fIzvUdqBM+ZQ5lvM5G/ZPSXm5MOZdV8yy6ZTWzLVYjrfa2rLceqC0vZl9pHy35Yu6v9U+yueQOdQzuY7npE+hlgHlHo3sUNZZ2+bsN2JvG6R1Izuc89Kg1O1MWbe3NWp+ZsuXXC/Vc5vHVp810r0w8ktu++zHN9bL+ae2Aw5lIo+8eanWGds9KNJ+OJQdOb1T+xvMfR3OIR/XzHf7erVtKNDmXkfKG3Dd3SoOfPdV8ar5Sbwjciu9mXlVe05nd7eWfel1c8FlceQxTWjao+LIv5uL4julyjwtDnxSE9pjR8Rls9A9/PV9YoN1s+M7haZtEAens6fIMG+2dXONBkXedkTstKVFCPHDJ0WVpomd8eyim9H8yobMaoTUylTguxBKhc19qDruc7zVLHMO2xdpqHIDLuWhUejhrQYoynZzCiSk89jSKy0veDzHdOY+JNS8sXHK24xC+1sNsPSR01nOfJLSmG+5c15UztXWFSt4UYOfQt+FUK8zt+zm7jMluleb2zje69xjZDkEXLZ7Vqh8OJyv4D2S0nGh2xacZzmcTz2HjXptaoCVvz7K6x2DCuvZoga7SoCi5o18vtz8VJep6S9VgTZATqPD9dr3HRGtcoC5ult075Db6RLOYZLLZW4ZVa/7+lXeIUVlDtf9H1I3yHKvXKEugtv9YfNfS7FsGQAsw7LbzEUf8SA7W2UFPt3kAYb/FievnEH8/+fBZ//zY1hXoyN+cgZnfzgCrAvi0ysAXLmEMwfCCKxfhVWrlsPV7DTNeDk+aCVnUsdpALMvb8x2aX66B7MALl9RdqM5MiZPjnUmEVC7xi16AnqtV7rXyAxLJicc9zD2sYYmrE9zDEjqSEFHYtwD74JOdbImg48hgjACUre7u6beTJcz/ZwOz725ifU/HclMCo8fjcGzpck2cd1JaiIJ1HuU7Tzw1upIFBopKiPbhPqcFxHKn0/u3ZHM/K7UsT7om5uvy8nY7t2jSKcHUd9Rl+ftLmNuZH2NUgo8XnjyzpMz9jGGJa26UofwuFkeHOveNWR7QzWQfUGkuh2jiRb0eY11zvkzH0Y7k5OnptREEhgPo05qZ+o6dGneoZ3nXo9jGTU4t0vFyr17Yws8/QPGsJ45raCkOX758rKA4u2HB15r3uTwAJJbmtC+KWhMH5kcQh+U+YglyVOubxDlDbgWkHtdE1bgGOJ/NoJXlzVhXbUH6z+xFCd+OILTozPwfGo9VgDQv7kWjzwVx4e/9j288cZb+Ml3ikyerfZgNYBljw/irbfesn3+9BPqxjQf7o0t+R8KBR4YeSuhxwtPbQRj8pt0aettOqcAw6jUledG+19FgI5Adu5GYzOCjvN0ACCOgX4PWjY6XGd1OyKbYxjoiiLcH0Rkt8M2ivyNd25Df22VMZ/gx95OoO9YFPs6gMjT12O4ZfGjeXO+HxoFfoTkDZqMfexvlRqf3sY8dW8u8+7KaTIKnzeBiPR2qq3lrm7HqPTWavmCrvzcNfXA5sGcvMv9IVEKp3bJlBPkSKqb0GIGOfGjMeVlpDyK5WUexdsPN5q2eBA7Gkf8aNKoj43NCPYPIK4noBe6jiLUcp0vqL3eXLcBFz7WhJYVs+h59gVc+r1P434AD3xyI/D3nXjhpBtNnzJudepd48YtWbIU+PlpfO3FYrH9OjRtX4ZLLz+JztemMQtg9l9H0B0ZwUW+ZjkPKUTb7L1ZqWN9+X9Jmw1KQJ4gORxCoD+IZscJ1OY+Sg9JljlpX55MvZB/JqC6HYOdQHirdX4/egfqEfaqE2jjCLkCSHYO5v3F6t8URKwjDHTuLa3XprEZwXF7vqS6AgjP65dnhZUxn9wbW4COcOm//heL4ZASOMQx0J//h4Z/UxC6HKQihejWMFCg99O/KYhYc55J1tUe1COGsFRe4s+FHX/8VJza2zY8kO2VseWTB95a698V1tiMYH+gTMGdGazY7oX5Zm7BIMqN9meCiD3rQzgpvVRS6M/rFMrLQkpoP9wbW+BJhhFOWsv8aN6cRPjZYteRj5EvuvwnXiajCPfbt7peXb8BF+7Hp39vKXBlKVo2PmAsWve78M/MYGbFY2gyK6H/iy+h6UM6ohvqsOrRAazeWiy2Xwp/9z/i0OeW4dUnHkLdqlWo+/QLSH7oHuQOglJxbnigdMMfbsGY9beczJ6b7JtKbrSfGkMkGZCGB4HBgn+nx432U8bwS3aoJPur199j/g0oa93RZgxuVo9ROe7dg4ggjDoriGzsRVoaErG6+TGQxmihnqvGvYjU5uvZcWL8CQU5X2x5XzJluFZp2GPN8rr59zaULZ+q2xHZrP4pkuuAx4ukLS+Na7X+LIYxrCy9pdjYi/RAPcKZ/KlD35axwnnT2GsM6cv3MzO8n1teBjaV1htSdo17jbJgpfEosumw5ZNxzQvzN5786E1ElHuk/iAonXv3qHIv7Pc7r8ZmBMd1e2CtJ/IPnxfKy4Jyy0NO+1HdZPxNRSktnnsBfbzAD+Qi3LtHMWg9E1wuuLYCkU7Hn+fXnVuEEEJeMDExgZqaGnkREcCyQVQy1hWqnDhCrjC8iewfGY63+aA/bf+jwzeSeJsL4XuL/Ji4DlzHPVxEREQ3l3hbIGe43N9z4wZbxpSSufTsL14MuIiIiBY784+BBpIRjM1rov51Qv1jvs1JRKTevOsZhxSpZCwbRKVhXSEiFXu4iIiIiCqMARcRERFRhTHgIiIiIqowBlxEREREFcaAi4iIiKjCGHARERERVRgDLiIiIqIKY8BFREREVGEMuIiIiIgqjAEXERERUYWVL+D6+RlEt/lw5wfM///oA3die/+MuhURES2YOEIuH6KT6nIiWmjlCbiunMEe7yMIDwOfff4QDh08hN5n/FhyadZYPxPHnvWr8MifpdQ9iYhoMZiMwucKIa4uJ6KyKE/A9fZpnLgE+A/8AC893oSmTU0I7u5F7xfcxvpf6Tjx5gwuXVF3JCIiIrrxlSfgum0ZPggg/lIUutmplTEcgssbhg5A76iDK9O9fQlnDoSw9s7sEOTaJ4YwYwZlqS4fXC4fwgfC8H3ABVdbHMAM4l/ZiLrl1j6rsP1bevZc7w5h19rlxrrla419XS74urI9azPHdmXPeedahE9eyu5PRHStOPQwpbp8ZtsHaXgwjpDLbMNyhgtTiK6x1rng65LaR8A8Rna9a00UKcjtdAwBl9XeIud42eVWerPrQsPZVUSUqzwB14oWvNjtx4o3O+FbvgqPfGUIKSvw+sSf4q2/ewoeAJ4nv4+33vo+dtwF6F2fwSNPxXHHfzmEH/zzKAaf9CL1re1oeCKObMymI/pXt+PQv6aR7vEDOIsTEw/gT15/C2/98zE8VTeDoSe2Gw3OlTPYs2Y7+lKr8dRfj2JspA2X/s8o5Obm0nAIDdv6gMePYeytUby0LoXohu3oe1faiIho0dIR9g6gOZ1GOp1GeqAeYa8VpKUQXVOHvi1jxrp0GpFzYcTk3YcHgAFz3/QgguNh7BsG0NiLdCICD4IYTFvtrXq8MUSSATOwSiG6NYx66VjN8nmIKJdQ6LquLirZ5QsjYt/Wu4WmaUJbuUEctA51oVs0aJpo2D9lLhgROzVNaFuPiMvS/q9/qUpo2qPiyL8LMbW/QWhalXjyh9IGquOtQtM00XpcCBHfKTRNE9uOSEf80T5xd+a8U6J7nSa0Tx4Q09b66YNig6aJB1+y0kWFXE3ZILqZzKuuXOgWDVqrGJEWTe1vENoOa8mIaNUaRPcFaQMxJbpXm22gw/7O+2SN7JDaZXV/9bsw29wdI5nzZtt0IiqmPD1cpqXVfnR85y38JPES/O+dwK4/6oPje4pv60gA8DzwAJZKiz/sdgNIYTqzkxvuFdIGVy7hzIEwAutXYdWq5XA1Z3+7pSYSADxY/XHpiMtux+2ZLzoSbwIY3YNVVjf4ql04AeA9zi0jouuSG5568596AnqtFx5lCzv7EGGgX10v0RPZIUbr0xwDkjpScKP91BhaDtflDjUSkaOyBlyWpdUtaNkA4OQZnFVXAsBdHngB6GfOSMOHwFQqBaAenrukhRL9m2vxyFNxfPhr38Mbb7yFn3wnmFnnvstjBFXyGOI7KWN+AgDAA+/HAKx7EWNvvYW3pM/3Hzcn9xMRXVdS0JPmPz1eeMYTtmkUmNRhrbaGCBPPWMOAaQxuljdWeLzw1EYwZg1fWp9T7TBaTDfaT5nHQYBBF1ER5Qm4XtuDtc2d6Dk6hKGjQ4hFNmLnILBsexPWAcCtwBIAqR+O4OzJIcTf9qPlC8uAY3+EYGQIZ9/WcaJrO7a/PItlX/gC/LeqJzCk3jXCpyVLlgI/P42vvSjNTvjk76IJQKxtO6Indegno9ge6pECOjeaHqsHTnZi18tncREAfn4WR/64D6dvyx6GiOiaqPagHjEMWJPPJ6MIdKiT3nWEn8sGNqmuAMKIYG9jdv+w9JJQ/DnjhSWDjsS4B95MF1gcA4V6uKqb0IIwAtLxsuIISQGW597C/WpEVK45XGcPiA0fv1tUaZoxf6vqPrHh6VfF9PvWBhfF6083GOvueFgcSAkh3r8oTu/fJu6ryu6zbf9pcdHcx5jDpcw90A+KbfeY29/TKo78hTSHSwhx8Ux3Zn3VgzvFq3/3vGiwzdFSznnHSvHgjiOCsxBKM6+yQXQTmnddMeelapomtNXdYsRpDtd+aRt1jpUYEa2ZdZpoPW6fw2W0q9l9W+U5XOacLk3TlHNmj5dtb405XHJa2Y4SFXaLEELIAdjExARqamrkRdetS4cCuPMP42j56zRe+pS6lubqRiobRJVUmboSR8gVhjcxivZqdR0RLXblGVJcFFLoaduFntfOIjWj48TLu7D2D+PAXU9hxyfUbYmIiIgWzg0UcC3FB289jc7mh1C3yoeNf/wqlm6M4PsnOnB/njlhRERERAvhhh5SpPJi2SAqDesKEaluoB4uIiIiosWJARcRERFRheUEXLfccguUUUYiIiIimichRG7AtWTJEszOyn//nYiIiIjma3Z2Njfg0jQNFy9eVBcTERER0TxcvHgxN+C644478P777+MXv/iFuoqIiIiI5uAXv/gF3n///dyACwB++7d/G7/85S/xb//2b7h8+TLndBERERGVSAiBy5cv49/+7d/wy1/+Er/927+d+3e4ZL/4xS/wy1/+Eu+99x6DLiIiIqIS3HLLLViyZAk0TcMdd9xhLCsUcBERERHR1XMcUiQiIiKi8mHARURERFRhDLiIiIiIKowBFxEREVGFMeAiIiIiqjAGXEREREQV9v8H3CrPQZC/XEoAAAAASUVORK5CYII=;" vertex="1" parent="1">
          <mxGeometry x="-408" y="473" width="408.27" height="267" as="geometry" />
        </mxCell>
        <mxCell id="aabwxI1RRvn9kMPN7O6g-28" value="" style="edgeStyle=orthogonalEdgeStyle;rounded=0;orthogonalLoop=1;jettySize=auto;html=1;" edge="1" parent="1" source="aabwxI1RRvn9kMPN7O6g-26" target="aabwxI1RRvn9kMPN7O6g-27">
          <mxGeometry relative="1" as="geometry" />
        </mxCell>
        <mxCell id="aabwxI1RRvn9kMPN7O6g-26" value="Enable&lt;br&gt;Start" style="rounded=1;whiteSpace=wrap;html=1;" vertex="1" parent="1">
          <mxGeometry x="-255.87" y="780" width="120" height="60" as="geometry" />
        </mxCell>
        <mxCell id="aabwxI1RRvn9kMPN7O6g-27" value="off/ ---On&amp;nbsp;" style="whiteSpace=wrap;html=1;rounded=1;" vertex="1" parent="1">
          <mxGeometry x="-80" y="780" width="120" height="60" as="geometry" />
        </mxCell>
        <mxCell id="aabwxI1RRvn9kMPN7O6g-54" style="edgeStyle=orthogonalEdgeStyle;rounded=0;orthogonalLoop=1;jettySize=auto;html=1;" edge="1" parent="1" source="aabwxI1RRvn9kMPN7O6g-52" target="aabwxI1RRvn9kMPN7O6g-53">
          <mxGeometry relative="1" as="geometry" />
        </mxCell>
        <mxCell id="aabwxI1RRvn9kMPN7O6g-52" value="" style="verticalLabelPosition=bottom;html=1;verticalAlign=top;align=center;strokeColor=none;fillColor=#00BEF2;shape=mxgraph.azure.user;" vertex="1" parent="1">
          <mxGeometry x="730" y="800" width="47.5" height="50" as="geometry" />
        </mxCell>
        <mxCell id="aabwxI1RRvn9kMPN7O6g-53" value="" style="image;html=1;image=img/lib/clip_art/computers/Server_Rack_128x128.png" vertex="1" parent="1">
          <mxGeometry x="450" y="810" width="120" height="130" as="geometry" />
        </mxCell>
        <mxCell id="aabwxI1RRvn9kMPN7O6g-56" style="edgeStyle=orthogonalEdgeStyle;rounded=0;orthogonalLoop=1;jettySize=auto;html=1;" edge="1" parent="1" source="aabwxI1RRvn9kMPN7O6g-55">
          <mxGeometry relative="1" as="geometry">
            <mxPoint x="660" y="820" as="targetPoint" />
          </mxGeometry>
        </mxCell>
        <mxCell id="aabwxI1RRvn9kMPN7O6g-55" value="VPN" style="text;html=1;align=center;verticalAlign=middle;whiteSpace=wrap;rounded=0;" vertex="1" parent="1">
          <mxGeometry x="600" y="755" width="60" height="30" as="geometry" />
        </mxCell>
        <mxCell id="aabwxI1RRvn9kMPN7O6g-58" style="edgeStyle=orthogonalEdgeStyle;rounded=0;orthogonalLoop=1;jettySize=auto;html=1;" edge="1" parent="1" source="aabwxI1RRvn9kMPN7O6g-57" target="aabwxI1RRvn9kMPN7O6g-53">
          <mxGeometry relative="1" as="geometry" />
        </mxCell>
        <mxCell id="aabwxI1RRvn9kMPN7O6g-57" value="" style="shape=image;verticalLabelPosition=bottom;labelBackgroundColor=default;verticalAlign=top;aspect=fixed;imageAspect=0;image=data:image/jpeg,/9j/4AAQSkZJRgABAQAAAQABAAD/2wCEAAkGBxITEhUSExIVFhUWFhUVFhcXFxYVFRUVFxUXFxUVFRUYHSggGBolGxUVITEhJSkrLi4uFx8zODMsNygtLisBCgoKDg0OGxAQGzMgICI3NzcvLS0tMTAuLS83MC0yLS0tKy8yLS0rLTItLS0vLS8tLy0rLS0tLTUxOCstLSsrLf/AABEIAKgBKwMBIgACEQEDEQH/xAAcAAABBAMBAAAAAAAAAAAAAAAAAQIEBwUGCAP/xABIEAABAwEEAwgPCAEDBQEAAAABAAIRAwQSITEFQVEGEzJhcZGT0QgUFSIzUlRzdIGhsbKz8BY0QnKSwdLhI1Ni8QckRIKUNf/EABkBAQADAQEAAAAAAAAAAAAAAAABAgMEBf/EAC8RAAIBAwMCBAYABwAAAAAAAAABAgMREgQhUTFBExRhoQUVU4Gx8CIyQlJxkdH/2gAMAwEAAhEDEQA/AKNWZ3Gf/oWP0qz/ADmLDKTo3w1PzjPiCA7QYXX3TcuQLsZ8c/WzjTh+Lgf7ebX61zlCaTsQHRdnm735Ez/tmNhjCVEs7qxZL20w+8cASW3MYxwxiNWrjw5/nb/SdCEpnQc1NjMscSMdSUX4ODJxjExqide1c9wiEFzoFlStrFP1OPUm75aMfB8XfO4s8OX2Ln8kJJ2hCGdAipaIypzj+J0Z4atn0FIoPfdF8i9ruk3fVOK54CIQHRd47fai8dvtXOkJDCA6MLuNee9t2DmC52ni60ogoDokMGwexJvbdg5gueIRCA6IuDYEm9N2DmC54hNnYFIOid7b4reYJSxuwcwXOwISwoB0PvTfFbzBKKY8Ucyonc0P+8s3pFH5jV0FCAh703xRzBJvTfFHMFNhEICFvTfFHMEppjYOZTIRCAhby3xRzBLvbfFHMpkIhAQt5b4o5gjem+KOYKbCIQECrSwN1rZgxIwnVK8bWyqLO/e20zXuG6DAaXxlJn2rKwiEBgtzYtJsrTa2U22jviWi4YEm4HFve3oiYwVTdkqBesMAZWjLloq9oVF9kxwrDyWj30UBSKEIQApOjfDU/OM+IKMpOjfDU/OM+IICwnHmS3tiVuvl/ZNBwwzx96AUP2/0kB2ZfWSQnCDsT36uUIBU15OpOSHMev8AZAIHD6zQH8SCceZI0kZoAPF/XrTwU1uXOlbkEAOOCaCNefH+yc/Lm96R5y5f2QBf4utI4j18WaCTMxglacT6kArClSN18qVAeYO3+k4v2JPw+pDiTkgFLhrQwn6zSTiPrUna/UgMnua++Wb0ij8xq6DXPm5r75ZvSKPzGroNACEIQAhCEBBr6QF802AOqABzgTdDAci86hhqBKjUtLBrTUc+m+mMHVKZwYdYc2ThxgnPLWvC30bzqgDGvqCoyo1roBLAxgcWzmMCNQMRIUOx0QJe4tcxorRVcze3b6+oTcDTibri8A4ZwJxVrHNKcsrfv7+7G0tdIka0q8rKIY0f7W+4L1VToQIQhCSPaKjg5gEQTBBzOsmZwgA6jPFmqS7JjhWH8to99FXqqK7JjhWH8to99FAUihCEAKTo3w1PzjPiCjKTo3w1PzjPiCAsPJEax/SckLdiAQCcSgmUNZt/pOQAkdtSoQDcCgScylLUtGg5zg1oLnOIAaBJcTgABrPEgGk6gnAKW7RdYCpNF4FKBU70je5yv+L61FAQDXBJIOCylfQFrYzfH2aq1kSSWOEDa4ZtHGVjSEA3HKetGA+sVNfoS1Bu+Gz1wwNLi80qgaGxJcXXYiMZURohAI0JUIQDQYwP9IIjJOTSzYgCIxKUZygNSoDJbmvvlm9Io/Maug1z5ua++Wb0ij8xq6DQAhCEAIQvKvaGMgvcGy5rRJAlzjDWicySYA1oBLTZmvEOE6xqIO1pGLTxjFR7FotlPHvnGXEF5kgucXOu6myScsTrlSKVrpuZvjXtLMe+BBb3pId3wwwIIOyCo+i9M2e0SaFenVuxe3t7XxOUwcjqOtCuKvcnIUGlpizurOs7a9J1Zol1IPaarRhi6mDeAxGrWFOQsCEIQAqK7JjhWH8to99FXqqK7JjhWH8to99FAUihCEAKTo3w1PzjPiCjKTo3w1PzjPiCAsVBKaXYwEQBigHAoTcD9YovQYP1yoByEJHOhAKVP3OtD7VZ2kkB1akMCWmC8DvXCCDxjELHXdv9L3sFs3uqyq2C6m9r2g5EtIcJ4sEBYdoohlHTDAXENdSAvOc93rc4kn1la/8A9NqDH2+nfAN1r3tnxw3D1jE+peNDdpWY+0PNKg8WhzXVGPaXNlogANvYjlleFr3Sve6m+nRs9nfTdfa6hTDHExEOzkcXGgM1uZ07a36Ta19Wob9R7X0ySWBoDrzbhwF2NXi8q13TllYLZWpMwYK72AATA3wiGgYmMgOJZiru8rd89tCzU6zhDqzKf+U+snPLOclqjajpv3jM3gQTN6Zm9nM4oC0tMWllt7ZpWa02lj6dEk0XNNOi6mGgOZdc0PBIcJvRwsiFVq2W3bua9Sm9lyi19RoZVrMZFWowCLpdOwxxThC1giMv6QDkJGulKgBIXJA6frFEgIBwKE2NYQ12pAZTc198s3pFH5jV0GufNzX3yzekUfmNXQaAEIQgBYrdDQqvbS3qZFos7nQbv+NtVpqTiJF0GRr41lUIDQ2WK1PsFWwGyVGOLa8VHuo7zUmq57WEsqOeA9roxbhJlZXRlKtWtrbS6zvs7KdmfRLahp3qj31KbwAKb3C6wU3QTmahhbOhAafoXR1pZbqjiyo2kX2h73PqUX0ql9zTRNENAqMcAMQ4AASJfgVuCEIAQhCAFRXZMcKw/ltHvoq9VRXZMcKw/ltHvooCkUIQgBSdG+Gp+cZ8QUZSdG+Gp+cZ8QQFhgZ8v7JBgJ5UoOJRdjH/AJ9SAaD3vGAnOERyhJE8ntSvOXKgHJDmPX+yVNccQgEDRP1CRhBlOc3Wg46kAjRhPKnNyCTIJzckAj8ub3pHN9qV+XMkcJQDS4SlDRKWdUdSGthAK3XypU1mvlTkAyO99SR5A505mUJBggAgYcftTtfqSBuMoBx9SAym5r75ZvSKPzGroIlc+7mvvlm9Io/MaugdfqQDTVG0c/1sKTfhtbzrH1sSf+3LsXCZAkTqB1E4r1slna6Xuo3DJABiSM5MYZz7dqAmb8NredPxXgLFT8RurUNWSkIBMUYpUIBMUYpUIBMUYpUIBpJVGdkxwrD+W0e+ir0d1e9UX2THCsP5bR76KApFCEIAUnRvhqfnGfEFGUnRvhqfnGfEEBYpCbB5fenIQDGgxs96eAhCAEIQgG3diRs44J6EAgavWpQe0BzmOaHcElpAdr70nPMZbV5rKUNO1miBdi61kQRgwNAJLSDehoxmRqu4IDGuYRiQQIBxByOR5CmmnrE5xOqdizVPdLVFQ1BTo3jEy18G7MYX9jiPfKjaR0xUrNDHhsA3hF7jwxcRHfRxAD1gYvGcupOu7f6SoQAhCEAhamunlyT0IBsTnzJwQhAZLc198s3pFH5jV0CRj6lz9ua++Wb0ij8xq6BJxQEV9Z4Mb0SJMEP1ap2SinWeSAaRA1kuGGB1DkHOnPswJm9UHI8j2SvWky6I748pn3oB93l5yi79SUXuJF7iQBd+pKLv1JRe4kXuJAF36kou/UlF7iRe4kAXfqSi79SUXuJF7iQAW/t71RnZMcKw/ltHvoq8ieJUb2THCsP5bR76KApFCEIAUnRvhqfnGfEFGUnRvhqfnGfEEBYhckuznzIDcTy/sk5UA67s/pAcmNwEhK5uXKEA9BKE1wxHrQBieL3ou7MEY5T1pGgYwgMnZalngB9KqXAd8WEQeESYOWF3iwKk7xZowpWvHLBsYidmO3kWJstocw3hEwRBEiDgZCmM0xViO9jPgjOb08s48qAktp2cgE0LQD+K7i3EThOOBwzyAOZXjWo0ye8o2iIOL2zDpaQQGxIi+IJ1hD9PV44Q5vUvN+mK21uILcsYIxg56hzBAR7bvRd/jaWiNZMzJO06iB6lHkjjSECUuOU9aAcChNYM+VOQCF2z+kl3bimtECR/SHjbxIB0EJQ5Idk5oAx9SAym5n75ZvSKPzGqw/8AqjVc11nuuIkVciRrp7FXm5n75ZvSKPzGq8NL2ezOLTXptfE3bzb0ZTGzVzKU7M5tXRlWpOEXZsprtqp47/1HrR21U8d/6j1q1u0dHeT0+jHUjtHR3k9Pox1K+aPF+TV/qfkqntqp47/1HrR21U8d/wCo9atbtHR3k9Pox1I7R0d5PS6MdSZofJq/1PyVnZXhwBfaHMxcDi8mIaWkAcd+cdQUhzaYJBtT8mkEEkY3r0wdXenPWQrE7Q0d5PS6MdSTtDR3k9Lox1JmjVfCqqVsl7lVC1VPHf8AqPWjtqp47/1HrVrdo6O8npdGOpHaOjvJ6fRjqTNGXyav/f8Akqntqp47/wBR60dtVPHf+o9atbtHR3k9Pox1I7R0d5PT6MdSZIfJq/1PyVvoK0PNpoAvd4al+I+O1ROyY4Vh/LaPfRVr2axWEPaWUKYcHAtIpgEOBwIOrFVR2THCsP5bR76KrJ3PU0Gknp4tSd7lIoQhVO8FJ0b4an5xnxBRlJ0b4an5xnxBAWI3Xy/smRty9nrTy1JO3n1IBpGof0sro3RDq7Krw4DegHEETewcYGzBp51i2HAQtu3FwKNqL5LbrbwGEtu1JA9S4tfWnRoOcOt1+Ua0YqU7MwuhNFOtLyxrg2G3pInWBHtXrorQTqzX1N8YxtMwS6dkkzqC2PcpXsrqrhQpVGOuYlxkFt4YDvjrhRdzgYbJag8kMvOvFvCDbgmONedX+IVk52TjbGyaV93vz9jeFGG19+ph9I7nn06ZrMqMq0xwiw4jGJ4xjjivWnuYG9sqOtFKnvjQ5t7DMTEk44EL1tOl7PSszrPZ21HXzLnPjXEnDMw0DJZTStaztstl39j3gsbdDDBBuNmcQktTqo4xd95NLZXatx0Cp03d8LnY1fSWjm0Q27Xp1ZvTcM3eXln2FJojRlS0OuUxkASTwWjaepJpN9BxG8Me0R3weQZM4RBPvWwblQTZbUGeEgxHC4BuxxzejjXbXr1KOmz/AKtlultd2u0jKEIyqW7ehEO5a/eFK00qj25sBjXtk+2PUtfrMIMHAtJkHURgQs/uYoUXPYBWqsrkuDbgF2IJzLTqBzWS0Jo5lN1qqOLXupvc1rquIbmS92vHWc8CsHrZUJTjUeVrW2s93b/Fi3hKaTirfc0oR6/alZtK2zTVejUsxc59J9ZjmgOpNcJBOTsMMJz2CFl9IWwU7XRotpU4qAB5LReIJLWgHUBHHmrP4nKytT33726W9B4C549zQKLC43WgkkwABJJ2ALIaX0Q+z3L5EvaTA/CREg84yUy32x1ktNdtANaDA4IN0FocbuzEniy2BSt2ziW2YnEmm4njJDJWnmqjrUrK0Jq/r0v9ivhxUZcr/pDsm5lzqdMvqspuqj/Gx0lzsJHJmNuY14LDWuyupvdTqCHNMHZyg6wRitt3TA9sWO7l3kbOG39oWK3buHbTvysnljqhZaLV1alSObupJu3FnYtVpxinbsYJox4k7X6kkzlzpQ1eucxk9zX3yzekUfmNV2af/B/7fsqT3NffLN6RR+Y1XrpKxuqXYIETnxx1IDV2VnX7vGcIMgYwZ9Q1fjGxForuaSBTLsARGsyZBOr8PPxLN9xn+M329STuM/xm+3qQGtt0m8ugUHHPGYjEjW3i+hinvtlUQd5JwkgZ5nInZDcIk3p1FbF3Gf4zfb1I7jP8Zvt6kBgn2ioGg72ScZaJJwGABIHHjxYTKTtt/wDou5+ONn17Vne4z/Gb7epL3Gf4zfb1IDBdsVMP8eYxGJMzEXshhjimNtjyAd5djx5YE4iJ1bNevXsHcZ/jN9vUk7jP8Zvt6kBi6TiQCRBgSNh1hPWR7jP8Zvt6kdxn+M329SAiWHwjPzD3qseyY4Vh/LaPfRVu2fRT2ua4ubgQdfUqi7JjhWH8to99FAUihCEAKTo3w1PzjPiCjKTo3w1PzjPiCAsVCCU2SckA5ZDR2lX0WVWNDSKrbpmZGBEiDscc+JY3EcfvTgVSpTjUjjJXRKk07on6H0o+zvL2BpJaWw6YzBnA7Qlsmln06VWiA0irmTMiRBjGMlj0KktPSk23Hd29uhKnJbJgs7Q3U1WsbT3ui4MAaLzXEwBA/FCwF7Z/SWDypW09OskqivYRnKPRmS0rpd1cNDqdJt2eA0tJmMySdi8dHaQqUH36Zg5EHEOGwhQw5KioU1T8O38PAc5XyvubAd1VQSW0aLHnN4Ybx48/fKgWDTVWk97wQ7fJvh4lr5mSQIxxOW1Y5IXLOOioRTSit+pZ1Zve5lbdpp9SnvTWU6VOZLabYk7T7OZFr05UqVqdchodTuwADdMEnHGcZKxMHb1JQ7arLS0V0jz79f8AZDqSfck6QtZrVHVXAAuMkDIQABE8QC99J6UfXFMODRvbboiccpJk54BQEK6owWO38vT0Iye/qZqx7pKrGNYWU33PBue0lzMIwIOxYq1V3VHue8y5xknj6l5EpsHkUU9PSpycoRs2S5ykrNjkJsxnzpy2KGS3NffLN6RR+Y1dBrnzc198s3pFH5jV0GgBCF4VrU1pgzlOROEwgPdCi9vMwzx4ig29g8b9LupASkKL2+z/AHZTwXZYcXGg29nH+l3JsQEpCii3s1E/pd1IOkGbT+l3UgJSFGFtZqnOOC6Z9YxUlACorsmOFYfy2j30VeqorsmOFYfy2j30UBSKEIQApOjPDU/OM+IKMpOjT/mp+cZ8QUrcMsKMSUsk8SzujzTNmquNNhLBgC0X3nDEOzE4xBwgSFN3GVKRfvVRjCHuPfOYxxaA0nCQtXRay9DmWpi2lyaoHGJzQQc8vrWrL09ZLMxouMpkl0EXGDAgnZxLC6JsFF96+AIAugAd8fFywnbkISFLKm6nRL03D1KVRU0rt+pqKa8TAW01KFMOIDWkAkZDqSW+zsZccGth1RrMWtORp3tWu+7kAGvFWq0PDtd9SlLV+I3aPQ1e8coSCcVuRs1OCRTbgJMMBMDMNGt2wbV4U2NJdNGm0CIgBwyxxjHVjy5ZK/lJZY3Kefja9jVHY/WKe3Jb1ouw2d8tfTbJiCA0Buck4KPog0muvOpUyC2IcxpAkjURgo8rK7V+hK10bJ26mmPyTRhhCsbSos4ALKdOTjwKeI1QAMPWsI2lRl5c1oDQXQGiTjgBh7AqKg3By4NfMrNQ5NUMzmlJnCOpbJXswaYcynOB70TA5SM+tZix6Ps5srnmmw1AKhnkBjDbgFfyrwU79Sr1kc3C3Q0Nics5TosLgC0QSJwaPacByqZpugwNYRZhRMREkmptdBy1c6iemxqRpuW76CGqypymo7I1NuGP/KVxPIrC0TUoPa1m8UsAGk3GSO8dDjhiLzWg4jhTqTaFGk20hpp0nhpP4GwZpuzERInnCjy8rtcF/MRsnyaBeKRoxVjWZjX1KhNKk0MnvN5pRmQwcGZIg3p1xGCwlps1B1re2qRSpwOC0CDvbSAAAczxa1WjRdRtLsTV1EIJNb3/AHuYrcz98s3pFH5jV0EqI0xRs1IsNmrOeZJJIulsQWkG6IOfMszuXtDqzX77a3sILQ29WuTIM556ltLSNQyv7GcdWnLG3uW8kVEO0vaP9er+t3WvHu5aWODhXqHiL3Ec0rT5fLlGfn48F+ptQGO9ieNUxX0hWrsNSjXqte0d/TD3D/2aJWDOm7V5RW6R3WoWgk+5Z62K7F+NFaMTTnkdHvQW1trOZ0cWtUCdOWryit0jutRq2n7UP/JrdI/rR6CS7ha2L7HRVEVJ74tjiBHvK9lzvo3S1Z9Rjalvq02uBvPL6kMOMAycchlhimnTFe69wtteQ4hoNQi82WhpgvvSZccAQLuJxWL0zTtc1WoXB0UlXPbNJ1DVLDpKvcuEtqTUAvyA0Oa5wIGJJzIjJeei9JWuoHHfbQ8AgCK7mQbrzjLxsB9XGo8u+SfG9DohUV2THCsPJaPfRUW2221tpvcO2WwCQ7tsm7dEull/HIlaDu00nWr70atRz7t8NvEmOBMTyBUlSajctGqm7GsoQhZGoLL7kabXW+yNcA5rrTQBBEgg1Wggg5ghIhAdct3OWICBZLPGsbzTjmuoZucsYyslnHJRpj9kIVsnyVwjwencOy+TUejZ1JO4Nk8modEzqSITJ8jCL7C9wrL5NR6NnUlGg7L5NR6NnUhCjJ8jCK7C9xrN5PR6NnUjuLZvJ6PRs6kIU5S5IwjwJ3Dsvk1Ho2dSBoSy+T0ejZ1IQmUuR4ceBe4tm8no9GzqTDoGyeTUOiZ1IQmUuScI8B3Bsnk1DomdSO4Fk8lodEzqQhM5ckeHHgO4Fk8lodEzqSfZ6x+S0Oip9SEJlLknCPAvcCyeS0OiZ1J7NC2YGRZ6IIyIpsBHJghCjJ8jGPB69zqP+kz9I6lHqaAsjiXOstAk5k0mEnCMSRsAQhFJroHFPqhn2bsXkln6Gn/FH2bsXkdn6Gn/ABQhTnLkYR4F+ztj8ks/RU+pIdzdiP8A4ln6Gn/FCEzlyMI8D6OgLIwyyy0Gna2lTB5wF5u3NWI4mx2Y8tGn/FKhM5cjCPA37L2HyKzdDS/ikO5WweRWXoKX8UITOXIwjwJ9lNH+Q2XoKX8UfZSweQ2XoKX8UITJ8jGPAfZTR/kNl6Cl/FH2T0f5DZegpfxQhRk+RiuBDuR0d5BZP/npfxVM9kToyhQdYhRo06QItEimxrAYNGJugTmedCEuybIpxCEKCT//2Q==;" vertex="1" parent="1">
          <mxGeometry x="50.00000000000001" y="840" width="358.15" height="201.24" as="geometry" />
        </mxCell>
        <mxCell id="aabwxI1RRvn9kMPN7O6g-61" style="edgeStyle=orthogonalEdgeStyle;rounded=0;orthogonalLoop=1;jettySize=auto;html=1;" edge="1" parent="1" source="aabwxI1RRvn9kMPN7O6g-60">
          <mxGeometry relative="1" as="geometry">
            <mxPoint x="40" y="960" as="targetPoint" />
          </mxGeometry>
        </mxCell>
        <mxCell id="aabwxI1RRvn9kMPN7O6g-60" value="" style="shape=image;verticalLabelPosition=bottom;labelBackgroundColor=default;verticalAlign=top;aspect=fixed;imageAspect=0;image=data:image/jpeg,/9j/4AAQSkZJRgABAQAAAQABAAD/2wCEAAkGBxEQEhIQEhAVFhIXFRIYFRgYGRgVFhUYFxgaFhgWFxgYHjQhGBolGxUVITEhJSkrLi4uFx8zODMtNygtLisBCgoKDg0NGg8NGSsdFx0tKzAtKy0wLSs3LTcrKzMtNy03LSsrLS04Ly0tMC0rNy0rLS04Ky0tMi03NC0tLTc3N//AABEIAJ8BPQMBIgACEQEDEQH/xAAcAAEAAgMBAQEAAAAAAAAAAAAAAwQBAggFBwb/xABBEAABAwIDBAUIBwgCAwAAAAABAAIRAyESMUEEUWFxBRMigZEjMjNCUqGxshRTcnOSwfAGJGKi0dLh8RWCQ1Rj/8QAGAEBAQEBAQAAAAAAAAAAAAAAAAMBBAL/xAAgEQEAAQMEAwEAAAAAAAAAAAAAAgMREwESMUEyUWEh/9oADAMBAAIRAxEAPwD8zTpzdTbJsRqOe0OaC1jnCTGIiIa2fWM2UNOqW/r9bgjKsGS1rsrESLEf0jxXQ4479+t/Fd27orqmud11J+FzBDHSTiBMjeLe8FecrP0vLyVOZJ83POxExF92gWtTaMTQ3AwRFw2HGN5RRAiIjF3o2mW7RQBEHraPzi66Fd0hRBc01WAtMOlwEHcZ5hc9dG1C7aKBJk9bSz+2F0M/YaTiSabCTmSBeSDfvAPcpzVpsu2ykM6jPxD+q1rbdSYCXVGNAJBJIABAkgnvHiov+G2a/wC70r4p7Db4rOm2sBSHo6jc9UyS7EeyLuiMR42F+AU1GKvSdBgJdWY0AgGXAROEiZys9p/7BSHbKX1rPxDnv4FR/wDGUM+pp5ADsiwAAAHAAZLV3ROzmZoU7zPZbckyTlvugsVNpY04XPaDuJAOu/kfBRN6SoGIrUzLcQIcILc5BmIi62rbBSeZdSYTxaDrPxJPeoXdD7MbmhTmZ80ZxE5ZxZBuOk6F/LMtEy4CJAcM+BB71I7bKQzqs1PnDTvWruj6JzpMyjzRla38rfAKL/htmv8Au9K+Oew2+MQ6bagQUF5FgBZQEREBERAREQEREFfbtupUGh9Wo1jSQAXGASdPcfBbbRtTKYDnGxIAgEzPJQ9J9GUdpaKdZge0ODgJIgi0yDOp8VNX2VjwGubYREEtiOWnBHnTdfW/CLb+kqNBrX1aga1xAabmScohb7VttOk0Oe8BpIAO+eS02/o2lXaGVGYmg2ElukR2TlFoyKl2jZKdRoa9oLQQQNARks1vb85I7t2u7x69tqtZrILjEkAcytnugSfgT7gtK9Br7OE56kZiDlwW72BwIORBB5Fa9NHvDmgjIwRyIUalrZDmokBERAREQEREHOmzPaJLqeMW1IjPd+rKZtRmX0a/2n8vG4VfYazgXYaraZiJJImxOY5eJCtuq1hDvplPhFVxN+EK6FlN7ZJhhA3XMeKjXofSKv8A7bZkjzz6swZ3dkQeI4TFtFAklx2mi478biTAH8Pd3JdllRFD1x3J1x3LSz0Oi3RXok5CrSP84X3qt0qJJbVgaB1GqYyjKOPivgXQlSdp2cb61H5wulFOalPvR5OzdKie3Undho1W3tvnivQrB5PZe0CNRN/FTIpqIKOOe05hEaAi/eTxSuHnzHtHMT+anRBWir7dP8J/uWHNq6VGZezrvzVpEENHHfE5p3QCPGSZSoHE2eAIGk3vPPTwUyIKoFX26fPCf7lNSLvWLTui3xPNSIgrVRUM4XsA0lske/mtmY5u5pbe0X4Xn8lOiCGtiMYHNGcyJ/NRhtX6xn4T/dy96tIgrEVbw9kXiWn8irGLisogxiG9MQ3rKIMYhvTEN6yiDGIb0xDesogxiG9MQ3rKII6xy5qrW2hrC0HUgDxDfi5o71arZDmqlbBiZiEnEQ2xMGDuytNygVNrptJa6owERILgDfKx5jxWv0+j9bTynzm5b81HXfs+KHmljy7WHFeDF76D3INo2cjz6UZ5tO8T8R4oJ2bVTJAFRhJyAcCT71KqLdq2YGz6IdY5sBuXNB8Q4eKmG30SYFanO7E2figsIiIOcqD2CcbScogxHPepRVoR6N8wMnjQX9X9cFnYDV7XVuANpBLROcRita5Vh7toyc9ogt1pnzpaD2Z3XV3Op7Q+kfMY5pnVwcIjlnKgXrH6VlibmDM0tLg2vkqrelKwyfa9sLYvwiw4IKaLJKwtYt9E+nofe0vnC6H2nBIxEg6QSD7lzx0T6eh99S+cLoquXyMLGu5mI9xU6itNo3Z2mHBzyNO0Y371luygGZfnPnGOUTktcda3YYOGI/HDu4Ky3jmpqE8EngsogxPBJ4LKIMTwSeCyiDE8FWr9Xi7TiHGPWIndkeB96tKGoX4rNaRa83md0ZIK7Orm1Rx088ujTfY9r4bkotpuMNe48MRyH+wpJqew3I68f6JNUZMb4wgszwSeCjouf6wA5FSoMTwVGpUpSZqwZMjGBkbiFfVUuqSYpMiTfFE7jGEoNaG0Um9kVATMQXSZmIgmc1bngqzXVJ9GyJzxXic4w5xfNWkGJ4JPBZRBieCTwWUQYngk8FlEEdbIc1R2k05GOZI3uFstPte9Xq2Q5qB9MG5AP6/wgrV6+zh4a91LrLAB2HF2ogXvfs+5afTNlsOsowRa7IIJi2huCFcLAbwJ5LBpN9keA/Wp8UEbGUqgBAY5s2IDXCQdCNQ6e9b9Qz2G+A5/FbtaBYCAsoCIiDnKj1d8eLSMMd8ypgNnjOrMDRsTadcs02BtQ4urZiym0kbo18FaLa8AHZ2HQTTaSYBMDukq7nVcOzznVi+jJ0i0319yEbP7VXTRg1E3m9p9ytVTtABLqDIEyXU26TNzulVfp7vYp8sDY4GI0FkENfBbBi1nFHdl3qJEWsW+ifT0PvqXzhdC7YWSMTni3qlwn8OZXPXRPp6H31L5wuiqwqT2S2NxB+I7lOorTUmmkGmX1S3e41IA3cP8LLX0hfrKnjUKskVt9PLc4XjnvRnXWnq+MYj/ALU1FUOogDylQA5dqpvI1voVs40si+pIJGb/AAndZWHCteDT4SHLMVrXZlezs5OV90IJ2iAAsqKjjvjw8MM++e5SoCIiAqe1PpgnEXAxoHHQ5QOOiuKKpjns4YjWZm/uyQRjYxM4n62xGL8O9WGNgAbgAsogIiIC855pSZfUmXWBfAM3HZ/V16KrEVpMFkSYs6Y0QV2OpYrPqTiNpfE4t2UT3L0VWb103LIn+KYnLnCsoCIiAiIgIiII62Q5qJS1shzUSAiIgIiICIiDnPZ2Mce2/CLeqXa3y4T7lL1FH64/gP8AVa7G0nFFHrLXEOMcezcKWqxzmwNmLb5hr55X5K7nQ7TTpi7apeZ1aW2zmSd82Vdb1KTm2c0g8QR8VotYIiILfRPp6H31L5wuhdrayQXU3Exm0Exna1/0OC566J9PQ++pfOF0JtlXCR5ZrLZOAM8RcKdRWmgqMpWmlU0yD784PxWzmUvqX5C8OvYQbGZiBvsjNqBk/SqZEaASJy9Y/BPpO/aqWW5v9ymos7GGwcLXAT62IHL+JWFW2MkyetFQZWAABGeSsoCIiAiIgKptLWFwmm5x7NwDGZjWLfmraq16hDvSBo7Ni2cydZ1g+CC0ipsxumKwmB6mUkkG/C3ct+pq/XfyBBZRRUWPE4n4u4BSoCo0W08Rim8HEZs6CcR7QvEEye9Xl579ogkHaaYu6xAkXyu7MZIPQReezaO1H0mme1GGAHed5vnd2S9BAREQEREBEUdZriIa7Cd8SgVshzUSlrZDmokBERAREQEREHOuyNknyop5XOK+fsj9SrT2mB+9gjnUkG02j3rzUXQ51x2ztdc7Q06Xxzbuyz1WlXZWgEitTcRoMUm8Wlt1WRARERi30T6eh99S+cLoqsXz2WtI4nD+RXOvRPp6H31L5wuhNswSMWOYthxkZ7m2JU6itNkOqjKkzf55F8/Z36rLH1TE0mD/ALyR/Kq/WUpPbqa27epjIIRTkeUq6GJeZFon3KaiwXVRMU2fiiTvjCsl9bRjMjbETBvGlx5vvUWz0mPu19SNQS4DwOnJTN2QD1nRuLid9r5ecfAbkGpqVvqmfjP9vJWKRJAxAA6gGQO+LqudiHt1Pxu3RvVpAREQFGZxeaI3+P8AjxUipbVUph3aL5sbB0W4gR+t6C41oGQWVWZtzCQO1Jylrh8QrKAiIgKqXVJMUmRJviidxjCVaXnVGUyT2qou/IvA1JjSN29BO11SfRsic8V4nOMOcXzVpUKFKm7J9Q5m7njKJz+0Fbo0sMiXHmS7hqgkREQEREBERBHWyHNRKWtkOaiQEREBERAREQc2oiLocwiIgIiILfRPp6H31L5wuiqwqT2S0CNQTfuK516J9PQ++pfOF0LtjGEjFSc8xYgTESd+anUVps+W/wDn/Nv/AKLY9bvZpv7/AM1VHVzPU1Ln2XRJz14ZoWU/qahBjRxie+xueIU1F2hjjt4Z/hn81KvP6qldvUvvnYweZmOK0LaZnyFTTQ7yMp4T4IPTRVnbWBA6uppk0kbokKajUxCYI4EQfBBuiIgIiq7S1mIF1NzjLYIEjWDnp+aC0i0o1MQnCRwNit0BERAUBFW/aZEmLHLTXPL/AAp15lVlKTNGpm/IOvczkciZPegu0es9bDrlPCM/+3uUy8sUqJ/8FTPUO47z+pCvbIRhgMc0AwAbd+eSCZERAREQEREEdbIc1Epa2Q5qJAREQEREBERBzaswqnSpijV+w5fig90Tjd+JWlKyMY3fQFhfPnVnD1nfiWpru9p3iV5yNxvoaL5317/bd4lOvf7bvEpkMb6f0T6eh99S+cLoivikRUDRFwQD352XN/7NHtbJ9rZvi1dHbUwE3o47Z9meXaPNJtp9sQ+/lmzb1RbPTFy8FlgfIJrNLdRhF++eSzT2OlY9SwGPZbItlZbDY6YnybL59kX571NRL1g3jxWyg+h0pB6tkgyOyLHeLWU6AiIgIiICgqhxdaoBYWgHWZz3AqdVqxIdIo4v4paOFtdSglpNcJxOnKLRG/W+ngpFhpWUBERAVN4qXiu0ed6oMCftaWHcri8+rTbJnZMV3Xine5vczfPvQSBtS469snKGjjoTf/CtU8hJk6neqLabYP7pF8opXvn53JSUnFshuzlozsWAExrB4ATCC4irGu+JFF2tpbOnGLyddEdtDxB6l3G7ZGfGNBrqgsotWOJFxFz8VsgIiII62Q5qJS1shzUSAiIgIiICIiDmLpb0NX7DvgvwS/e9Lehq/Yd8F+EDz+gF7nynT4aoskysLwoIiIPpf7M+dsf2tm+LV0btb2g3rYDH8OU59oLnL9mfO2P7WzfFq6SrF89ljTbMmL+BXufScO2jNspwPKtNhckCeO7wVlVAan1TNJ7WW/1bq2vCgiIgIiICIiAqW1PYHXrlp9mQO/KVdVesXzZjSOJv8ECntlMwBUBJsL5lWFBRxGcTGjKCDP8ArRToCIiAqJGIkDaHAyZAwGJOV2zqB4K8q7ccmabYmxnMTnEW3oMDZn38s/wZb+VBszpPlnxER2B3yGzKsogrHZ3ER1r5vfszpuEabtUds77eVdO+G3zzERr7lZRBqxsDObn3lbIiAiIgjrZDmolLWyHNRICIiAiIgIiIOYulvQ1fsOX4XqzuX0VFaUboxlZ85LTuWMJ3L6Oi843rJ8fOMJ3LYUzuX0VExmT43/Zrztj+1s3xaumFzf0T6eh99S+cLpBJlPsREU1BERAREQEREBERAREQEREBERAREQEREBERAREQR1shzUSlrZDmokBERAREQEREH//Z;" vertex="1" parent="1">
          <mxGeometry x="-500" y="880" width="474.02" height="237.76" as="geometry" />
        </mxCell>
        <mxCell id="aabwxI1RRvn9kMPN7O6g-62" value="" style="shape=table;startSize=0;container=1;collapsible=0;childLayout=tableLayout;fontSize=16;" vertex="1" parent="1">
          <mxGeometry x="690" y="870" width="240" height="170" as="geometry" />
        </mxCell>
        <mxCell id="aabwxI1RRvn9kMPN7O6g-63" value="" style="shape=tableRow;horizontal=0;startSize=0;swimlaneHead=0;swimlaneBody=0;strokeColor=inherit;top=0;left=0;bottom=0;right=0;collapsible=0;dropTarget=0;fillColor=none;points=[[0,0.5],[1,0.5]];portConstraint=eastwest;fontSize=16;" vertex="1" parent="aabwxI1RRvn9kMPN7O6g-62">
          <mxGeometry width="240" height="68" as="geometry" />
        </mxCell>
        <mxCell id="aabwxI1RRvn9kMPN7O6g-64" value="UID" style="shape=partialRectangle;html=1;whiteSpace=wrap;connectable=0;strokeColor=inherit;overflow=hidden;fillColor=none;top=0;left=0;bottom=0;right=0;pointerEvents=1;fontSize=16;" vertex="1" parent="aabwxI1RRvn9kMPN7O6g-63">
          <mxGeometry width="80" height="68" as="geometry">
            <mxRectangle width="80" height="68" as="alternateBounds" />
          </mxGeometry>
        </mxCell>
        <mxCell id="aabwxI1RRvn9kMPN7O6g-65" value="PASSWD" style="shape=partialRectangle;html=1;whiteSpace=wrap;connectable=0;strokeColor=inherit;overflow=hidden;fillColor=none;top=0;left=0;bottom=0;right=0;pointerEvents=1;fontSize=16;" vertex="1" parent="aabwxI1RRvn9kMPN7O6g-63">
          <mxGeometry x="80" width="80" height="68" as="geometry">
            <mxRectangle width="80" height="68" as="alternateBounds" />
          </mxGeometry>
        </mxCell>
        <mxCell id="aabwxI1RRvn9kMPN7O6g-66" value="" style="shape=partialRectangle;html=1;whiteSpace=wrap;connectable=0;strokeColor=inherit;overflow=hidden;fillColor=none;top=0;left=0;bottom=0;right=0;pointerEvents=1;fontSize=16;" vertex="1" parent="aabwxI1RRvn9kMPN7O6g-63">
          <mxGeometry x="160" width="80" height="68" as="geometry">
            <mxRectangle width="80" height="68" as="alternateBounds" />
          </mxGeometry>
        </mxCell>
        <mxCell id="aabwxI1RRvn9kMPN7O6g-67" value="" style="shape=tableRow;horizontal=0;startSize=0;swimlaneHead=0;swimlaneBody=0;strokeColor=inherit;top=0;left=0;bottom=0;right=0;collapsible=0;dropTarget=0;fillColor=none;points=[[0,0.5],[1,0.5]];portConstraint=eastwest;fontSize=16;" vertex="1" parent="aabwxI1RRvn9kMPN7O6g-62">
          <mxGeometry y="68" width="240" height="34" as="geometry" />
        </mxCell>
        <mxCell id="aabwxI1RRvn9kMPN7O6g-68" value="" style="shape=partialRectangle;html=1;whiteSpace=wrap;connectable=0;strokeColor=inherit;overflow=hidden;fillColor=none;top=0;left=0;bottom=0;right=0;pointerEvents=1;fontSize=16;" vertex="1" parent="aabwxI1RRvn9kMPN7O6g-67">
          <mxGeometry width="80" height="34" as="geometry">
            <mxRectangle width="80" height="34" as="alternateBounds" />
          </mxGeometry>
        </mxCell>
        <mxCell id="aabwxI1RRvn9kMPN7O6g-69" value="" style="shape=partialRectangle;html=1;whiteSpace=wrap;connectable=0;strokeColor=inherit;overflow=hidden;fillColor=none;top=0;left=0;bottom=0;right=0;pointerEvents=1;fontSize=16;" vertex="1" parent="aabwxI1RRvn9kMPN7O6g-67">
          <mxGeometry x="80" width="80" height="34" as="geometry">
            <mxRectangle width="80" height="34" as="alternateBounds" />
          </mxGeometry>
        </mxCell>
        <mxCell id="aabwxI1RRvn9kMPN7O6g-70" value="" style="shape=partialRectangle;html=1;whiteSpace=wrap;connectable=0;strokeColor=inherit;overflow=hidden;fillColor=none;top=0;left=0;bottom=0;right=0;pointerEvents=1;fontSize=16;" vertex="1" parent="aabwxI1RRvn9kMPN7O6g-67">
          <mxGeometry x="160" width="80" height="34" as="geometry">
            <mxRectangle width="80" height="34" as="alternateBounds" />
          </mxGeometry>
        </mxCell>
        <mxCell id="aabwxI1RRvn9kMPN7O6g-71" value="" style="shape=tableRow;horizontal=0;startSize=0;swimlaneHead=0;swimlaneBody=0;strokeColor=inherit;top=0;left=0;bottom=0;right=0;collapsible=0;dropTarget=0;fillColor=none;points=[[0,0.5],[1,0.5]];portConstraint=eastwest;fontSize=16;" vertex="1" parent="aabwxI1RRvn9kMPN7O6g-62">
          <mxGeometry y="102" width="240" height="68" as="geometry" />
        </mxCell>
        <mxCell id="aabwxI1RRvn9kMPN7O6g-72" value="" style="shape=partialRectangle;html=1;whiteSpace=wrap;connectable=0;strokeColor=inherit;overflow=hidden;fillColor=none;top=0;left=0;bottom=0;right=0;pointerEvents=1;fontSize=16;" vertex="1" parent="aabwxI1RRvn9kMPN7O6g-71">
          <mxGeometry width="80" height="68" as="geometry">
            <mxRectangle width="80" height="68" as="alternateBounds" />
          </mxGeometry>
        </mxCell>
        <mxCell id="aabwxI1RRvn9kMPN7O6g-73" value="" style="shape=partialRectangle;html=1;whiteSpace=wrap;connectable=0;strokeColor=inherit;overflow=hidden;fillColor=none;top=0;left=0;bottom=0;right=0;pointerEvents=1;fontSize=16;" vertex="1" parent="aabwxI1RRvn9kMPN7O6g-71">
          <mxGeometry x="80" width="80" height="68" as="geometry">
            <mxRectangle width="80" height="68" as="alternateBounds" />
          </mxGeometry>
        </mxCell>
        <mxCell id="aabwxI1RRvn9kMPN7O6g-74" value="" style="shape=partialRectangle;html=1;whiteSpace=wrap;connectable=0;strokeColor=inherit;overflow=hidden;fillColor=none;top=0;left=0;bottom=0;right=0;pointerEvents=1;fontSize=16;" vertex="1" parent="aabwxI1RRvn9kMPN7O6g-71">
          <mxGeometry x="160" width="80" height="68" as="geometry">
            <mxRectangle width="80" height="68" as="alternateBounds" />
          </mxGeometry>
        </mxCell>
        <mxCell id="aabwxI1RRvn9kMPN7O6g-75" value="" style="shape=image;verticalLabelPosition=bottom;labelBackgroundColor=default;verticalAlign=top;aspect=fixed;imageAspect=0;image=data:image/jpeg,/9j/4AAQSkZJRgABAQAAAQABAAD/2wCEAAkGBxISEhUQEhMWFhUVGBUVFxgYGRgZFhoXGRcfGBkXGBcYHigiGholHxoVIzEjJSkrMS4vGh8zODMsOCotLysBCgoKDg0OGhAQGy0lICYtLS0tLy0tLy0tLS0vLy0tLS0tLS0tLS0tLS0tLS0tLS0vLS0tLS0tLS0tLS0tLS0tLf/AABEIAKgBLAMBEQACEQEDEQH/xAAcAAABBQEBAQAAAAAAAAAAAAAAAgMEBQYBBwj/xABLEAACAQIDAwYHDAgFBAMAAAABAgMAEQQSIQUTMQYiMkFRYQcVVHGRk9EUFiMzQlJTYoGSsbM0cnShotPh8EOCssHSJHOj8WOD4v/EABsBAQACAwEBAAAAAAAAAAAAAAABAgMEBQYH/8QAQBEAAQICBgYIBQMDBAIDAAAAAQACAxEEEiExQVEFE1JhcZEUFSIygaHR8HKSscHhBkJTFjPxI0NisoKiJCU0/9oADAMBAAIRAxEAPwDxFiSevjRSASZBLEMnzX9BqtZuaymBFF7TyKdhSQfIcg8RY6+w99QS04q8NkVtlQkYiR9+KW+z5vkJIwPCytfzEDgaCI3MJEo0RtoBkd31S02Lizww8580bn/aprNzWHVvGBUnD8ldoObLhMR9sbgfvFKwUVTktNs/wUbQkF2BTuINJpIYqNtXwY7RhF1jaT9UG9J5pVncs9LycxymzYXED/6pPZSsEqOyUd9lYkcYZh50cf7UrtzCsITzc08ky2FlHFHH+VqV25q3R4uyeRSdxJ81/QaVm5qNTE2TySHVhxzDz3FSCDcqOY5t4kk5j2mpVUZj2miLmY9tEWh5Gts/eP7vBtlG7NpDGGzDMXERDk5b5bG1+NEWmgbk7mIOcD5zLiClt5L0VVwwcruOkStr9d6Ik7PHJ0boSGRikbJKWEwWWQxqyyrkJKqrh1tYaEaG1yRRsTjNhCSLd4dmQ4gpLmeey4VXNpFAYHeMrC4ubboc0ZjRFD2/iNle5o2wsS+6M7bxWOJtkJkC5btbQbo8b3HXrRFj8xoiLmiJUasxCqCSSAANSSdAABxNEX0ls3Crye2KzkXxLgM/XedwAoP1EFh2aHratygUU0mO2FhjwVXOqia8swPJoYqAYg4pBPIzuRIwAOsnSZrWYtGdSfljTt9jFp5o8XVCH2BIWeH2K1wyYnNLn5D5Ct8VGV+FzFBny7tGY6KdTzHW3aB21DdLVpyhmdkp2TmZZbweCVN6q9tbFSDD4eVZN40plzZegFAQx20uCczg361I+Sa2qNS3Ror2FsgJccZqpbIK0TkjHJHGyy7smLeNvGQ/JQlgFtliux512sLA84MBqHSb2PcHNmJyEvHz3WcpFWqWKPiuT0AeeNJXzQwQy87JznbI0nEiyqrnTU6HjwORlOi1WOc0Sc4jGwCcvEkcEqi1SMVyGZAx90wsVI5qFXJBmMVxlY62Bex+aw+Sao3S4cQNWRxswnlnYmr3qDtLk2sUc0i4hX3MhjsEYXZSitcnRdXNvnBGI4G2eDT3RHsYYcqwneN8vpblNQW2XrPV0lRFERREURFERVHFSvQPB/sjBx7zEzqrZCAA5GUdeY306146DXur5Gx9cTcvT0yjijPEKDO0TJxtsA4KNy45S4HFIRHh8xFrSqBHoDlOhAJ4jiOvThWXFakObWzNrcRunI8CMP8AKyZ2TGPnen+lavSXbl3upYAxdz/CUuzkHBpB/m/pTpDsgnU0DN3P8JxcNbhJKP8AOadIduUdTQM3c/wnERxwmnHmkanSXbk6lo+buf4VhhtsYqMWXEz275CfxFRr3KepqPm734JvF7RxEnTxOI+yQj8KnpDlHU1Hzd78FCaFjxlmP/2GnSHbk6lo+buf4TTYQdbyn/OadIdkFB0PAGLuf4TTbOj6y5/zf0qRHduVToqjjF3P8JB2dF9ftGo182lW1z9yxnRtGG1zv4WIGGiAK88gi4Fxqe7TRqnWPvsVeiUUAt7RBtF1vDeE2MJCeAc3Gmo1PWvDj3Gp1kTcsXQ6GZSrGd11py47jJcGEgNunrw1HH5vDQ+ep1kTd7xQUOhmUq1t11+zuPGSFwkGnT104jpfNOmhprIm73ioFDoZl3reF+ycjxXRhIdNH101I0PzTpoaayJuQUOhmXeywsORyPkuDCQ6aONbG5Gh7Dpp+FNZE3IKHQ7J1hgbrDkeOGG9HuSDrDjWxuRzT1X06+3hTWRNyCiUO81hbI3WHfxzuSvckHWHFjY6jTsJ04d9RrImElPQ6EL6wkZG6zedxzFikRQ4QdKKQ2OvwlrDqbRej3igfE3KDQ6IJzrCRtus38DmFLRtni+bCSG3H4c8PnaJ0fNUiI/d7wWN1Bo4n2nWX2XDavu4TV3sva2yIr5tnSEjU3lL835wuNR5qaxxvCq6hMbOq42bsMxbaF6H4O9lbPx03uyLAmNcMwyOzXVpLXGVRocoIOvAlavDJNslq0qEIXZnM8LJZgrL+ErlXgcdicrnEmODNGm7MQjJvznGYEm9gL9iivb6KoNKo8KsyrN1ts57guU9zSVkL7M7MZ6YfZXVlTs2eap2UX2Z2Yz0w+ykqdmzzTsovszsxnph9lJU7NnmnZRfZnZjPTD7KSp2bPNOyi+zOzGemH2U/wDnZs807KL7M7MZ6YfZSVOzZ5p2UX2Z2Yz0w+ykqdmzzTsovszsxnph9lJU7NnmnZRfZnZjPTD7KSp2bPNOyi+zOzGemH2UlTs2eadlF9mdmM9MPspKnZs807KL7M7MZ6YfZSVOzZ5p2Ucs9jR4SSFYS5WWBJuflJBZ3FuaB1KPtvWCh0uJHa4vAmCRZukpc0BUzYsZSm9A1OhDFT3NpXzgAg3L0USJCeB2xMTFsyCMjZyTbSpfnOlhYgAu1yL2uxHR1On/ALqbZWAqo1QdN724GQJMzvMrt3+VY7B2lDFIzytG4Kstmz8W+Up3bAMO8ddRIj9v0VnxWPFsWXzH7K28d7Py5dzACFFjfEG7BLAn4O9swDEdeo6yajtbH09VSuyf9/yckx7fwe73bRYRrKihss4clUylmIj1zWubW4k3vZg7Wx9PVC6HOeu8neiZ25trCzR5Y1giYFSGTfZsoW271jAsSb3P23407R/b9FLHw2n+9Pwd6LO75fpB/F7Kmqcvor9IZt/X0Rvl+kH8fspVOX0TpDNv6+iN8v0g/j9lKpy+idIZt/X0RvV+kH8XspVOSa9m2PP0XN6v0g/i9lKpyUa6Htjz9FzeJ89f4vZUydko1kLbHn6Izp89e35XspJ2SivB2h5+iSch/wAQa8elx7eHGpm7JUIhOPfFvHndegheuQd/S17+HGpmclBbDnbEG++3yv3rll+kHf0tfPpx76TOSiUPGIN99vlfvRZeuQHt6Wo79P30mcklDN8QedvGzzRZfpB/FqOw6a0tySUP+QedoyNi7ZfpB/Fw7DprSbslMof8g87sjZauhU+lH8XDsOmoqJu2VIbC/kHndldaEWT6Qd3S4dnDUUm7JTVgi6Jwv5XWhORJEeM6rbhcOfs5qnTuqCX7KsBAH+7LKwn7XblpOTiRSvFhI91K7tkVbSjMS4e5O6uLWsTe2UHTiawPZFcZiY5ZSz8eKyV6M0WROFh8rF61y+2lFsbZceAw1lllUouXQgf4svcSTYd7d1ek0HQOkRgXWtbad5wC4ceJfLFeBV79aaKIiiIoiKIiiIoiKIiiIoiKIiiIoi1/hO+Mwf7FD+ZJXA0Z3Inxn7LK/BYfAGzEjtX97ivCxLveS6tDJDiRu/7BW/J3AnEA3kytcgF5CiaC/EA661SM5sMTqz4BUbGiG9x5q0k2AAtxNGbAl/hzZbMV0OU5tFvoL66A2NsQjtnKod1inXP2jzSl5NsT8dDa4Un3SbAlwmvMvpmvp1A2vwqOkMlOoeXjmp1sTbPNNPsE2DCSOxUML4gg/J5tivSuwFurry6VOvZOVU8uPv6TTXRNo81n/GEfZL6w1s1BkFXpD9o80eMI+yX79KgyCjpD9o80eMI+yX79KgyCdIftHmjxhH2S/fNKgyCnpD9o81L2lhLRiaGfMMisyhiSt7AqexgSBb7QeoA1t0kMaLKYceam7E2WJo0Yy5ScoOaRh0pHUNYDRAE1J4EjtrDFeIZlVnf5KWxohEy4808+yowY/h0KyuI1dZWIuS63Iy3ABQXPVnXjVBFBB7BmBOSnXP2jzTkXJ4sAVli5yq6g4ghiG4C2XRuGhPX57DHYL2nl+U10TaPND8nmBIMkQswT9IN7nKBoEuOmvEAjW4FqhtIhm5pzu479ya2JtHmiTk+wv8LFZb5j7oNhZih+RztVPRvoPsoKQw/tPLxTXRNo81U7WVcO+7cljlDXjmzrY9V7cazQy14mBzCqaQ8fuPNQ/GEfZL9+slQZBOkv2jzTmHxsTMqneKCQCxc2AJ4nuFRUGQTpL9o80rbeGaE3SbeRkkBla4uNdD1jv081SGtOCOjxh+4q8TYqFS5nVFGbV5WFsr5LNZdGJINuOXXurWfFDXVQyfv34q+uiYvPNNPspQ7IZkBVDISZjYoHZLg5dScqsBxIkU9tpEVpANXddj7+ijXxNo8054ha4BkjFzl1xDDXOI+tL2uw17NTYEExr2bJ5bpqddE2jzXpvgd5Nph0m2pieaE3kcbM5ZAiEiWYE9RIIB7A3bW1CbXlVFplLxWGLGe4SLjLivPuVuNxG1J59oBfgkIjUFlBVNcihSbknnNpfUtXv6HqaAxlGce0624258rlz3TdMrO+LZdboVs6RHNzSHcEqpB4aK1dHpMLAzsJstsF6pIrsWzJWmOGC/ChnUrcaFL5tb20sfRVXUqE2DriezIHncpqmck7DsXEM+6WM3vIL3AT4O+e0hOUhbG5vaqupsBrK5dZZxtusvt4JVM5KLLhJFVWZGVW6LEEK1vmngfsrOyNDeS1pBIvGI4qJKXPsLEqqMYmIdN4pXn83KrXOW+WwdCQbWzDtrXZT6O4ltYAgyM7LbRjfcVNQpvFbInjNmja4RZDbnZUbolst8vmNqtDpkCIJtcLyMpkXynf4IWkLg2VNZzu2GQKWBFmszZFsp1POIGlWNKggt7QtnLKwTNvBKpRi9lTxFxJE67tsjkqbK2mhbh1jz3HbSFSoMUNLHA1hMW3hC0hQ62FVFERREURFEWv8J3xmD/YofzJK4GjO5E+M/ZZX4LDYHpN51/MFeFiXe8l1KJefD/sFo+Q2AjnO7lhknQsx3cZAYkJobkjQefsq+K1h3SrTB8ncJZFODxTMUQ84pckiRs5VZRaIgLrp8WVGpJEqqinY2EYRyQ4PGtGbuSQJAUEJANomByiQKzWtoxW6nLcieGxsAFEhw2MIBkzaxpcRMXlsjSFhZQyEX0AzXJBuRVxxGxtLRYkHm6tZk+VmJVZFbgUsAw1A6rgkWSa19OHVfjRFyiIoitsF+jT+ZfzFquKyfsTWLAMeHBNhla542+FbWpxVT3QoiIptd7Xax0Oi/O7+vTuqZqqSqjTnWubHQ6DTnd/Xp3URdVF5t2tckHQ6DTXv6/RSaKbsHBJNPFG9yHYhgrBGAAvcMVYdptY3tbroi2e1+Q+CSCd4MXvJUlMcS7yLK3wqIqmw6RVib5hw4WuaIq/bGwNn4b3NI0zyxuxEgSSMs6CJHEsdl+DUuzrla55vEa2Ioe1NiYZcOmIhLsrqzlzLGRCd4yrC8SrnZ8oS7XUXe9rCiKtxv6LH+u3+kVULI+4KaMHBLisSszshEWJkjy5QDJHE8iq5bqJTLYC5LDhUhQ+9TNlclYXwskk8ow8qtCEZpEMTLI6BiVVb3VHLWDE6HQWNSqLT7D8GeBxWLfDxY7Mu6ikQKY2kOZVaR3ygqFGbKFFzci5FucRazwxcplwkEeyMKFUGMCQW0SG2VEHYTx7RlHzq9FoHRwiu177mmzeViivlYvIcFteWJBGhAAljm4Xu8d8t78VFzoa9TGocOK+u++qW+Bv8VgDiE9itvzSF2fKTI8MjG3yoVKJ+5mB7b1ihaOgw2ta2cgHAW4OMz+FJeSkNt2cyGQtfM7yFDcx53JJIS9gbsSCNQdRar9Bg6sQwLgBPGQ3+5qKxnNTJOV2JYZSUIvMeiBrNn3nDt3j/u7K126IozXVhOfZx2ZS+itrCoGP2xNNHHDI11iAC+YAKPQAB+N62YNDhQYj4jBa6/6qpcSJKenK7FBBGHAURiIAKBoFVQxI1LWRB/lGlax0PRXPrkGc53+XC0qdYU0OU2IBmIKjfosb2X5KR7tQOzmn02PUKudF0chgIPZJItxJmlcpO0OUc8+8MhUmVVRyFA5qybwWtw51TB0bBg1QyfZJItzEvoheSk4zlBNKsqNktM+8eyAHPoSwtwJK3J7z21MLR0KE9jmz7IkLcLfpNC4lVVb6oiiIoiKIiiLX+E74zB/sUP5klcDRncifGfssr8Fh8D0m86/mLXhYl3vJdWiXn/x/7Babwfws7AKs7HM5KwOI5GG7tbOWXKutzrra1tavitXArRYAXAtBtVyoiZWLvqSqKzRqsoNypcggsF3moyi1SqquwccceHj3se0YDEoEjIzKrCaRQQM/NjW/ON8tyqjiQVIm9rbIJU5IdqGYAxoXZXjVmLiSMlRcAoDpcEg3IsRcij4fZWFMkhODnEeXCuoYMDlOshS8ylg+V8qgsx1seaQSKbHsTBtZRs7G5ju1BtzM+dlNyZALEhgdRop6BBYkVemxMKmaSbCY62Z2UKqrHukPOzBiWUrrcZjay3JzixFQ7ekwTZPciSpYyB94QQRmvGRYkhspserQd9yJOC/Rp/Mv5i1XFZP2JM/Qw1r8G6PS+Obh31OKqe6ExATdLbz4zSw1vp0f/k/pUqqTETzNZOmbW7eb0fr8P4aIuwk2j1k6bWsOvm9D63C/2URJhvzOn0ja32dDv/pREqImyfGfL4DThrk/3oiICeZrJwfo+bXJ/vREqIMMnxnRfgOqzdH6vG/+aomrFjm3hSsd+ix/rt+AqBerPuCt8Xg8C7O007xyAyF1C5geeAgXQdRudTwPDhWEvjB0mtBGCOAUU4LZmv8A1M2lrDd3ubtfU2y6BO3j6Ir0jZHNVk1e6eDbk3BsnAy465LTIJbyAIwjCZkjN+iSbk+cX4VsQQ95AcLScLVUrzPbmwZppsXisVKpfdb/AJhvz2zWj1HRURSC4PAJbjXtKNpKGxkKDBYZF1W3ISmeJmDzWuWTmSVWbA5OpiIHkMhVw2ReGUG6AZuvnbwgcOieNbdN0i+jxwwNmJTOeN3CVqq1kwu4zkrug+aUM6TQRsqg2Cyxh8xJ1BBIW1uINVhaW1pEmSBa5wJzabvuhhyUsciGvn3yZBPuStzvMvun3Pm6NuOvm6qw9eidSoZ1K08O7Wlmp1WM1HwfI9pFR96FDmXRkc2EZYfJXnMchso10PZWWLplsMkVCZVbiMZZ3X3qBDmoe29he54IJC4ZpWlDZb5QFCFCCQDchmv+rbiCBsUOnmkxnsqyDQJTvmZz5SUOZIKzl5HKYo5UmC3gWVlcEm5RGuoQE5CXZbkabs6nq0m6acIjmPYT2i0EcSLZ42eM1bV2XqPiuSwzSrHKPgIopHL6ZmePeEIBqAFB4jiLdlZWaWIax0RnfcQJYAGVvimrySMdyY3G/WSQExJG4ZNUs026N7i/adOyrwtKa7Vlje8XCRvsbP8ACgslNJ2vyYMIxDrJmSCTILqQWUlQHHVY5h168esXmi6U1zobC2RcJ33X2eSOZKaz1dZY0URFERREURa/wnfGYP8AYofzJK4GjO5E+M/ZZX4LE7MW727WQf8AkWvCvw94Lq0PvH/x/wCwWi5ER3zDdzSWMpKwsVkssdyRZ1JtbhfXQWNXWscVp5sEUkymPbTAMRcSizBFZeabkNzrcDwBtbhUqiq5oMzQBsPtFsOqATpIznOBci3wgAVWKdgXKLjqoim7JdlaHELDiijFXDb9bsyL7llIV5SOm+HAPG17EACxFKwGz2ULmw2OklGSF2XEWZlDZShy4g5VLG97ZQpOnGSiKBtXacWF3cGITaMYdEk/SAzEKwykWewP6RpcAF+idCCLCPtrEagYibLzrDePwa4Ol+sEg+c0RV1EVrgv0efzL+YtVxWT9iRiBdMMLX5raXt/jN19XnqcVU90KPCmq80m8lumBfhp3H63D0VKqkxp0dDq5HSAv0dPq/rd/dRF2JNI+adWI6YF+Gg+b5zxv3URciToaXuT8oC/DT6vnNEXY00TmnXN8sC9v9P28aIrXY2Iw67veYcu3O52+sDa9+ZawsO/WteKyK6dV0t0vutqixIbIjS8Wc/JaLlFtrBTQhIYucVbLwFrA9f2ddr276oxj5iyS60ekwNU8F4cSLBLH7LLY79Fj/Xb/SK2QuG+4KQ0iLj80hUIHObMuZba6FcrceF8rWNjY2qQqvvXp/IXYWzdpYicQxIYVmSXKYspjjBDBRJY5t4yuuUkAIGNrkZZVUx4cuVW+nGAib4OA3ktwaa1rf5Bcedm7K9j+n6DUYY7habuH5WvFdMyXl1ejWFKikKsGUkMpBBBsQRqCCOBqHNDgQ4TClEkhYlmJJJJJJuSTqSSeJo1oaAALAiRUqEUki7UouVEkXalEVCIqURREURFERREURa/wnfGYP8AYofzJK4GjO5E+M/ZZX4LH8n1viEHbJEPTMteGdh7wXUoplPw/wCwTM2MkieREdl57dE2PG3Ea9Qqy1SUjxtiNPh5dOHPbTiNNdOJ9JqVCWu2sSL/AA8mqlNXYkKbXAJN1vYA2tcXHAkURNHaM1gN7JYXsM7WFyGNtdLkAnvAoiW21sQbXnlNiSOe2hNySNdDq3pNETOKxckhBkd3IFgWYsQOwX4CiJiiIoidjxDBWQHRtCPtB/2FFMzKSDOTlB1CaAHhbMWI014k0Sa4sgFuaDY3+VqPmnXh+/XjRQgONOaNDfr1GnNOvDTq11OtEQsgFuaDYknjrw0OvDTqtxoi4rgW5oNuPHXuNj+FqIuq405oNr/O1v22PV3WoiFkAtzQbXvfNrftserutREK405o0BHXre+p14i/V2URKfEsUEZPNBuBpxopmV1meWTgWd2AAA1LE2AAHWTRCZr6MhjTk7sW2nuqT7c2Idf3ogH8Paa3tHUM0qOIeF54fm5Y3uqia8wxW1cBKl5UZpd30ggjBkPEtka7OTY3YkXueu1enh0Snwn/AOm4Bta6c7PEWDhasRc0i1Um1sTA0sckSBFyQ51C6B1UK9gWOa5BN9L316yelRoUZkJzIhmZukZ4G7CxUcROxX2LxuzZ31Qhy0ShggiitnTNzUbmgKJRc3POGpsDXMhwNIwW2GyRMpzNxleM5brN6uSwpqaTZSuV3bkCVBmuxvEBGHy2frInIvfpL9l2N0o5ocXDu3WX2ynZw5FR2FFwuNwAKOYGVhIl1BLJkEquz85tSUDJkOmt71nfBp0i0PBEjbcZylKzfbPyUAtS8HPs2yb1HLXkzEBrEFmyGwkHVl0AH7jesWHpGZ1bhKQldkJ4Z4lBUxVftqbCEIMNGy2BLMxbMSWNlsSRouTUW1Ld1bVDZSgXGkOnkBLIW85qHEYKzfaWBkVUkisI8MqK0aBWM5iVS0hBGYK63F+OZr8a0hRadDJdDde8kgmYqzMgMpiw+Elas03pqWbZ1nyxvfdLl0fSXnX/AMTgeZ5u+2uRrNITE3DvGd3dww/yo7Klzz7Hs2SOe+pBa44ubCyycAMt76kdh1rAyHpatN7my3cOGP1Vv9NRMXj8DucSkUJV3cCIkZrRqykEMxJRmG8zDXiBe1Z4cCm66E6I+YANbC0g5XyskqktkZLOV2FjRREURFERRFr/AAnfGYP9ih/MkrgaM7kT4z9llfgsryRXNjYE+dPCP/Kp9GleHcF0IDwCQcfsZq1wrwRS4g4gHKJ5l0AJzC+UHrtfsrFGEQt/071RsrSU9402WQP0kaAHmRG50JJ17mXT517aa4atKzb5+96ms1NQ7W2fn1E2TIOKxlw+8JNrWBGTKLkjgTY8KsW0iV4nPwlL19ErNSRjtn2A3mIubXbdxadO4Ay84fFcbfK81SekZDz3flKzVVbT2kgYe52YrlW+8RAwf5QGUWtw/vWszA+Xb8lUuyUPxrJ9X7q+yrySujxrJ9X7q+yklFdHjWT6v3V9lJKa6PGsn1fur7KSSujxrJ9X7q+ykkro8ayfV+6vspJRXR41k+r91fZSSmurDZe0Y3Dxzx5i1shXKADrfMLXIOnAgi1QRJS01rEbLijixEwe5jj48M2QTIGtp0st9bddQ+dUyvw4o0Cas5dq7PHQ3pPwou0aBRe+6IAe5C2AIPG54VrtbSMSMPzhiprNTb7TwBaSxnCHd7rmQ5xxEge9wR0WFrX4acasBHkJynjf4SUVglz7T2cWLL7oUEtzAsJsAwC85gTqtyeOp7BrAbSAJGU/H3+FNZqUm0Nmi5z4k66ApCLKCDclRqSAw6uI4WzUlSP+PmorNXovgd5O4bES+MF3pSAgJvFiVTNa5Iyi5yXB46Ejjars1s+3KW6ahzhKxZLwrcqvd+MORrwQXjitwOvPkH6xA+xVr6Joag9GgTcO060/YLSiOmVmMXsmeKxeMi659LHm2Buct8uhU624it+HTIMQkNdcZZW/dVLSE1NgZEcRMjK7ZCFIsTnAK8e0EVdlIhvYXtcCBO3heokU5jNlTRGzxsDYHt0LFRcjhdlYfZVIVLgRRNjh7t+iktITD4ZwCSjAA2JIIsew9h1FZRFY4gBwt3qJKSmyJzEMQIyYy2QMLHndmUG49FYTTIIimCXSdKct3G5TVMpqOuEkNrIxuSBZTqRxA7eBrMY0MXuHNRIri4WQ6BGPmU9l/wAKGNDF7hzSRTmG2dK5sqMTlaQaWuiKWZhfiAATVH0mEwTc4XgeJsAUhpKjVnVUURFERREURFERREURa/wnfGYP9ih/MkrgaM7kT4z9llfgongcwyvtSPN8kFh5wRavDnBbYU/HLPFjsaMGF3m+n1YqAqsl3cFiACLm1ApwKI8FtKxVtl4YgpKLhIlI3llU5s2mQslgepe4kWVFWTY/FB2gOAwiSCPfFTGgYR5FY9Nr3yjVeIu9xcaET6YfGzxRyRYCFQXZs4KR5jG4bIhzKyooVus6FyDYDKRObY29tLB5fdGGhjzvMynKLliRnuVbnAEggNfXKdcqkEVTDy8nXORDh7vI0zHI1y5XKdc3Rt1dd2B6RuRcxHLzEOCpiw1izsbRAG7xmM63uNGOo1v120oioNqY0zyvMVVC5vlQWQaWso6hRFEoiKIiiIoik7O+MXz1Drldl6s5PjsZ+rJ+atQblI7xUnC8tcQkaw5ImREWNVKngNCSQbkniQdLhSACL1ZY0mHlfIsaRGDDvu1jRWkQswCNmFrtYXI101BNEXZOVzNe+Eweub/Cta+W1gG6sq27rjrNEU7ZW2JcZLFhoMJhxiZMTFIkiJlC5OClR8kWuTfgDp10ReyeFDbq7M2euBgIEs4Zbi4IU6yydZBYkga/KJHRrs6EoPSI9d3dbbxOA9/dY4jpCS+f694tVX6crp1TdqsarkEfNDKbC9jcNfrbm9HU6a1yToeA59dxJM52/wCPzvWTWGSrsXtWSSSOVsueNY1BA47sAKWvxNgB9lbkKiQ4cN0MTkSfO+SqXEmatm5bYknNaMG8bDRrKUfeCwLdbXve+hI0FaI0JRwJTOOOYllkrawqFtHlFPMjRsbKz52sX1siIFbMxzKBGhF76itij6NgwHh7bwJC7MnK+0qC8mxJwPKCaIQqmW0LSuoIJBaRcpLC/EAaEWtUxtHQoxeXT7QAPAW2fdA8hTE5YYgFTljOV5JNQ+pkLMynndC7tzfTfW+A6HgEETNoA5SlhfYp1hT0HLrFIqqFispjN8hBJiIMeZgQTlIH4G9zWN2gaM5xcS62eNlt8hLFTrXKNBysxCjKMpXcrBlOYqECCMkDNzWKgXtobA2uBbK7RFHdn3q3jOeVssFGsKoa6qxooiKIiiIoiKIiiIoi1/hO+Mwf7FD+ZJXA0Z3Inxn7LK/BZ3kDtBoNo4Z1+VNGh/VdwDXiCttt6tRtSNcRip5zLY4iexiJDBiCFvldCV7QGFQpwKSNt7Lt0McbR5Lb4WOo5pObo2DDTTnHm6CrKijvtfC3Pws5hERWNDffrNky7wuCFCk5mtmbjly9YIu7L2xs+OMBxjC95S2V8qsGIKAWkFjzRckHgeNwVIq/lRtDCyiMYYYgZWmLCZ8457Ark5xt130+1uNEVBREURFERREURFERRFJ2d8YvnqHXK7L1ZyfHYz9WT81ag3KR3iqOrLGiiIoi978AHJIRRNtWYWaQFIb9Ud7M+vWxFh3A/Ooi835a8oHx+MlxL3AJyovzY10VfP1nvJr6Po+ito0BrBxO8rTc6sZqLDs9CoYk6gHiPZXkKd+p6XApD4TWtk0kXH1XsqH+naNGo7IrnOmQDePRaObkJzM8bOQImlbOAnRFyqjUk8baW0GpvVD+qKdKYa27I+q1GaJoVaq8u70hIg+J7P53JuXkIyxvIZEsgJsGJZl5xDKAnRYIxBOhqD+qKcBOqzkfVXbomgOe1gMS34d268TtUfBclEkw02J3jDdFQFsDmuQG1HC2ZerW/cbUH6rppYXVWcj6rLF0DRGUhkGbu1O2Ysy/buTuz+SCSwb4O+Yy7oDLdR0OczAXA59uB1y9pIs39VU1zZ1W8j6qkfQdEhR9WS6VWd4njdZu+qch5EDMqPLlJnWAnioLJmuDYZuzTQ8b2sakfqmmzlJl8rj6qjtD0OqXNrns1rxO+WSh7K5MpLPuGaRbZgbLcgjTVSAVF+s8Ou3VRn6rprnVareR9VnpP6fosKDrGucfEelqnnkEQwDS2zJI6gAs5KJnCEKpGY9xa2vHS9/6opuTOR9VrjRVCImK9hANrZWmU7ruICTFyBkbLZ150e9HOPR5vXk489aD9T08/tZyPqjtF6PE7Ylhl+2+3duWMca172E6swOOIC8xEbVcWjArlZFRFERREURFERREURa/wnfGYP8AYofzJK4GjO5E+M/ZZX4LG8nmtjMOeyeI/wDkFeINy3IffHEKRtFrxzntxDmoyQXFU2U1ZVkjKaJIoymiSKMhokijKaJIoymiSKMpokkZTRJFGU0SRRlNEkjIaJIqRgB8IvnqHXKzL1ZSfHYz9WT81ag3KR3iqOrLGiiLQ8guTD7SxseFW4U8+Vh8mJekfPqAO9hRF7h4QeUKQYjAbIw1lUTYUyBeCxrIu7i+2wbzKvbXb0ZQa0CLSHCwNcBxlaVie60BeDzdJvOfxr28PujgtcpxMY4Fg2g06q5sXQlBivL3wwSbTf6row9L02GwMZEIAsF3ol+MJfnnhb7OzzVTqDR/8Q8/VW65pv8AJ5D0XBj5PnnXzU6g0d/EOZ9U66p38h5D0QMfJ88/up1Bo7+Iefqp66p38h5D0XRtCW1s5t9lOodHfxDmfVQdM04mZieQ9EeMJfnn91OoNH/xDmfVOuqd/IeQ9FwbQkvfOb9ul6dQaO/iHM+qnrqnES1h5D0XfGEunPOnDhp5qdQaO/iHM+qjrmnfyeQ9E5HtedQyrIwDjKw01W4NvNcD0VPUOj/4hzPqqO0tS3EEvtF1g9FBJrrNAaJBc8kkzKKlQiiIoiKIiiIoiKItf4TvjMH+xQ/mSVwNGdyJ8Z+yyvwWH2W9p4j2SIfQwrxBuW9AtiN4j6pU2LBR01u0hfutSSqTKYTse0EAAykfh+P9+msRhkm9dFlNhhoFU+/fu1d8ZJ2H93t/v0WjVFW6fDyPv37skeMV7D+7+/79LVFOnw8j79+7ZyMBtpI5FkMQkC3ORwCjXBFmHWNe49hBNxIhlVfTWObIAj3x4+yrIcq8Plye4oz15jl3l96JSLhQuXQJYLotwDap1ZWIUpuZ9jj78AmG5Txb/wB0e5ouDDdZF3NypVTu+64PeRfS5qNWZzVulMq1bfv9ffOcuDljApzDAxZr8eqxTKwCnQXOY36r6W41OrKq6ktNk3e/H39Gto8qoJAwXBxxllKkrqbl1YOL9EgKV0toxvewFCwqW0prcSffHgqbxinYf3e3z/3e9dUVm6fDyPv37tKPGS9h/d7f7/BqinT4eR9+/eB4xTsP7vbTVFOnw8j5e/fNmTHAurW0HHt81XawgLVpFJERwIF3NSIpw74pxwZGYX46yLVitZpmSqirKiKIvovwc7Lj2JsmTaOJW00qiRgdGsfiYRfgSSCewtrwrPRqO6kRWwm3lQ4yE15TsraEmI2pBiJTd5MVC7HquZV0HYBwA7AK99Hgtg0J8NlwafotUGbpqjm6R85/Gt1ndHBVKRV1C1uJxWz33eYCywoPg4yh3wVQS5UDMhIe/E9YOthwIULSEOtVxcbzPs23ZG6WGYsWabCoUmJwZjkUKuZsNAEbK3NmS28AykatrziD7dlsKlh7XE2B7piYtae7yyVZtkubHxeDXDSrMhMw3275gIOeLIl2OoyMMw7zSlwqY6kMMI9iydspSMzIYzFiNLZWqemN2eJXORcoxUcikxk3w9rPGF6I8xXX0W1jAp+rAmZ1CDaLHTsM/wAqZtmkk7I7JdT9a4JRtOzIG3dvlaG9xU//AG3/ABu3Zjzv3Kf9NVm2JcKYlWBbMs0+pDZmiLXiJYm2g0tYH9992iMpQikxjMFrcpBw73MqjpSsVnhMTs5o4UnFiqsH3cZVsxCgFnGpYc8/KBsOjcitKLC0g2I90HEiUzOy2chyyI33qwLJCahwzYEJorZ2hkvmFwsu5CqqjW5Mgd82lgwHEaZ3spznWkSDhdi2cyeUhLEhR2VP9z7LeKVkJV1huA7EAyZX0QE3Y5t2OsWH21r6zSTIrGuEwXYDCy/Kye9WkySyFd9YUURFERREURFERRFr/Cd8Zg/2KH8ySuBozuRPjP2WV+CwWFPwi/rr+NeHd3St+j/3WcR9Vc8l+T3uwlQbNc2uwVbBcxucprDSKQ2Ayu7yVoMIRXEEy8Jq3j5BObaML5dTIluebL8mtfrGGugdGMH+55FJg5DF0DoCQc3+IikZWykHMo1uRoL0OkYYMiCpdoprXVTE8ilHkE+vNfQFtZIwLDjxHHhp31HWUJQNGMP+5/6lJbkMwzaNzQzE7yO1lAJN7fWXTjrU9Yw1I0U0ylE/9SqvxLD2v95f+NZeljJbX9PO2xyXfEsPa/3l/wCNOljJP6eftjkueJYe1/vL/wAadLGSf087bHJd8Sw9r/eX/jTpYyT+nnbY5LniWHtf7y/8adLGSf087bHJd8Sw9r/eX/jTpYyT+nnbY5I8Sw9r/eX/AI06WMk/p522OS4uwomEgWTKyBWAd15179FbAta2ttdRoeFZocWuJrlUyhdGiasmZlNRNl4Vg88RHOEbLYa6iReFZDctRl6jNsif6NvRSaiqVtfBJyGfGY1WnjIw8FpJMw0c35kevG5Fz3Ke0UmoIktD4cOVfujEDAxNeLDnn24NNwP3BcectXtNAUHVw9e4Wuu4fla0V0zJYXkp+nYT9og/NWuvTv8A80T4T9FjbeFXTdI+c/jWwzujgoKRV1CKIiiIoiKIiiIoiKIiiIoiKIiiIoiKIiiIoiKItf4TvjMH+xQ/mSVwNGdyJ8Z+yyvwWBw/xi/rD8a8O7ulb0H+43iFMiYjCsQbfCD/AE0ImbVDHOaCWmSv35D4tcQMG2KwwxBIXdHEDNmPBL9HObgZb3N6VG5K3SY22eZVLDsfGubLFK1mZCRcqGS+YFxzRax6+ApVbknSIu2eZXBsvHNmO6xByhSbq97EhV48b3FgKVG5KBHii5x5lMvg8UAWMcwCjMSVcADtJtoO+lVuSnpEbbPMp6fZeOQgNFiBcIw5rnRyVTh2kEDvBFKrck6RF2zzK4mzcaWyCKfNlD5cr5spcRhrdhchfObUqtyTpEbbPMpLYHGDjHPxA6MnEnKBw6zcDtNKrck6RF2zzKFwGNNrRYjWxHNk1ubDq6zSqMk6RF2zzKfg2Lj3VXSKdle+UjMb2NidOAB7e0douqtyTpEXbPMpj3DjLXyTdIx8HvnC5yuXjcKQT2AjtpVbknSIu0eZQ+z8aNTFiAO9ZB/tSq3JOkRds8yl4bZ2JzhnhmsMxJKPoFNmJJGgB0PZQgSsUB7nOm4z4p+PZvujGSxXsWksutuc8qxgEkGwu9Q94YwuOAnyVZTdJWmG5EPJlKc4ObKd4gU/CLELEj5TNzfnAG19L65pjASLZ8N01aoF7TFgvEOx93AjSYl/mqXJncasco6KAaX45QOuuvQKO2PGDXkBt5mZWflYHmQsXhb7GxZJY4eckkkkxyEkniSbamvoApNHaJB7eYWrIqx5MbGxK4zCs2HmAE8BJMbgACRbkm2grXptJguo8QB47pxGSloMwq+XYmKzH/ppuJ/wn7fNWdlKgBo7beYUEFI8R4ryaf1T+yrdLgbbeYSqUeI8V5NN6p/ZTpcDbbzCVSjxHivJp/VP7KdLgbbeYSqUeI8V5NP6p/ZTpcDbbzCVSjxHivJp/VP7KdLgbbeYSqUeI8V5NN6t/ZTpcDbbzCiRR4jxXk0/qn9lOlwNtvMKapR4jxXk0/qn9lOlwNtvMJVKPEeK8mn9U/sp0uBtt5hKpR4jxXk0/qn9lOlwNtvMJVKPEeK8mn9U/sp0uBtt5hKpR4jxXk03qn9lOlwNtvMKJFHiPFeTTeqf2U6XA228wpqlHiPFeTT+qf2U6XA228wlUo8R4ryab1b+ynS4G23mFEijxHivJpvVv7KdLgbbeYSRR4jxXk03q39lOlwNtvMKapWh8KCkS4QEEEYOEEHQg7yTQiuPoszY8jbP2V34LAYf4xf1h+NeId3TwW9B/uN4hS0/RW/7o/01JvVR3SvYV5SbBOJaWTEfBvifdmRFxdt+vQd0aMAXuxbKTdrdVxUqiw2zOUmGQS3mxSF555AI2IUq9irFQRzrqmh48LqBqRPDlVhd6958ZuTEwWxBbemQsujHolSMwOjNxFgKIl4rlRg2ZE3+NaK2JSQSNfmSJzVBuTYuI7kWNg3baiJqPldBlN5sYG3afKWwZQ3MW1tA+RgzdIM4YGwuRIwfKPC3WSabFbwxRIzoSGLZ3eVScwO7uY+v5JsAGspFYw8sMGSGbEY24EapmPRCnNeTKSG5+tlHR7W0oiyuN5YYwllTEybsc1b5QxUHmlyBq1ranXq4aURQYeUWLRY1WdwsN92AdBe99PlaEjW+mnCiJWE5S4uLNu52TM2dsthmbLkudNdL/jx1oiWvKrGgW90SanNx6y4cn7WAJ7aIpGC5U4wsytOzCTOrA2NxJq9rjQnXUa6modcrsvRDCHxWJQsFDkqWPBQ06Ase4XvUFSLyvavBx4NMNDLFtAh+bGjxrJbMsrA5y9mIOXS1gNTfq0ssay/LadtszvJDIckMi4eBMnMbNJHGZTKTYAtIvAEgZLgXr2FBA0cwNiNtcKxM7RYTKXAc5rXd2zYsnDyTke6q6FxLHH/8ZDwvNn3ncqHS3XXSOkoYAcWmUid9hDZS8c1SoUqHkfLvYonkjUSvkDDOw4uubRbamNgBe/DQDWodpOHUc5rSZCeAy9eCVFW7H2Vv8SuFLFCzMpOUkggE9EkHq67VtUikCFAMUCd3nvtUATMlPw3JOWRYmR4yJITMS2ZVW025yZitmbMU4dvZYnWfpKGwuDmmx0rJHCc+Cmqo+3+Tc+DWJ5clpgxTK1+iFJB006a/vrLRKdCpJcGT7N8xx9FDmkKnrdkFVFJBEUkEWh2bycSWLDu0+RsTPuFXd5rWZQXuHubZxpbjpcVzo1NcyJEaGTDWznPyu3K4aoG0Nk7qFJs180s8JGUjKYsmtzxvn4dVvRng0gRIhZK4NPOf0koIkocmGKojng+a2jDomx1IsfsJt12rO14Li3KWWKhX7cjpGiWWIlgYnmfOhjy5I1kZFuSWazG1wLgAi4YVzRpSGHljxK2QkZ3m/d5q1QpEvI3ELG8rGIKmY6vqwClwyC3OVgrZW4HKauNKQC8MAMzuuwt4YpUKa2Byd90qGzsuaZIAFj3liwuWfnDKgHXrr2catS6aIDqtUXTtMvAWWlGtmrjFcgkVEkXFbxXAYMkDkZfdEcDWBIcsDKCBl1ysOy+mzTBc4gw5SzcMiRhLDzU1N6o22F/1qYLeWzvCgdl+lCkHKpa45wtY66ait8UsGjGPVuBMuHgq1bZJvHbAlihE7ZcpYLbnBucZFUkMo0Jhk04iwuBcVMGmQosTVtvlPDd6hC0gTVvg+Rm8jwsu+I9057jd3KZVkbTn86+7PZxrUfpOq+Iyp3d99oGVl6tUuXcLyLDiI757yrcAQ5udu4JAoOe1iMQBmNrlCACSKh+lKpd2BYc97hl/x32GaVFkq7Egsa1/hO+Mwf7FD+ZJXB0Z3Inxn7LK/BYHD/GL+sPxrw7u6VvQf7jeIUtP0Vv+6P8ATUm9VHdK9hfkoxx7Rx4DCmJcUsQiCRMhwmoedpd5vFkWwuMuhYDXhUqi83j5NQSSODi4oPh541R+KpHchixNh1AZrX1sSdCRRsPyWDoWGLwwYO6kNIFXKiZswZtWvwACm2lyLiiJb8kG1tjME1iBpMdSeoZlF+I9PcbEXH5HyZJZFxGFcQqzuEkLGyi+nN1vpbqubXvpRFLTkbCbf9dF/wCMG26z3AaQdfNsbHrNgRciZwfJKN485x+FUhpVyl+OQkAqTa4a19QLKQdb2oi4/JWEbwe7Ybo6RrwykugYMzBiEUM2QnUAhtbCiJubkzEDGFxcUm8kEZKlNASwzDM40GQE5so56WJvoRSl5HQkX8YQDo6NZTq5U2DNfgARcC5IBtqQRV23tgJh4o5VxMchdnUxgrnTKxAJyMwN7a2JAuBc8aIqvZ3xi+eodcrsvWh2RsqTF46fCxC7ylkHYLyrdj3AXJ7gahMSvaPCLtGPZey12Zh3tI0QQEkZt3mCyOdek124drHQDTtaFoeupAe4dlp88FgiOkJLybYOEjkw7gy7tzLGATKqxi7xqGMd8xK5ma9rWUnMMhDeppcV7Iwk2YkcJm44+X2M7MDRYpybDjMjKdpqBnvm6zIMhjNt5ckqznNwBjyk3IrAaY4MBEDC7dbPDOVmIM1NW29Qdm4aNscMNNiWMCyO5kz5blVLZhckByQBx1J41sRojhRTFZDFYgCUp2ZXCxQO9Io2Bg4TjpEeQ5E35VxIqMSoOSzkgEsbDj8qlLixBRWuaLTVslPjZuRoE0/FstFyFcVbMmJO7WRfgyImdUZw9jnYKBYc4WvY80Y3Uhzpzh3FtsjbbIkAjAb7MLLVMlV7fhRRAY5mlVolc5mUlZD01yhjlAIA1tw662qI9xL6zZEEiwXjDiquVttHYGFyvIk4jCRqwQskruxMvWrBV+LTgWvvFNlzZRpwqdSJhrmTmSJyIAu3TxOVx4qxaET8lsOzuIsWuUSRpGDkZ3DmJQ3Nfj8JIbW/wjwvpLNIxQ0V4ZuJN4AlOy7cOaVBmqLb2zhh53gWQSZMt2FhzioLKQCbFSSp14g1v0SOY8IRC2U8PeaqRIyV5siDDGLB53kEkmIZTlmCCOIMuZ9b5CbnsvlvWjSHxtZFqgVQ3ZnM2yG9WAFijbbw4XDIc7M5lkv8MHUDM4uyXuHNr3GltSTnAGSixC+ObJCqP2ywFxy9i5Q4WKlliURowPObNmF10sdNBqPtrea5xe4G4SVVqY9jq+QjGCFfc8JBMiuSxRWkW2cFEVjw7tAbGuQaUWzBhVjWOEsTLC0kK9XehNhxRpLmxyvbC5gsbgAyWciPVucoyDq13qaC9SaY97myhS7eIwstusJn4SNqVQMVC5MYSF0u8hUtNEjgTLFliuDved07N1dXoNZ6dFiNfJrf2kjs1pnLdYoaAr6XZ2AEaNDiJmU5WKviIlcMMTGgXKDlBKNM4J4ZAbjWueI9KrkPYAfhJHdPjfIeKvJslQLgYW2ksTyndF1LSCQMegGN5GsAb6HU5TcXa1z0ddEbQq4b2pXSljl7nkLlSQrJcOzYpkjLYtl3pnkETWfLlznVzIoMjEINQt89+6qOpD4LnAQpykJiyc5YSNg3TUgA4pe3tkph4Uli2gJmWQxqiGxVSGu6ESEhSFXqHSFKLSTHiOY+DVBE5nG6w2DNHCQvUyTBwLHhis7ZmwuJLrvhZWXDLJGoAOitISuXS9rW0ucAixS6JNgkHtl2b+1I8hbNTIWJeJ2BgApySZjunYfDxgXCkqx0vziLaA62BAzZhDKbSye0MR+0+Iys8PJC1qjeE74zB/sUP5klV0Z3Inxn7I/BYHD/ABi/rD8a8Q7ulb0H+43iFLT9Fb/uj/TUm9UHdK9JM+2kxQw/jTCriM4jNhYGVv8ACeZcPkMh+aWJv31KqvK8ajiRxJq4Zg+t+cDztevW9ETFERREURFERREURFERREURSdnfGL56h1yuy9e++CTk8mETFbZxPMzmUIT8mBWJZ7fWK6dyi3SqzGOe4NbebFVxtK835Vco4MfiXxUqT3bRQJEsqDRVA3Ztp+8mvoNDocWiwhDaW8jfzWm5wJmqjeYT6Of1kf8ALralSM28j6qLEbzCfRz+sj/l0lSM28j6pYjeYT6Of1kf8ukqRm3kfVLEbzCfRz+sT+XSVIzbyPqliN5hPo5/WR/y6VaRm3kfVLEbzCfRz+sT+XSVIzbyPqliN5hPo5/WR/y6VaRm3kfVLF1ZsKCCEnBGoIlS4PaPg6gtpBsJbyPqliGmwhJJSck6kmVLk+roG0gCQLeR9UsXN5hPo5/WJ/LqatIzbyPqliN5hPo5/WR/y6SpGbeR9UsRvMJ9HP6xP5dJUjNvI+qWI3mE+jn9ZH/LpKkZt5H1SxG8wn0c/rI/5dJUjNvI+qWI3mE+jn9Yn8ukqRm3kfVLEbzCfRz+sj/l0q0jNvI+qWI3mE+jn9ZH/LpVpGbeR9UsRvMJ9HP6yP8Al0q0jNvI+qWI3mE+jn9ZH/LpKkZt5H1SxG8wn0c/rI/5dJUjNvI+qWI3mE+jn9ZH/LpKkZt5H1SxX/hQtvcJa9vccNr8bbyTjXI0X3Ik9s/ZXfgsBhvjF/WH414l1xW9A/ut4j6rQ4Pk5iXwTSLGbby47wFHD01GKqBYQvR/fdsQYtpZixRsR7qMaxTrbEL8XI6tIVvYtmyrz2ymwAN7Ki81h5VmJ5GjggcNLNJmkju5SQMpjYhhdLNe3bRERcr3XKVwuEBULqIbElTe982hOoNraMRpRFUbV2jv2Vt3FHlUJaJcoOpOZhc3Y3/cKIoVERRFyiIoiKIiiIoi1Hg45NPtDHR4dbhBz5WHyYl6WvUToo72FQRNS0yM1634aNsvuxsvCISsaq+IyAkIgF44zbgLKXt2KOq9ej0FAhsdr4pAwbPE4kfRYYpJsC8Sr2S1kuGJnYIoJZiFUDUkk2AA7b1Dnta0ucbApS5MJIr7oowe4XLY5rngLcbnSqNjQ3M1gIq54JJMkW0rICDciU0TABiCA17Eg2NtDY9dqqHtJIBtF6JzC4SSU5Y0Zza9lBJt22HnHpFREjMhibyAN6AE3KT4kxNs24ltYm+RrWADE3t2FT5iKwdPo05axs+IU1HZKPi8HJEQsiMhIuAwINrkX17wR5wazQo0OKJsIPBQQRemKyqEURFERREURFERREURFERREURFERREURa/wnfGYP8AYofzJK4GjO5E+M/ZZX4KDgtoSRuCjWN+xT194r5vrHDFfRtWx5AcJrV4Hl7ihCVLAtfQ5UGlh1AVl6QZWrC3RFHiGsBYqjE8osU5uZB9yP8A41hNJfO9bPVcAXNWq8F+PjaeQ4poy2QCLOq5Qxvc2A7ANe/vrPR4pcTMrj6Zohhw21G2TtkFseWvuR8DOGOHzZSY8mUEONVsRre+nfwrPEcAwlcnR8OKKSyoDfbZhivJ8PsrDMqlsXlOXMw3ZNjYcwHt1bX6taYc0i1y9Q8UlriBCmJ2Xc1F2xs5InCxTiVSL3Ata/Ue02/9CscR9UyBmtiiw4kVs3sq8VAMR/u1U1pWwaLmPJVO1NkXGeMajioHHvUdvdW5ApE+y5ed0poUhpiwBdeB9R6clQkVuLy65REURFEX0byB2YmwtkPjsQtp5VEjKdG1+Jh7QdbnsLN2VsUWjupEVsJuPkMSocZCa8gHKKQviJZAJHxIfOSWtdgw6INjbNcXGhVbW1B97E0exzYbGmQZdKX1+ueK1Q69WE3LaUuZBDCDYWGU5VIVkJAvqDG7JY30sRqL1qN0HDDKhe7HG+dv1E7Pora05Kvxu33lxaYxlGZGjYL1HIQQCfsrbg0BsKjGjg2EET4qpfN01PflpKbWijUrLFMrANmBiVURSb3IyrY9t61GaEhN/cSKpbLC20+dqtrCoG0tvmaEYfdoqiVpbi5a7FiczMST0uP1V+3ao+jxBja2sSaobLCyWA4KpfMSUjZfKuSFYlyK25DqpJe+V2DkCxsNRxtqNKx0nRUOM57qxFaU5SvAI+h5qQ+Sr8HtUo8rFFZZhZ15yj4xZRlKkEWZF6+Fx31sxaIHtYA4gtuN+BFs77Cqh0jNXo5fYjJkZVYAkpcuchMSxALdtFAUnL2sa5n9PUetWaSDjdbbO2y/fkFfWlUO2dqHEMrFAuVAmhZibMWuzMSSRmsLm9gBc2rqUSiijtIBnMzwHkFRzpqBW2qooiKIiiIoiKIiiIoiKIiiIoiKIiiIoi1/hO+Mwf7FD+ZJXA0Z3Inxn7LK/BU40PDr/wB6+aEL6Q0yIKcje2gv6P61UiazQ4tQSB8vyliU/wBr/WoqrKI7j/j8p7D4l0IZSQR1gf1oCW2hS46wSdb4flS5trzuuR5GZewjSjojyJEpDgw2OrNaAeH5UYMf7H9axELcDyu5v7t/WokrVyi/92pJC9JLH+x/WrALE559/wCVTbT2WrEyLcHiwC3v3gX41vwY57pXldJ6KY4mNDszAHmLeapt1H85vuf/AKrbm7LzXnKkHbPy/ld3Ufz2+5/+qTdl5qakHbPy/lb/AMDnIxMdjBM+ZocMVdwyWVn4ol8xvqLkW4C3XUzOKo9sMDsuJ8JfcrX+F/Ftjplw0WIwywwE5g0ygmbg1x1ZRdfOWr1OhQ2jNMR7HFzrpNw/K04lti8796z+U4T1613esW7D/lWOoj3rP5ThPXrTrFuw/wCVKqPes/lOE9etOsW7D/lSoj3rP5ThPXrTrFuw/wCVKiPes/lOE9etOsW7D/lSoj3rP5ThPXrTrFuw/wCVKiPes/lOE9etOsW7D/lSoj3rP5ThPXrTrFuw/wCVKqPes/lOE9etOsW7D/lSoj3rP5ThPXrTrFuw/wCVKiPes/lOE9etOsW7D/lSoj3rP5ThPXrTrFuw/wCVKqPes/lOE9etOsW7D/lSoj3rP5ThPXrTrFuw/wCVKqPes/lOE9etOsW7D/lSoj3rP5ThPXrTrFuw/wCVKiPes/lOE9etOsW7D/lSqj3rP5ThPXrTrFuw/wCVKiPes/lOE9etOsW7D/lSoj3rP5ThPXrTrFuw/wCVKiPes/lOE9etOsW7D/lSoj3rP5ThPXrTrFuw/wCVKiPes/lOE9etOsW7D/lSopvhIxEby4YRyI+TCxxsUYMAyySXFx16g+YitLRsN4Y8uBE3E2jgrPNy/9k=;" vertex="1" parent="1">
          <mxGeometry x="-654" y="727.5" width="240" height="134.4" as="geometry" />
        </mxCell>
        <mxCell id="aabwxI1RRvn9kMPN7O6g-78" style="edgeStyle=orthogonalEdgeStyle;rounded=0;orthogonalLoop=1;jettySize=auto;html=1;" edge="1" parent="1" source="aabwxI1RRvn9kMPN7O6g-77">
          <mxGeometry relative="1" as="geometry">
            <mxPoint x="330" y="700" as="targetPoint" />
          </mxGeometry>
        </mxCell>
        <mxCell id="aabwxI1RRvn9kMPN7O6g-77" value="" style="fontColor=#0066CC;verticalAlign=top;verticalLabelPosition=bottom;labelPosition=center;align=center;html=1;outlineConnect=0;fillColor=#CCCCCC;strokeColor=#6881B3;gradientColor=none;gradientDirection=north;strokeWidth=2;shape=mxgraph.networks.pc;" vertex="1" parent="1">
          <mxGeometry x="408.15" y="650" width="74" height="60" as="geometry" />
        </mxCell>
        <mxCell id="aabwxI1RRvn9kMPN7O6g-80" style="edgeStyle=orthogonalEdgeStyle;rounded=0;orthogonalLoop=1;jettySize=auto;html=1;" edge="1" parent="1" source="aabwxI1RRvn9kMPN7O6g-79" target="aabwxI1RRvn9kMPN7O6g-16">
          <mxGeometry relative="1" as="geometry" />
        </mxCell>
        <mxCell id="aabwxI1RRvn9kMPN7O6g-79" value="" style="sketch=0;aspect=fixed;pointerEvents=1;shadow=0;dashed=0;html=1;strokeColor=none;labelPosition=center;verticalLabelPosition=bottom;verticalAlign=top;align=center;fillColor=#00188D;shape=mxgraph.mscae.enterprise.mouse" vertex="1" parent="1">
          <mxGeometry x="75" y="440" width="30" height="50" as="geometry" />
        </mxCell>
      </root>
    </mxGraphModel>
  </diagram>
</mxfile>
